  0
SECTION
  2
HEADER
  9
$ACADVER
  1
AC1014
  9
$HANDSEED
  5
FFFF
  9
$MEASUREMENT
 70
     1
  0
ENDSEC
  0
SECTION
  2
TABLES
  0
TABLE
  2
VPORT
  5
8
330
0
100
AcDbSymbolTable
 70
     4
  0
VPORT
  5
2E
330
8
100
AcDbSymbolTableRecord
100
AcDbViewportTableRecord
  2
*ACTIVE
 70
     0
 10
0.0
 20
0.0
 11
1.0
 21
1.0
 12
210.0
 22
148.5
 13
0.0
 23
0.0
 14
10.0
 24
10.0
 15
10.0
 25
10.0
 16
0.0
 26
0.0
 36
1.0
 17
0.0
 27
0.0
 37
0.0
 40
341.0
 41
1.24
 42
50.0
 43
0.0
 44
0.0
 50
0.0
 51
0.0
 71
     0
 72
   100
 73
     1
 74
     3
 75
     0
 76
     0
 77
     0
 78
     0
  0
ENDTAB
  0
TABLE
  2
LTYPE
  5
5
330
0
100
AcDbSymbolTable
 70
     1
  0
LTYPE
  5
14
330
5
100
AcDbSymbolTableRecord
100
AcDbLinetypeTableRecord
  2
BYBLOCK
 70
     0
  3

 72
    65
 73
     0
 40
0.0
  0
LTYPE
  5
15
330
5
100
AcDbSymbolTableRecord
100
AcDbLinetypeTableRecord
  2
BYLAYER
 70
     0
  3

 72
    65
 73
     0
 40
0.0
  0
LTYPE
  5
16
330
5
100
AcDbSymbolTableRecord
100
AcDbLinetypeTableRecord
  2
CONTINUOUS
 70
     0
  3
Solid line
 72
    65
 73
     0
 40
0.0
  0
ENDTAB
  0
TABLE
  2
LAYER
  5
2
100
AcDbSymbolTable
 70
2
  0
LAYER
  5
50
100
AcDbSymbolTableRecord
100
AcDbLayerTableRecord
  2
0
 70
0
  6
CONTINUOUS
  0
LAYER
  5
51
100
AcDbSymbolTableRecord
100
AcDbLayerTableRecord
  2
Ebene_1
 70
0
  6
CONTINUOUS
  0
ENDTAB
  0
TABLE
  2
STYLE
  5
3
330
0
100
AcDbSymbolTable
 70
     1
  0
STYLE
  5
11
330
3
100
AcDbSymbolTableRecord
100
AcDbTextStyleTableRecord
  2
STANDARD
 70
     0
 40
0.0
 41
1.0
 50
0.0
 71
     0
 42
2.5
  3
txt
  4

  0
ENDTAB
  0
TABLE
  2
VIEW
  5
6
330
0
100
AcDbSymbolTable
 70
     0
  0
ENDTAB
  0
TABLE
  2
UCS
  5
7
330
0
100
AcDbSymbolTable
 70
     0
  0
ENDTAB
  0
TABLE
  2
APPID
  5
9
330
0
100
AcDbSymbolTable
 70
     2
  0
APPID
  5
12
330
9
100
AcDbSymbolTableRecord
100
AcDbRegAppTableRecord
  2
ACAD
 70
     0
  0
ENDTAB
  0
TABLE
  2
DIMSTYLE
  5
A
330
0
100
AcDbSymbolTable
 70
     1
  0
DIMSTYLE
105
27
330
A
100
AcDbSymbolTableRecord
100
AcDbDimStyleTableRecord
  2
ISO-25
 70
     0
  3

  4

  5

  6

  7

 40
1.0
 41
2.5
 42
0.625
 43
3.75
 44
1.25
 45
0.0
 46
0.0
 47
0.0
 48
0.0
140
2.5
141
2.5
142
0.0
143
0.03937007874016
144
1.0
145
0.0
146
1.0
147
0.625
 71
     0
 72
     0
 73
     0
 74
     0
 75
     0
 76
     0
 77
     1
 78
     8
170
     0
171
     3
172
     1
173
     0
174
     0
175
     0
176
     0
177
     0
178
     0
270
     2
271
     2
272
     2
273
     2
274
     3
340
11
275
     0
280
     0
281
     0
282
     0
283
     0
284
     8
285
     0
286
     0
287
     3
288
     0
  0
ENDTAB
  0
TABLE
  2
BLOCK_RECORD
  5
1
330
0
100
AcDbSymbolTable
 70
     1
  0
BLOCK_RECORD
  5
1F
330
1
100
AcDbSymbolTableRecord
100
AcDbBlockTableRecord
  2
*MODEL_SPACE
  0
BLOCK_RECORD
  5
1B
330
1
100
AcDbSymbolTableRecord
100
AcDbBlockTableRecord
  2
*PAPER_SPACE
  0
ENDTAB
  0
ENDSEC
  0
SECTION
  2
BLOCKS
  0
BLOCK
  5
20
330
1F
100
AcDbEntity
  8
0
100
AcDbBlockBegin
  2
*MODEL_SPACE
 70
     0
 10
0.0
 20
0.0
 30
0.0
  3
*MODEL_SPACE
  1

  0
ENDBLK
  5
21
330
1F
100
AcDbEntity
  8
0
100
AcDbBlockEnd
  0
BLOCK
  5
1C
330
1B
100
AcDbEntity
 67
     1
  8
0
100
AcDbBlockBegin
  2
*PAPER_SPACE
  1

  0
ENDBLK
  5
1D
330
1B
100
AcDbEntity
 67
     1
  8
0
100
AcDbBlockEnd
  0
ENDSEC
  0
SECTION
  2
ENTITIES
  0
SPLINE
  5
100
100
AcDbEntity
  8
Ebene_1
 62
5
100
AcDbSpline
 70
8
 71
3
 72
8
 73
4
 74
0
 40
0
 40
0
 40
0
 40
0
 40
1
 40
1
 40
1
 40
1
 10
57.092675
 20
332.609059
 30
0.0
 10
58.304893
 20
332.609025
 30
0.0
 10
59.287581
 20
331.626335
 30
0.0
 10
59.287613
 20
330.414118
 30
0.0
  0
SPLINE
  5
101
100
AcDbEntity
  8
Ebene_1
 62
5
100
AcDbSpline
 70
8
 71
3
 72
8
 73
4
 74
0
 40
0
 40
0
 40
0
 40
0
 40
1
 40
1
 40
1
 40
1
 10
59.287613
 20
330.414118
 30
0.0
 10
59.287579
 20
329.201901
 30
0.0
 10
58.304892
 20
328.219214
 30
0.0
 10
57.092675
 20
328.219180
 30
0.0
  0
SPLINE
  5
102
100
AcDbEntity
  8
Ebene_1
 62
5
100
AcDbSpline
 70
8
 71
3
 72
8
 73
4
 74
0
 40
0
 40
0
 40
0
 40
0
 40
1
 40
1
 40
1
 40
1
 10
57.092675
 20
328.219180
 30
0.0
 10
55.880457
 20
328.219212
 30
0.0
 10
54.897768
 20
329.201900
 30
0.0
 10
54.897734
 20
330.414118
 30
0.0
  0
SPLINE
  5
103
100
AcDbEntity
  8
Ebene_1
 62
5
100
AcDbSpline
 70
8
 71
3
 72
8
 73
4
 74
0
 40
0
 40
0
 40
0
 40
0
 40
1
 40
1
 40
1
 40
1
 10
54.897734
 20
330.414118
 30
0.0
 10
54.897766
 20
331.626337
 30
0.0
 10
55.880456
 20
332.609026
 30
0.0
 10
57.092675
 20
332.609059
 30
0.0
  0
LWPOLYLINE
  5
104
100
AcDbEntity
  8
Ebene_1
 62
5
100
AcDbPolyline
 90
14
 70
0
 10
46.335157
 20
336.207392
 30
0.0
 10
-23.116866
 20
215.912924
 30
0.0
 10
-92.571093
 20
95.614601
 30
0.0
 10
-72.195972
 20
60.323593
 30
0.0
 10
-51.823056
 20
25.036445
 30
0.0
 10
87.085399
 20
25.036445
 30
0.0
 10
225.994406
 20
25.036996
 30
0.0
 10
246.367323
 20
60.323593
 30
0.0
 10
266.742443
 20
95.614601
 30
0.0
 10
197.288215
 20
215.912924
 30
0.0
 10
127.836193
 20
336.207392
 30
0.0
 10
87.085952
 20
336.207392
 30
0.0
 10
46.335157
 20
336.207392
 30
0.0
 10
46.335157
 20
336.207392
 30
0.0
  0
SPLINE
  5
105
100
AcDbEntity
  8
Ebene_1
 62
5
100
AcDbSpline
 70
8
 71
3
 72
8
 73
4
 74
0
 40
0
 40
0
 40
0
 40
0
 40
1
 40
1
 40
1
 40
1
 10
117.081433
 20
332.608508
 30
0.0
 10
118.293651
 20
332.608474
 30
0.0
 10
119.276338
 20
331.625785
 30
0.0
 10
119.276371
 20
330.413567
 30
0.0
  0
SPLINE
  5
106
100
AcDbEntity
  8
Ebene_1
 62
5
100
AcDbSpline
 70
8
 71
3
 72
8
 73
4
 74
0
 40
0
 40
0
 40
0
 40
0
 40
1
 40
1
 40
1
 40
1
 10
119.276371
 20
330.413567
 30
0.0
 10
119.276337
 20
329.201351
 30
0.0
 10
118.293649
 20
328.218663
 30
0.0
 10
117.081433
 20
328.218629
 30
0.0
  0
SPLINE
  5
107
100
AcDbEntity
  8
Ebene_1
 62
5
100
AcDbSpline
 70
8
 71
3
 72
8
 73
4
 74
0
 40
0
 40
0
 40
0
 40
0
 40
1
 40
1
 40
1
 40
1
 10
117.081433
 20
328.218629
 30
0.0
 10
115.869215
 20
328.218662
 30
0.0
 10
114.886526
 20
329.201350
 30
0.0
 10
114.886492
 20
330.413567
 30
0.0
  0
SPLINE
  5
108
100
AcDbEntity
  8
Ebene_1
 62
5
100
AcDbSpline
 70
8
 71
3
 72
8
 73
4
 74
0
 40
0
 40
0
 40
0
 40
0
 40
1
 40
1
 40
1
 40
1
 10
114.886492
 20
330.413567
 30
0.0
 10
114.886524
 20
331.625786
 30
0.0
 10
115.869214
 20
332.608476
 30
0.0
 10
117.081433
 20
332.608508
 30
0.0
  0
LWPOLYLINE
  5
109
100
AcDbEntity
  8
Ebene_1
 62
5
100
AcDbPolyline
 90
2
 70
0
 10
57.092675
 20
332.609059
 30
0.0
 10
57.092675
 20
332.609059
 30
0.0
  0
SPLINE
  5
10a
100
AcDbEntity
  8
Ebene_1
 62
5
100
AcDbSpline
 70
8
 71
3
 72
8
 73
4
 74
0
 40
0
 40
0
 40
0
 40
0
 40
1
 40
1
 40
1
 40
1
 10
125.717323
 20
320.309792
 30
0.0
 10
126.998037
 20
320.252234
 30
0.0
 10
128.060936
 20
319.300443
 30
0.0
 10
128.258976
 20
318.033824
 30
0.0
  0
SPLINE
  5
10b
100
AcDbEntity
  8
Ebene_1
 62
5
100
AcDbSpline
 70
8
 71
3
 72
8
 73
4
 74
0
 40
0
 40
0
 40
0
 40
0
 40
1
 40
1
 40
1
 40
1
 10
128.258976
 20
318.033824
 30
0.0
 10
128.488645
 20
316.563479
 30
0.0
 10
127.483066
 20
315.185282
 30
0.0
 10
126.012773
 20
314.955287
 30
0.0
  0
SPLINE
  5
10c
100
AcDbEntity
  8
Ebene_1
 62
5
100
AcDbSpline
 70
8
 71
3
 72
8
 73
4
 74
0
 40
0
 40
0
 40
0
 40
0
 40
1
 40
1
 40
1
 40
1
 10
126.012773
 20
314.955287
 30
0.0
 10
125.306595
 20
314.844835
 30
0.0
 10
124.585464
 20
315.019438
 30
0.0
 10
124.008022
 20
315.440683
 30
0.0
  0
SPLINE
  5
10d
100
AcDbEntity
  8
Ebene_1
 62
5
100
AcDbSpline
 70
8
 71
3
 72
8
 73
4
 74
0
 40
0
 40
0
 40
0
 40
0
 40
1
 40
1
 40
1
 40
1
 10
124.008022
 20
315.440683
 30
0.0
 10
123.430580
 20
315.861928
 30
0.0
 10
123.044130
 20
316.495310
 30
0.0
 10
122.933686
 20
317.201489
 30
0.0
  0
SPLINE
  5
10e
100
AcDbEntity
  8
Ebene_1
 62
5
100
AcDbSpline
 70
8
 71
3
 72
8
 73
4
 74
0
 40
0
 40
0
 40
0
 40
0
 40
1
 40
1
 40
1
 40
1
 10
122.933686
 20
317.201489
 30
0.0
 10
122.823234
 20
317.907667
 30
0.0
 10
122.997836
 20
318.628798
 30
0.0
 10
123.419081
 20
319.206240
 30
0.0
  0
SPLINE
  5
10f
100
AcDbEntity
  8
Ebene_1
 62
5
100
AcDbSpline
 70
8
 71
3
 72
8
 73
4
 74
0
 40
0
 40
0
 40
0
 40
0
 40
1
 40
1
 40
1
 40
1
 10
123.419081
 20
319.206240
 30
0.0
 10
123.840326
 20
319.783682
 30
0.0
 10
124.473708
 20
320.170133
 30
0.0
 10
125.179887
 20
320.280577
 30
0.0
  0
SPLINE
  5
110
100
AcDbEntity
  8
Ebene_1
 62
5
100
AcDbSpline
 70
8
 71
3
 72
8
 73
4
 74
0
 40
0
 40
0
 40
0
 40
0
 40
1
 40
1
 40
1
 40
1
 10
125.179887
 20
320.280577
 30
0.0
 10
125.357608
 20
320.308225
 30
0.0
 10
125.537651
 20
320.318012
 30
0.0
 10
125.717323
 20
320.309792
 30
0.0
  0
LWPOLYLINE
  5
111
100
AcDbEntity
  8
Ebene_1
 62
5
100
AcDbPolyline
 90
2
 70
0
 10
117.081433
 20
332.608508
 30
0.0
 10
117.081433
 20
332.608508
 30
0.0
  0
SPLINE
  5
112
100
AcDbEntity
  8
Ebene_1
 62
5
100
AcDbSpline
 70
8
 71
3
 72
8
 73
4
 74
0
 40
0
 40
0
 40
0
 40
0
 40
1
 40
1
 40
1
 40
1
 10
117.081983
 20
292.120643
 30
0.0
 10
118.018096
 20
292.120635
 30
0.0
 10
118.776963
 20
291.361768
 30
0.0
 10
118.776970
 20
290.425655
 30
0.0
  0
SPLINE
  5
113
100
AcDbEntity
  8
Ebene_1
 62
5
100
AcDbSpline
 70
8
 71
3
 72
8
 73
4
 74
0
 40
0
 40
0
 40
0
 40
0
 40
1
 40
1
 40
1
 40
1
 10
118.776970
 20
290.425655
 30
0.0
 10
118.776963
 20
289.489543
 30
0.0
 10
118.018095
 20
288.730676
 30
0.0
 10
117.081983
 20
288.730668
 30
0.0
  0
SPLINE
  5
114
100
AcDbEntity
  8
Ebene_1
 62
5
100
AcDbSpline
 70
8
 71
3
 72
8
 73
4
 74
0
 40
0
 40
0
 40
0
 40
0
 40
1
 40
1
 40
1
 40
1
 10
117.081983
 20
288.730668
 30
0.0
 10
116.145871
 20
288.730676
 30
0.0
 10
115.387003
 20
289.489543
 30
0.0
 10
115.386996
 20
290.425655
 30
0.0
  0
SPLINE
  5
115
100
AcDbEntity
  8
Ebene_1
 62
5
100
AcDbSpline
 70
8
 71
3
 72
8
 73
4
 74
0
 40
0
 40
0
 40
0
 40
0
 40
1
 40
1
 40
1
 40
1
 10
115.386996
 20
290.425655
 30
0.0
 10
115.387003
 20
291.361768
 30
0.0
 10
116.145870
 20
292.120635
 30
0.0
 10
117.081983
 20
292.120643
 30
0.0
  0
LWPOLYLINE
  5
116
100
AcDbEntity
  8
Ebene_1
 62
5
100
AcDbPolyline
 90
2
 70
0
 10
125.717323
 20
320.309792
 30
0.0
 10
125.717323
 20
320.309792
 30
0.0
  0
SPLINE
  5
117
100
AcDbEntity
  8
Ebene_1
 62
5
100
AcDbSpline
 70
8
 71
3
 72
8
 73
4
 74
0
 40
0
 40
0
 40
0
 40
0
 40
1
 40
1
 40
1
 40
1
 10
57.092675
 20
292.119540
 30
0.0
 10
58.028786
 20
292.119531
 30
0.0
 10
58.787652
 20
291.360664
 30
0.0
 10
58.787659
 20
290.424553
 30
0.0
  0
SPLINE
  5
118
100
AcDbEntity
  8
Ebene_1
 62
5
100
AcDbSpline
 70
8
 71
3
 72
8
 73
4
 74
0
 40
0
 40
0
 40
0
 40
0
 40
1
 40
1
 40
1
 40
1
 10
58.787659
 20
290.424553
 30
0.0
 10
58.787652
 20
289.488442
 30
0.0
 10
58.028787
 20
288.729575
 30
0.0
 10
57.092675
 20
288.729566
 30
0.0
  0
SPLINE
  5
119
100
AcDbEntity
  8
Ebene_1
 62
5
100
AcDbSpline
 70
8
 71
3
 72
8
 73
4
 74
0
 40
0
 40
0
 40
0
 40
0
 40
1
 40
1
 40
1
 40
1
 10
57.092675
 20
288.729566
 30
0.0
 10
56.156562
 20
288.729573
 30
0.0
 10
55.397695
 20
289.488440
 30
0.0
 10
55.397688
 20
290.424553
 30
0.0
  0
SPLINE
  5
11a
100
AcDbEntity
  8
Ebene_1
 62
5
100
AcDbSpline
 70
8
 71
3
 72
8
 73
4
 74
0
 40
0
 40
0
 40
0
 40
0
 40
1
 40
1
 40
1
 40
1
 10
55.397688
 20
290.424553
 30
0.0
 10
55.397695
 20
291.360665
 30
0.0
 10
56.156563
 20
292.119533
 30
0.0
 10
57.092675
 20
292.119540
 30
0.0
  0
LWPOLYLINE
  5
11b
100
AcDbEntity
  8
Ebene_1
 62
5
100
AcDbPolyline
 90
2
 70
0
 10
117.081983
 20
292.120643
 30
0.0
 10
117.081983
 20
292.120643
 30
0.0
  0
SPLINE
  5
11c
100
AcDbEntity
  8
Ebene_1
 62
5
100
AcDbSpline
 70
8
 71
3
 72
8
 73
4
 74
0
 40
0
 40
0
 40
0
 40
0
 40
1
 40
1
 40
1
 40
1
 10
133.436541
 20
270.919800
 30
0.0
 10
134.717256
 20
270.862243
 30
0.0
 10
135.780154
 20
269.910451
 30
0.0
 10
135.978194
 20
268.643832
 30
0.0
  0
SPLINE
  5
11d
100
AcDbEntity
  8
Ebene_1
 62
5
100
AcDbSpline
 70
8
 71
3
 72
8
 73
4
 74
0
 40
0
 40
0
 40
0
 40
0
 40
1
 40
1
 40
1
 40
1
 10
135.978194
 20
268.643832
 30
0.0
 10
136.088646
 20
267.937654
 30
0.0
 10
135.914044
 20
267.216523
 30
0.0
 10
135.492799
 20
266.639080
 30
0.0
  0
SPLINE
  5
11e
100
AcDbEntity
  8
Ebene_1
 62
5
100
AcDbSpline
 70
8
 71
3
 72
8
 73
4
 74
0
 40
0
 40
0
 40
0
 40
0
 40
1
 40
1
 40
1
 40
1
 10
135.492799
 20
266.639080
 30
0.0
 10
135.071554
 20
266.061638
 30
0.0
 10
134.438173
 20
265.675187
 30
0.0
 10
133.731993
 20
265.564743
 30
0.0
  0
SPLINE
  5
11f
100
AcDbEntity
  8
Ebene_1
 62
5
100
AcDbSpline
 70
8
 71
3
 72
8
 73
4
 74
0
 40
0
 40
0
 40
0
 40
0
 40
1
 40
1
 40
1
 40
1
 10
133.731993
 20
265.564743
 30
0.0
 10
133.025733
 20
265.454301
 30
0.0
 10
132.304528
 20
265.628977
 30
0.0
 10
131.727071
 20
266.050337
 30
0.0
  0
SPLINE
  5
120
100
AcDbEntity
  8
Ebene_1
 62
5
100
AcDbSpline
 70
8
 71
3
 72
8
 73
4
 74
0
 40
0
 40
0
 40
0
 40
0
 40
1
 40
1
 40
1
 40
1
 10
131.727071
 20
266.050337
 30
0.0
 10
131.149613
 20
266.471697
 30
0.0
 10
130.763217
 20
267.105216
 30
0.0
 10
130.652904
 20
267.811497
 30
0.0
  0
SPLINE
  5
121
100
AcDbEntity
  8
Ebene_1
 62
5
100
AcDbSpline
 70
8
 71
3
 72
8
 73
4
 74
0
 40
0
 40
0
 40
0
 40
0
 40
1
 40
1
 40
1
 40
1
 10
130.652904
 20
267.811497
 30
0.0
 10
130.423235
 20
269.281841
 30
0.0
 10
131.428812
 20
270.660038
 30
0.0
 10
132.899105
 20
270.890035
 30
0.0
  0
SPLINE
  5
122
100
AcDbEntity
  8
Ebene_1
 62
5
100
AcDbSpline
 70
8
 71
3
 72
8
 73
4
 74
0
 40
0
 40
0
 40
0
 40
0
 40
1
 40
1
 40
1
 40
1
 10
132.899105
 20
270.890035
 30
0.0
 10
133.076808
 20
270.917866
 30
0.0
 10
133.256851
 20
270.927838
 30
0.0
 10
133.436541
 20
270.919800
 30
0.0
  0
LWPOLYLINE
  5
123
100
AcDbEntity
  8
Ebene_1
 62
5
100
AcDbPolyline
 90
2
 70
0
 10
57.092675
 20
292.119540
 30
0.0
 10
57.092675
 20
292.119540
 30
0.0
  0
SPLINE
  5
124
100
AcDbEntity
  8
Ebene_1
 62
5
100
AcDbSpline
 70
8
 71
3
 72
8
 73
4
 74
0
 40
0
 40
0
 40
0
 40
0
 40
1
 40
1
 40
1
 40
1
 10
181.313997
 20
226.225062
 30
0.0
 10
182.116597
 20
226.244084
 30
0.0
 10
182.865552
 20
225.823417
 30
0.0
 10
183.266952
 20
225.128143
 30
0.0
  0
SPLINE
  5
125
100
AcDbEntity
  8
Ebene_1
 62
5
100
AcDbSpline
 70
8
 71
3
 72
8
 73
4
 74
0
 40
0
 40
0
 40
0
 40
0
 40
1
 40
1
 40
1
 40
1
 10
183.266952
 20
225.128143
 30
0.0
 10
183.872795
 20
224.078308
 30
0.0
 10
183.513004
 20
222.736121
 30
0.0
 10
182.463282
 20
222.130082
 30
0.0
  0
SPLINE
  5
126
100
AcDbEntity
  8
Ebene_1
 62
5
100
AcDbSpline
 70
8
 71
3
 72
8
 73
4
 74
0
 40
0
 40
0
 40
0
 40
0
 40
1
 40
1
 40
1
 40
1
 10
182.463282
 20
222.130082
 30
0.0
 10
181.413591
 20
221.524147
 30
0.0
 10
180.071448
 20
221.883680
 30
0.0
 10
179.465221
 20
222.933202
 30
0.0
  0
SPLINE
  5
127
100
AcDbEntity
  8
Ebene_1
 62
5
100
AcDbSpline
 70
8
 71
3
 72
8
 73
4
 74
0
 40
0
 40
0
 40
0
 40
0
 40
1
 40
1
 40
1
 40
1
 10
179.465221
 20
222.933202
 30
0.0
 10
179.174062
 20
223.437339
 30
0.0
 10
179.095105
 20
224.036493
 30
0.0
 10
179.245720
 20
224.598847
 30
0.0
  0
SPLINE
  5
128
100
AcDbEntity
  8
Ebene_1
 62
5
100
AcDbSpline
 70
8
 71
3
 72
8
 73
4
 74
0
 40
0
 40
0
 40
0
 40
0
 40
1
 40
1
 40
1
 40
1
 10
179.245720
 20
224.598847
 30
0.0
 10
179.396336
 20
225.161201
 30
0.0
 10
179.764186
 20
225.640686
 30
0.0
 10
180.268341
 20
225.931813
 30
0.0
  0
SPLINE
  5
129
100
AcDbEntity
  8
Ebene_1
 62
5
100
AcDbSpline
 70
8
 71
3
 72
8
 73
4
 74
0
 40
0
 40
0
 40
0
 40
0
 40
1
 40
1
 40
1
 40
1
 10
180.268341
 20
225.931813
 30
0.0
 10
180.586828
 20
226.115606
 30
0.0
 10
180.946384
 20
226.216441
 30
0.0
 10
181.313997
 20
226.225062
 30
0.0
  0
LWPOLYLINE
  5
12a
100
AcDbEntity
  8
Ebene_1
 62
5
100
AcDbPolyline
 90
2
 70
0
 10
133.436541
 20
270.919800
 30
0.0
 10
133.436541
 20
270.919800
 30
0.0
  0
SPLINE
  5
12b
100
AcDbEntity
  8
Ebene_1
 62
5
100
AcDbSpline
 70
8
 71
3
 72
8
 73
4
 74
0
 40
0
 40
0
 40
0
 40
0
 40
1
 40
1
 40
1
 40
1
 10
-7.075399
 20
226.188130
 30
0.0
 10
-6.707787
 20
226.179510
 30
0.0
 10
-6.348230
 20
226.078674
 30
0.0
 10
-6.029744
 20
225.894882
 30
0.0
  0
SPLINE
  5
12c
100
AcDbEntity
  8
Ebene_1
 62
5
100
AcDbSpline
 70
8
 71
3
 72
8
 73
4
 74
0
 40
0
 40
0
 40
0
 40
0
 40
1
 40
1
 40
1
 40
1
 10
-6.029744
 20
225.894882
 30
0.0
 10
-4.980023
 20
225.288844
 30
0.0
 10
-4.620231
 20
223.946658
 30
0.0
 10
-5.226072
 20
222.896824
 30
0.0
  0
SPLINE
  5
12d
100
AcDbEntity
  8
Ebene_1
 62
5
100
AcDbSpline
 70
8
 71
3
 72
8
 73
4
 74
0
 40
0
 40
0
 40
0
 40
0
 40
1
 40
1
 40
1
 40
1
 10
-5.226072
 20
222.896824
 30
0.0
 10
-5.517106
 20
222.392575
 30
0.0
 10
-5.996551
 20
222.024607
 30
0.0
 10
-6.558913
 20
221.873886
 30
0.0
  0
SPLINE
  5
12e
100
AcDbEntity
  8
Ebene_1
 62
5
100
AcDbSpline
 70
8
 71
3
 72
8
 73
4
 74
0
 40
0
 40
0
 40
0
 40
0
 40
1
 40
1
 40
1
 40
1
 10
-6.558913
 20
221.873886
 30
0.0
 10
-7.121275
 20
221.723164
 30
0.0
 10
-7.720480
 20
221.802037
 30
0.0
 10
-8.224683
 20
222.093151
 30
0.0
  0
SPLINE
  5
12f
100
AcDbEntity
  8
Ebene_1
 62
5
100
AcDbSpline
 70
8
 71
3
 72
8
 73
4
 74
0
 40
0
 40
0
 40
0
 40
0
 40
1
 40
1
 40
1
 40
1
 10
-8.224683
 20
222.093151
 30
0.0
 10
-8.728932
 20
222.384185
 30
0.0
 10
-9.096899
 20
222.863630
 30
0.0
 10
-9.247620
 20
223.425992
 30
0.0
  0
SPLINE
  5
130
100
AcDbEntity
  8
Ebene_1
 62
5
100
AcDbSpline
 70
8
 71
3
 72
8
 73
4
 74
0
 40
0
 40
0
 40
0
 40
0
 40
1
 40
1
 40
1
 40
1
 10
-9.247620
 20
223.425992
 30
0.0
 10
-9.398342
 20
223.988354
 30
0.0
 10
-9.319468
 20
224.587558
 30
0.0
 10
-9.028355
 20
225.091762
 30
0.0
  0
SPLINE
  5
131
100
AcDbEntity
  8
Ebene_1
 62
5
100
AcDbSpline
 70
8
 71
3
 72
8
 73
4
 74
0
 40
0
 40
0
 40
0
 40
0
 40
1
 40
1
 40
1
 40
1
 10
-9.028355
 20
225.091762
 30
0.0
 10
-8.654593
 20
225.738855
 30
0.0
 10
-7.977295
 20
226.151340
 30
0.0
 10
-7.230842
 20
226.186476
 30
0.0
  0
SPLINE
  5
132
100
AcDbEntity
  8
Ebene_1
 62
5
100
AcDbSpline
 70
8
 71
3
 72
8
 73
4
 74
0
 40
0
 40
0
 40
0
 40
0
 40
1
 40
1
 40
1
 40
1
 10
-7.230842
 20
226.186476
 30
0.0
 10
-7.179064
 20
226.188863
 30
0.0
 10
-7.127217
 20
226.189414
 30
0.0
 10
-7.075399
 20
226.188130
 30
0.0
  0
LWPOLYLINE
  5
133
100
AcDbEntity
  8
Ebene_1
 62
5
100
AcDbPolyline
 90
2
 70
0
 10
181.313997
 20
226.225062
 30
0.0
 10
181.313997
 20
226.225062
 30
0.0
  0
SPLINE
  5
134
100
AcDbEntity
  8
Ebene_1
 62
5
100
AcDbSpline
 70
8
 71
3
 72
8
 73
4
 74
0
 40
0
 40
0
 40
0
 40
0
 40
1
 40
1
 40
1
 40
1
 10
196.309257
 20
200.252348
 30
0.0
 10
197.111857
 20
200.271372
 30
0.0
 10
197.860814
 20
199.850705
 30
0.0
 10
198.262215
 20
199.155430
 30
0.0
  0
SPLINE
  5
135
100
AcDbEntity
  8
Ebene_1
 62
5
100
AcDbSpline
 70
8
 71
3
 72
8
 73
4
 74
0
 40
0
 40
0
 40
0
 40
0
 40
1
 40
1
 40
1
 40
1
 10
198.262215
 20
199.155430
 30
0.0
 10
198.868057
 20
198.105594
 30
0.0
 10
198.508265
 20
196.763406
 30
0.0
 10
197.458542
 20
196.157369
 30
0.0
  0
SPLINE
  5
136
100
AcDbEntity
  8
Ebene_1
 62
5
100
AcDbSpline
 70
8
 71
3
 72
8
 73
4
 74
0
 40
0
 40
0
 40
0
 40
0
 40
1
 40
1
 40
1
 40
1
 10
197.458542
 20
196.157369
 30
0.0
 10
196.408850
 20
195.551434
 30
0.0
 10
195.066707
 20
195.910968
 30
0.0
 10
194.460481
 20
196.960491
 30
0.0
  0
SPLINE
  5
137
100
AcDbEntity
  8
Ebene_1
 62
5
100
AcDbSpline
 70
8
 71
3
 72
8
 73
4
 74
0
 40
0
 40
0
 40
0
 40
0
 40
1
 40
1
 40
1
 40
1
 10
194.460481
 20
196.960491
 30
0.0
 10
194.169322
 20
197.464628
 30
0.0
 10
194.090365
 20
198.063782
 30
0.0
 10
194.240981
 20
198.626137
 30
0.0
  0
SPLINE
  5
138
100
AcDbEntity
  8
Ebene_1
 62
5
100
AcDbSpline
 70
8
 71
3
 72
8
 73
4
 74
0
 40
0
 40
0
 40
0
 40
0
 40
1
 40
1
 40
1
 40
1
 10
194.240981
 20
198.626137
 30
0.0
 10
194.391597
 20
199.188491
 30
0.0
 10
194.759448
 20
199.667976
 30
0.0
 10
195.263603
 20
199.959102
 30
0.0
  0
SPLINE
  5
139
100
AcDbEntity
  8
Ebene_1
 62
5
100
AcDbSpline
 70
8
 71
3
 72
8
 73
4
 74
0
 40
0
 40
0
 40
0
 40
0
 40
1
 40
1
 40
1
 40
1
 10
195.263603
 20
199.959102
 30
0.0
 10
195.582090
 20
200.142893
 30
0.0
 10
195.941645
 20
200.243728
 30
0.0
 10
196.309257
 20
200.252348
 30
0.0
  0
LWPOLYLINE
  5
13a
100
AcDbEntity
  8
Ebene_1
 62
5
100
AcDbPolyline
 90
2
 70
0
 10
-7.075399
 20
226.188130
 30
0.0
 10
-7.075399
 20
226.188130
 30
0.0
  0
SPLINE
  5
13b
100
AcDbEntity
  8
Ebene_1
 62
5
100
AcDbSpline
 70
8
 71
3
 72
8
 73
4
 74
0
 40
0
 40
0
 40
0
 40
0
 40
1
 40
1
 40
1
 40
1
 10
-22.070660
 20
200.215967
 30
0.0
 10
-21.703047
 20
200.207347
 30
0.0
 10
-21.343491
 20
200.106512
 30
0.0
 10
-21.025004
 20
199.922721
 30
0.0
  0
SPLINE
  5
13c
100
AcDbEntity
  8
Ebene_1
 62
5
100
AcDbSpline
 70
8
 71
3
 72
8
 73
4
 74
0
 40
0
 40
0
 40
0
 40
0
 40
1
 40
1
 40
1
 40
1
 10
-21.025004
 20
199.922721
 30
0.0
 10
-20.520755
 20
199.631687
 30
0.0
 10
-20.152788
 20
199.152242
 30
0.0
 10
-20.002067
 20
198.589880
 30
0.0
  0
SPLINE
  5
13d
100
AcDbEntity
  8
Ebene_1
 62
5
100
AcDbSpline
 70
8
 71
3
 72
8
 73
4
 74
0
 40
0
 40
0
 40
0
 40
0
 40
1
 40
1
 40
1
 40
1
 10
-20.002067
 20
198.589880
 30
0.0
 10
-19.851346
 20
198.027518
 30
0.0
 10
-19.930219
 20
197.428313
 30
0.0
 10
-20.221333
 20
196.924110
 30
0.0
  0
SPLINE
  5
13e
100
AcDbEntity
  8
Ebene_1
 62
5
100
AcDbSpline
 70
8
 71
3
 72
8
 73
4
 74
0
 40
0
 40
0
 40
0
 40
0
 40
1
 40
1
 40
1
 40
1
 10
-20.221333
 20
196.924110
 30
0.0
 10
-20.512459
 20
196.419955
 30
0.0
 10
-20.991945
 20
196.052105
 30
0.0
 10
-21.554299
 20
195.901489
 30
0.0
  0
SPLINE
  5
13f
100
AcDbEntity
  8
Ebene_1
 62
5
100
AcDbSpline
 70
8
 71
3
 72
8
 73
4
 74
0
 40
0
 40
0
 40
0
 40
0
 40
1
 40
1
 40
1
 40
1
 10
-21.554299
 20
195.901489
 30
0.0
 10
-22.116653
 20
195.750874
 30
0.0
 10
-22.715807
 20
195.829831
 30
0.0
 10
-23.219944
 20
196.120990
 30
0.0
  0
SPLINE
  5
140
100
AcDbEntity
  8
Ebene_1
 62
5
100
AcDbSpline
 70
8
 71
3
 72
8
 73
4
 74
0
 40
0
 40
0
 40
0
 40
0
 40
1
 40
1
 40
1
 40
1
 10
-23.219944
 20
196.120990
 30
0.0
 10
-23.724099
 20
196.412117
 30
0.0
 10
-24.091949
 20
196.891602
 30
0.0
 10
-24.242565
 20
197.453957
 30
0.0
  0
SPLINE
  5
141
100
AcDbEntity
  8
Ebene_1
 62
5
100
AcDbSpline
 70
8
 71
3
 72
8
 73
4
 74
0
 40
0
 40
0
 40
0
 40
0
 40
1
 40
1
 40
1
 40
1
 10
-24.242565
 20
197.453957
 30
0.0
 10
-24.393181
 20
198.016311
 30
0.0
 10
-24.314224
 20
198.615465
 30
0.0
 10
-24.023064
 20
199.119601
 30
0.0
  0
SPLINE
  5
142
100
AcDbEntity
  8
Ebene_1
 62
5
100
AcDbSpline
 70
8
 71
3
 72
8
 73
4
 74
0
 40
0
 40
0
 40
0
 40
0
 40
1
 40
1
 40
1
 40
1
 10
-24.023064
 20
199.119601
 30
0.0
 10
-23.649406
 20
199.766534
 30
0.0
 10
-22.972356
 20
200.178994
 30
0.0
 10
-22.226102
 20
200.214313
 30
0.0
  0
SPLINE
  5
143
100
AcDbEntity
  8
Ebene_1
 62
5
100
AcDbSpline
 70
8
 71
3
 72
8
 73
4
 74
0
 40
0
 40
0
 40
0
 40
0
 40
1
 40
1
 40
1
 40
1
 10
-22.226102
 20
200.214313
 30
0.0
 10
-22.174324
 20
200.216700
 30
0.0
 10
-22.122477
 20
200.217251
 30
0.0
 10
-22.070660
 20
200.215967
 30
0.0
  0
LWPOLYLINE
  5
144
100
AcDbEntity
  8
Ebene_1
 62
5
100
AcDbPolyline
 90
2
 70
0
 10
196.309257
 20
200.252348
 30
0.0
 10
196.309257
 20
200.252348
 30
0.0
  0
SPLINE
  5
145
100
AcDbEntity
  8
Ebene_1
 62
5
100
AcDbSpline
 70
8
 71
3
 72
8
 73
4
 74
0
 40
0
 40
0
 40
0
 40
0
 40
1
 40
1
 40
1
 40
1
 10
87.087052
 20
152.780036
 30
0.0
 10
87.360427
 20
152.780032
 30
0.0
 10
87.582041
 20
152.558419
 30
0.0
 10
87.582045
 20
152.285044
 30
0.0
  0
SPLINE
  5
146
100
AcDbEntity
  8
Ebene_1
 62
5
100
AcDbSpline
 70
8
 71
3
 72
8
 73
4
 74
0
 40
0
 40
0
 40
0
 40
0
 40
1
 40
1
 40
1
 40
1
 10
87.582045
 20
152.285044
 30
0.0
 10
87.582041
 20
152.011669
 30
0.0
 10
87.360427
 20
151.790056
 30
0.0
 10
87.087052
 20
151.790051
 30
0.0
  0
SPLINE
  5
147
100
AcDbEntity
  8
Ebene_1
 62
5
100
AcDbSpline
 70
8
 71
3
 72
8
 73
4
 74
0
 40
0
 40
0
 40
0
 40
0
 40
1
 40
1
 40
1
 40
1
 10
87.087052
 20
151.790051
 30
0.0
 10
86.813679
 20
151.790057
 30
0.0
 10
86.592067
 20
152.011670
 30
0.0
 10
86.592063
 20
152.285044
 30
0.0
  0
SPLINE
  5
148
100
AcDbEntity
  8
Ebene_1
 62
5
100
AcDbSpline
 70
8
 71
3
 72
8
 73
4
 74
0
 40
0
 40
0
 40
0
 40
0
 40
1
 40
1
 40
1
 40
1
 10
86.592063
 20
152.285044
 30
0.0
 10
86.592067
 20
152.558418
 30
0.0
 10
86.813679
 20
152.780030
 30
0.0
 10
87.087052
 20
152.780036
 30
0.0
  0
LWPOLYLINE
  5
149
100
AcDbEntity
  8
Ebene_1
 62
5
100
AcDbPolyline
 90
2
 70
0
 10
-22.070660
 20
200.215967
 30
0.0
 10
-22.070660
 20
200.215967
 30
0.0
  0
SPLINE
  5
14a
100
AcDbEntity
  8
Ebene_1
 62
5
100
AcDbSpline
 70
8
 71
3
 72
8
 73
4
 74
0
 40
0
 40
0
 40
0
 40
0
 40
1
 40
1
 40
1
 40
1
 10
221.756111
 20
110.887122
 30
0.0
 10
222.040016
 20
110.880446
 30
0.0
 10
222.317693
 20
110.802545
 30
0.0
 10
222.563642
 20
110.660574
 30
0.0
  0
SPLINE
  5
14b
100
AcDbEntity
  8
Ebene_1
 62
5
100
AcDbSpline
 70
8
 71
3
 72
8
 73
4
 74
0
 40
0
 40
0
 40
0
 40
0
 40
1
 40
1
 40
1
 40
1
 10
222.563642
 20
110.660574
 30
0.0
 10
222.952972
 20
110.435752
 30
0.0
 10
223.237036
 20
110.065466
 30
0.0
 10
223.353332
 20
109.631188
 30
0.0
  0
SPLINE
  5
14c
100
AcDbEntity
  8
Ebene_1
 62
5
100
AcDbSpline
 70
8
 71
3
 72
8
 73
4
 74
0
 40
0
 40
0
 40
0
 40
0
 40
1
 40
1
 40
1
 40
1
 10
223.353332
 20
109.631188
 30
0.0
 10
223.469629
 20
109.196909
 30
0.0
 10
223.408630
 20
108.734218
 30
0.0
 10
223.183758
 20
108.344918
 30
0.0
  0
SPLINE
  5
14d
100
AcDbEntity
  8
Ebene_1
 62
5
100
AcDbSpline
 70
8
 71
3
 72
8
 73
4
 74
0
 40
0
 40
0
 40
0
 40
0
 40
1
 40
1
 40
1
 40
1
 10
223.183758
 20
108.344918
 30
0.0
 10
222.715604
 20
107.534505
 30
0.0
 10
221.679215
 20
107.256900
 30
0.0
 10
220.868655
 20
107.724799
 30
0.0
  0
SPLINE
  5
14e
100
AcDbEntity
  8
Ebene_1
 62
5
100
AcDbSpline
 70
8
 71
3
 72
8
 73
4
 74
0
 40
0
 40
0
 40
0
 40
0
 40
1
 40
1
 40
1
 40
1
 10
220.868655
 20
107.724799
 30
0.0
 10
220.058041
 20
108.192764
 30
0.0
 10
219.780177
 20
109.229200
 30
0.0
 10
220.247986
 20
110.039905
 30
0.0
  0
SPLINE
  5
14f
100
AcDbEntity
  8
Ebene_1
 62
5
100
AcDbSpline
 70
8
 71
3
 72
8
 73
4
 74
0
 40
0
 40
0
 40
0
 40
0
 40
1
 40
1
 40
1
 40
1
 10
220.247986
 20
110.039905
 30
0.0
 10
220.536538
 20
110.539651
 30
0.0
 10
221.059520
 20
110.858258
 30
0.0
 10
221.635947
 20
110.885468
 30
0.0
  0
SPLINE
  5
150
100
AcDbEntity
  8
Ebene_1
 62
5
100
AcDbSpline
 70
8
 71
3
 72
8
 73
4
 74
0
 40
0
 40
0
 40
0
 40
0
 40
1
 40
1
 40
1
 40
1
 10
221.635947
 20
110.885468
 30
0.0
 10
221.675969
 20
110.887440
 30
0.0
 10
221.716049
 20
110.887991
 30
0.0
 10
221.756111
 20
110.887122
 30
0.0
  0
LWPOLYLINE
  5
151
100
AcDbEntity
  8
Ebene_1
 62
5
100
AcDbPolyline
 90
2
 70
0
 10
87.087052
 20
152.780036
 30
0.0
 10
87.087052
 20
152.780036
 30
0.0
  0
SPLINE
  5
152
100
AcDbEntity
  8
Ebene_1
 62
5
100
AcDbSpline
 70
8
 71
3
 72
8
 73
4
 74
0
 40
0
 40
0
 40
0
 40
0
 40
1
 40
1
 40
1
 40
1
 10
-47.585314
 20
110.884918
 30
0.0
 10
-46.965491
 20
110.899587
 30
0.0
 10
-46.387114
 20
110.574674
 30
0.0
 10
-46.077186
 20
110.037701
 30
0.0
  0
SPLINE
  5
153
100
AcDbEntity
  8
Ebene_1
 62
5
100
AcDbSpline
 70
8
 71
3
 72
8
 73
4
 74
0
 40
0
 40
0
 40
0
 40
0
 40
1
 40
1
 40
1
 40
1
 10
-46.077186
 20
110.037701
 30
0.0
 10
-45.609377
 20
109.226996
 30
0.0
 10
-45.887241
 20
108.190560
 30
0.0
 10
-46.697855
 20
107.722595
 30
0.0
  0
SPLINE
  5
154
100
AcDbEntity
  8
Ebene_1
 62
5
100
AcDbSpline
 70
8
 71
3
 72
8
 73
4
 74
0
 40
0
 40
0
 40
0
 40
0
 40
1
 40
1
 40
1
 40
1
 10
-46.697855
 20
107.722595
 30
0.0
 10
-47.508415
 20
107.254694
 30
0.0
 10
-48.544807
 20
107.532299
 30
0.0
 10
-49.012960
 20
108.342714
 30
0.0
  0
SPLINE
  5
155
100
AcDbEntity
  8
Ebene_1
 62
5
100
AcDbSpline
 70
8
 71
3
 72
8
 73
4
 74
0
 40
0
 40
0
 40
0
 40
0
 40
1
 40
1
 40
1
 40
1
 10
-49.012960
 20
108.342714
 30
0.0
 10
-49.237833
 20
108.732014
 30
0.0
 10
-49.298831
 20
109.194706
 30
0.0
 10
-49.182534
 20
109.628984
 30
0.0
  0
SPLINE
  5
156
100
AcDbEntity
  8
Ebene_1
 62
5
100
AcDbSpline
 70
8
 71
3
 72
8
 73
4
 74
0
 40
0
 40
0
 40
0
 40
0
 40
1
 40
1
 40
1
 40
1
 10
-49.182534
 20
109.628984
 30
0.0
 10
-49.066237
 20
110.063263
 30
0.0
 10
-48.782173
 20
110.433548
 30
0.0
 10
-48.392842
 20
110.658369
 30
0.0
  0
SPLINE
  5
157
100
AcDbEntity
  8
Ebene_1
 62
5
100
AcDbSpline
 70
8
 71
3
 72
8
 73
4
 74
0
 40
0
 40
0
 40
0
 40
0
 40
1
 40
1
 40
1
 40
1
 10
-48.392842
 20
110.658369
 30
0.0
 10
-48.146894
 20
110.800340
 30
0.0
 10
-47.869218
 20
110.878241
 30
0.0
 10
-47.585314
 20
110.884918
 30
0.0
  0
LWPOLYLINE
  5
158
100
AcDbEntity
  8
Ebene_1
 62
5
100
AcDbPolyline
 90
2
 70
0
 10
221.756111
 20
110.887122
 30
0.0
 10
221.756111
 20
110.887122
 30
0.0
  0
SPLINE
  5
159
100
AcDbEntity
  8
Ebene_1
 62
5
100
AcDbSpline
 70
8
 71
3
 72
8
 73
4
 74
0
 40
0
 40
0
 40
0
 40
0
 40
1
 40
1
 40
1
 40
1
 10
256.399439
 20
91.392292
 30
0.0
 10
256.767052
 20
91.383672
 30
0.0
 10
257.126608
 20
91.282837
 30
0.0
 10
257.445095
 20
91.099046
 30
0.0
  0
SPLINE
  5
15a
100
AcDbEntity
  8
Ebene_1
 62
5
100
AcDbSpline
 70
8
 71
3
 72
8
 73
4
 74
0
 40
0
 40
0
 40
0
 40
0
 40
1
 40
1
 40
1
 40
1
 10
257.445095
 20
91.099046
 30
0.0
 10
257.949344
 20
90.808011
 30
0.0
 10
258.317312
 20
90.328567
 30
0.0
 10
258.468033
 20
89.766205
 30
0.0
  0
SPLINE
  5
15b
100
AcDbEntity
  8
Ebene_1
 62
5
100
AcDbSpline
 70
8
 71
3
 72
8
 73
4
 74
0
 40
0
 40
0
 40
0
 40
0
 40
1
 40
1
 40
1
 40
1
 10
258.468033
 20
89.766205
 30
0.0
 10
258.618755
 20
89.203843
 30
0.0
 10
258.539881
 20
88.604638
 30
0.0
 10
258.248768
 20
88.100435
 30
0.0
  0
SPLINE
  5
15c
100
AcDbEntity
  8
Ebene_1
 62
5
100
AcDbSpline
 70
8
 71
3
 72
8
 73
4
 74
0
 40
0
 40
0
 40
0
 40
0
 40
1
 40
1
 40
1
 40
1
 10
258.248768
 20
88.100435
 30
0.0
 10
257.957734
 20
87.596186
 30
0.0
 10
257.478289
 20
87.228218
 30
0.0
 10
256.915927
 20
87.077497
 30
0.0
  0
SPLINE
  5
15d
100
AcDbEntity
  8
Ebene_1
 62
5
100
AcDbSpline
 70
8
 71
3
 72
8
 73
4
 74
0
 40
0
 40
0
 40
0
 40
0
 40
1
 40
1
 40
1
 40
1
 10
256.915927
 20
87.077497
 30
0.0
 10
256.353565
 20
86.926775
 30
0.0
 10
255.754360
 20
87.005648
 30
0.0
 10
255.250157
 20
87.296762
 30
0.0
  0
SPLINE
  5
15e
100
AcDbEntity
  8
Ebene_1
 62
5
100
AcDbSpline
 70
8
 71
3
 72
8
 73
4
 74
0
 40
0
 40
0
 40
0
 40
0
 40
1
 40
1
 40
1
 40
1
 10
255.250157
 20
87.296762
 30
0.0
 10
254.746001
 20
87.587888
 30
0.0
 10
254.378151
 20
88.067373
 30
0.0
 10
254.227534
 20
88.629728
 30
0.0
  0
SPLINE
  5
15f
100
AcDbEntity
  8
Ebene_1
 62
5
100
AcDbSpline
 70
8
 71
3
 72
8
 73
4
 74
0
 40
0
 40
0
 40
0
 40
0
 40
1
 40
1
 40
1
 40
1
 10
254.227534
 20
88.629728
 30
0.0
 10
254.076918
 20
89.192082
 30
0.0
 10
254.155875
 20
89.791236
 30
0.0
 10
254.447034
 20
90.295373
 30
0.0
  0
SPLINE
  5
160
100
AcDbEntity
  8
Ebene_1
 62
5
100
AcDbSpline
 70
8
 71
3
 72
8
 73
4
 74
0
 40
0
 40
0
 40
0
 40
0
 40
1
 40
1
 40
1
 40
1
 10
254.447034
 20
90.295373
 30
0.0
 10
254.820557
 20
90.942518
 30
0.0
 10
255.497632
 20
91.355201
 30
0.0
 10
256.243997
 20
91.390638
 30
0.0
  0
SPLINE
  5
161
100
AcDbEntity
  8
Ebene_1
 62
5
100
AcDbSpline
 70
8
 71
3
 72
8
 73
4
 74
0
 40
0
 40
0
 40
0
 40
0
 40
1
 40
1
 40
1
 40
1
 10
256.243997
 20
91.390638
 30
0.0
 10
256.295775
 20
91.393024
 30
0.0
 10
256.347622
 20
91.393576
 30
0.0
 10
256.399439
 20
91.392292
 30
0.0
  0
LWPOLYLINE
  5
162
100
AcDbEntity
  8
Ebene_1
 62
5
100
AcDbPolyline
 90
2
 70
0
 10
-47.585314
 20
110.884918
 30
0.0
 10
-47.585314
 20
110.884918
 30
0.0
  0
SPLINE
  5
163
100
AcDbEntity
  8
Ebene_1
 62
5
100
AcDbSpline
 70
8
 71
3
 72
8
 73
4
 74
0
 40
0
 40
0
 40
0
 40
0
 40
1
 40
1
 40
1
 40
1
 10
-82.227539
 20
91.390088
 30
0.0
 10
-81.424939
 20
91.409110
 30
0.0
 10
-80.675983
 20
90.988443
 30
0.0
 10
-80.274583
 20
90.293169
 30
0.0
  0
SPLINE
  5
164
100
AcDbEntity
  8
Ebene_1
 62
5
100
AcDbSpline
 70
8
 71
3
 72
8
 73
4
 74
0
 40
0
 40
0
 40
0
 40
0
 40
1
 40
1
 40
1
 40
1
 10
-80.274583
 20
90.293169
 30
0.0
 10
-79.983470
 20
89.788965
 30
0.0
 10
-79.904597
 20
89.189761
 30
0.0
 10
-80.055318
 20
88.627399
 30
0.0
  0
SPLINE
  5
165
100
AcDbEntity
  8
Ebene_1
 62
5
100
AcDbSpline
 70
8
 71
3
 72
8
 73
4
 74
0
 40
0
 40
0
 40
0
 40
0
 40
1
 40
1
 40
1
 40
1
 10
-80.055318
 20
88.627399
 30
0.0
 10
-80.206040
 20
88.065036
 30
0.0
 10
-80.574007
 20
87.585592
 30
0.0
 10
-81.078256
 20
87.294558
 30
0.0
  0
SPLINE
  5
166
100
AcDbEntity
  8
Ebene_1
 62
5
100
AcDbSpline
 70
8
 71
3
 72
8
 73
4
 74
0
 40
0
 40
0
 40
0
 40
0
 40
1
 40
1
 40
1
 40
1
 10
-81.078256
 20
87.294558
 30
0.0
 10
-82.128091
 20
86.688717
 30
0.0
 10
-83.470277
 20
87.048509
 30
0.0
 10
-84.076314
 20
88.098231
 30
0.0
  0
SPLINE
  5
167
100
AcDbEntity
  8
Ebene_1
 62
5
100
AcDbSpline
 70
8
 71
3
 72
8
 73
4
 74
0
 40
0
 40
0
 40
0
 40
0
 40
1
 40
1
 40
1
 40
1
 10
-84.076314
 20
88.098231
 30
0.0
 10
-84.682248
 20
89.147921
 30
0.0
 10
-84.322715
 20
90.490061
 30
0.0
 10
-83.273194
 20
91.096289
 30
0.0
  0
SPLINE
  5
168
100
AcDbEntity
  8
Ebene_1
 62
5
100
AcDbSpline
 70
8
 71
3
 72
8
 73
4
 74
0
 40
0
 40
0
 40
0
 40
0
 40
1
 40
1
 40
1
 40
1
 10
-83.273194
 20
91.096289
 30
0.0
 10
-82.954759
 20
91.280273
 30
0.0
 10
-82.595199
 20
91.381299
 30
0.0
 10
-82.227539
 20
91.390088
 30
0.0
  0
LWPOLYLINE
  5
169
100
AcDbEntity
  8
Ebene_1
 62
5
100
AcDbPolyline
 90
2
 70
0
 10
256.399439
 20
91.392292
 30
0.0
 10
256.399439
 20
91.392292
 30
0.0
  0
SPLINE
  5
16a
100
AcDbEntity
  8
Ebene_1
 62
5
100
AcDbSpline
 70
8
 71
3
 72
8
 73
4
 74
0
 40
0
 40
0
 40
0
 40
0
 40
1
 40
1
 40
1
 40
1
 10
191.761731
 20
58.934532
 30
0.0
 10
192.045636
 20
58.927855
 30
0.0
 10
192.323313
 20
58.849953
 30
0.0
 10
192.569262
 20
58.707981
 30
0.0
  0
SPLINE
  5
16b
100
AcDbEntity
  8
Ebene_1
 62
5
100
AcDbSpline
 70
8
 71
3
 72
8
 73
4
 74
0
 40
0
 40
0
 40
0
 40
0
 40
1
 40
1
 40
1
 40
1
 10
192.569262
 20
58.707981
 30
0.0
 10
192.958592
 20
58.483160
 30
0.0
 10
193.242657
 20
58.112874
 30
0.0
 10
193.358954
 20
57.678596
 30
0.0
  0
SPLINE
  5
16c
100
AcDbEntity
  8
Ebene_1
 62
5
100
AcDbSpline
 70
8
 71
3
 72
8
 73
4
 74
0
 40
0
 40
0
 40
0
 40
0
 40
1
 40
1
 40
1
 40
1
 10
193.358954
 20
57.678596
 30
0.0
 10
193.475251
 20
57.244317
 30
0.0
 10
193.414253
 20
56.781626
 30
0.0
 10
193.189380
 20
56.392325
 30
0.0
  0
SPLINE
  5
16d
100
AcDbEntity
  8
Ebene_1
 62
5
100
AcDbSpline
 70
8
 71
3
 72
8
 73
4
 74
0
 40
0
 40
0
 40
0
 40
0
 40
1
 40
1
 40
1
 40
1
 10
193.189380
 20
56.392325
 30
0.0
 10
192.721225
 20
55.581911
 30
0.0
 10
191.684834
 20
55.304307
 30
0.0
 10
190.874275
 20
55.772209
 30
0.0
  0
SPLINE
  5
16e
100
AcDbEntity
  8
Ebene_1
 62
5
100
AcDbSpline
 70
8
 71
3
 72
8
 73
4
 74
0
 40
0
 40
0
 40
0
 40
0
 40
1
 40
1
 40
1
 40
1
 10
190.874275
 20
55.772209
 30
0.0
 10
190.063662
 20
56.240175
 30
0.0
 10
189.785799
 20
57.276608
 30
0.0
 10
190.253606
 20
58.087312
 30
0.0
  0
SPLINE
  5
16f
100
AcDbEntity
  8
Ebene_1
 62
5
100
AcDbSpline
 70
8
 71
3
 72
8
 73
4
 74
0
 40
0
 40
0
 40
0
 40
0
 40
1
 40
1
 40
1
 40
1
 10
190.253606
 20
58.087312
 30
0.0
 10
190.542157
 20
58.587059
 30
0.0
 10
191.065139
 20
58.905668
 30
0.0
 10
191.641566
 20
58.932878
 30
0.0
  0
SPLINE
  5
170
100
AcDbEntity
  8
Ebene_1
 62
5
100
AcDbSpline
 70
8
 71
3
 72
8
 73
4
 74
0
 40
0
 40
0
 40
0
 40
0
 40
1
 40
1
 40
1
 40
1
 10
191.641566
 20
58.932878
 30
0.0
 10
191.681589
 20
58.934850
 30
0.0
 10
191.721669
 20
58.935401
 30
0.0
 10
191.761731
 20
58.934532
 30
0.0
  0
LWPOLYLINE
  5
171
100
AcDbEntity
  8
Ebene_1
 62
5
100
AcDbPolyline
 90
2
 70
0
 10
-82.227539
 20
91.390088
 30
0.0
 10
-82.227539
 20
91.390088
 30
0.0
  0
SPLINE
  5
172
100
AcDbEntity
  8
Ebene_1
 62
5
100
AcDbSpline
 70
8
 71
3
 72
8
 73
4
 74
0
 40
0
 40
0
 40
0
 40
0
 40
1
 40
1
 40
1
 40
1
 10
-17.589831
 20
58.932878
 30
0.0
 10
-16.970124
 20
58.947658
 30
0.0
 10
-16.391776
 20
58.622972
 30
0.0
 10
-16.081706
 20
58.086211
 30
0.0
  0
SPLINE
  5
173
100
AcDbEntity
  8
Ebene_1
 62
5
100
AcDbSpline
 70
8
 71
3
 72
8
 73
4
 74
0
 40
0
 40
0
 40
0
 40
0
 40
1
 40
1
 40
1
 40
1
 10
-16.081706
 20
58.086211
 30
0.0
 10
-15.856879
 20
57.696844
 30
0.0
 10
-15.795964
 20
57.234102
 30
0.0
 10
-15.912367
 20
56.799816
 30
0.0
  0
SPLINE
  5
174
100
AcDbEntity
  8
Ebene_1
 62
5
100
AcDbSpline
 70
8
 71
3
 72
8
 73
4
 74
0
 40
0
 40
0
 40
0
 40
0
 40
1
 40
1
 40
1
 40
1
 10
-15.912367
 20
56.799816
 30
0.0
 10
-16.028769
 20
56.365530
 30
0.0
 10
-16.312950
 20
55.995285
 30
0.0
 10
-16.702374
 20
55.770556
 30
0.0
  0
SPLINE
  5
175
100
AcDbEntity
  8
Ebene_1
 62
5
100
AcDbSpline
 70
8
 71
3
 72
8
 73
4
 74
0
 40
0
 40
0
 40
0
 40
0
 40
1
 40
1
 40
1
 40
1
 10
-16.702374
 20
55.770556
 30
0.0
 10
-17.513078
 20
55.302747
 30
0.0
 10
-18.549513
 20
55.580611
 30
0.0
 10
-19.017478
 20
56.391224
 30
0.0
  0
SPLINE
  5
176
100
AcDbEntity
  8
Ebene_1
 62
5
100
AcDbSpline
 70
8
 71
3
 72
8
 73
4
 74
0
 40
0
 40
0
 40
0
 40
0
 40
1
 40
1
 40
1
 40
1
 10
-19.017478
 20
56.391224
 30
0.0
 10
-19.485378
 20
57.201784
 30
0.0
 10
-19.207774
 20
58.238173
 30
0.0
 10
-18.397361
 20
58.706327
 30
0.0
  0
SPLINE
  5
177
100
AcDbEntity
  8
Ebene_1
 62
5
100
AcDbSpline
 70
8
 71
3
 72
8
 73
4
 74
0
 40
0
 40
0
 40
0
 40
0
 40
1
 40
1
 40
1
 40
1
 10
-18.397361
 20
58.706327
 30
0.0
 10
-18.151413
 20
58.848299
 30
0.0
 10
-17.873736
 20
58.926201
 30
0.0
 10
-17.589831
 20
58.932878
 30
0.0
  0
LWPOLYLINE
  5
178
100
AcDbEntity
  8
Ebene_1
 62
5
100
AcDbPolyline
 90
2
 70
0
 10
191.761731
 20
58.934532
 30
0.0
 10
191.761731
 20
58.934532
 30
0.0
  0
SPLINE
  5
179
100
AcDbEntity
  8
Ebene_1
 62
5
100
AcDbSpline
 70
8
 71
3
 72
8
 73
4
 74
0
 40
0
 40
0
 40
0
 40
0
 40
1
 40
1
 40
1
 40
1
 10
226.404509
 20
39.440802
 30
0.0
 10
226.772121
 20
39.432183
 30
0.0
 10
227.131678
 20
39.331348
 30
0.0
 10
227.450165
 20
39.147557
 30
0.0
  0
SPLINE
  5
17a
100
AcDbEntity
  8
Ebene_1
 62
5
100
AcDbSpline
 70
8
 71
3
 72
8
 73
4
 74
0
 40
0
 40
0
 40
0
 40
0
 40
1
 40
1
 40
1
 40
1
 10
227.450165
 20
39.147557
 30
0.0
 10
227.954414
 20
38.856522
 30
0.0
 10
228.322381
 20
38.377078
 30
0.0
 10
228.473103
 20
37.814716
 30
0.0
  0
SPLINE
  5
17b
100
AcDbEntity
  8
Ebene_1
 62
5
100
AcDbSpline
 70
8
 71
3
 72
8
 73
4
 74
0
 40
0
 40
0
 40
0
 40
0
 40
1
 40
1
 40
1
 40
1
 10
228.473103
 20
37.814716
 30
0.0
 10
228.623824
 20
37.252353
 30
0.0
 10
228.544951
 20
36.653149
 30
0.0
 10
228.253838
 20
36.148945
 30
0.0
  0
SPLINE
  5
17c
100
AcDbEntity
  8
Ebene_1
 62
5
100
AcDbSpline
 70
8
 71
3
 72
8
 73
4
 74
0
 40
0
 40
0
 40
0
 40
0
 40
1
 40
1
 40
1
 40
1
 10
228.253838
 20
36.148945
 30
0.0
 10
227.962803
 20
35.644696
 30
0.0
 10
227.483359
 20
35.276729
 30
0.0
 10
226.920997
 20
35.126008
 30
0.0
  0
SPLINE
  5
17d
100
AcDbEntity
  8
Ebene_1
 62
5
100
AcDbSpline
 70
8
 71
3
 72
8
 73
4
 74
0
 40
0
 40
0
 40
0
 40
0
 40
1
 40
1
 40
1
 40
1
 10
226.920997
 20
35.126008
 30
0.0
 10
226.358634
 20
34.975286
 30
0.0
 10
225.759430
 20
35.054159
 30
0.0
 10
225.255226
 20
35.345273
 30
0.0
  0
SPLINE
  5
17e
100
AcDbEntity
  8
Ebene_1
 62
5
100
AcDbSpline
 70
8
 71
3
 72
8
 73
4
 74
0
 40
0
 40
0
 40
0
 40
0
 40
1
 40
1
 40
1
 40
1
 10
225.255226
 20
35.345273
 30
0.0
 10
224.751071
 20
35.636399
 30
0.0
 10
224.383220
 20
36.115884
 30
0.0
 10
224.232604
 20
36.678238
 30
0.0
  0
SPLINE
  5
17f
100
AcDbEntity
  8
Ebene_1
 62
5
100
AcDbSpline
 70
8
 71
3
 72
8
 73
4
 74
0
 40
0
 40
0
 40
0
 40
0
 40
1
 40
1
 40
1
 40
1
 10
224.232604
 20
36.678238
 30
0.0
 10
224.081988
 20
37.240593
 30
0.0
 10
224.160945
 20
37.839747
 30
0.0
 10
224.452104
 20
38.343884
 30
0.0
  0
SPLINE
  5
180
100
AcDbEntity
  8
Ebene_1
 62
5
100
AcDbSpline
 70
8
 71
3
 72
8
 73
4
 74
0
 40
0
 40
0
 40
0
 40
0
 40
1
 40
1
 40
1
 40
1
 10
224.452104
 20
38.343884
 30
0.0
 10
224.825627
 20
38.991029
 30
0.0
 10
225.502702
 20
39.403712
 30
0.0
 10
226.249066
 20
39.439149
 30
0.0
  0
SPLINE
  5
181
100
AcDbEntity
  8
Ebene_1
 62
5
100
AcDbSpline
 70
8
 71
3
 72
8
 73
4
 74
0
 40
0
 40
0
 40
0
 40
0
 40
1
 40
1
 40
1
 40
1
 10
226.249066
 20
39.439149
 30
0.0
 10
226.300845
 20
39.441535
 30
0.0
 10
226.352691
 20
39.442087
 30
0.0
 10
226.404509
 20
39.440802
 30
0.0
  0
LWPOLYLINE
  5
182
100
AcDbEntity
  8
Ebene_1
 62
5
100
AcDbPolyline
 90
2
 70
0
 10
-17.589831
 20
58.932878
 30
0.0
 10
-17.589831
 20
58.932878
 30
0.0
  0
SPLINE
  5
183
100
AcDbEntity
  8
Ebene_1
 62
5
100
AcDbSpline
 70
8
 71
3
 72
8
 73
4
 74
0
 40
0
 40
0
 40
0
 40
0
 40
1
 40
1
 40
1
 40
1
 10
-52.233711
 20
39.438048
 30
0.0
 10
-51.431112
 20
39.457070
 30
0.0
 10
-50.682156
 20
39.036403
 30
0.0
 10
-50.280756
 20
38.341129
 30
0.0
  0
SPLINE
  5
184
100
AcDbEntity
  8
Ebene_1
 62
5
100
AcDbSpline
 70
8
 71
3
 72
8
 73
4
 74
0
 40
0
 40
0
 40
0
 40
0
 40
1
 40
1
 40
1
 40
1
 10
-50.280756
 20
38.341129
 30
0.0
 10
-49.989643
 20
37.836926
 30
0.0
 10
-49.910769
 20
37.237722
 30
0.0
 10
-50.061490
 20
36.675360
 30
0.0
  0
SPLINE
  5
185
100
AcDbEntity
  8
Ebene_1
 62
5
100
AcDbSpline
 70
8
 71
3
 72
8
 73
4
 74
0
 40
0
 40
0
 40
0
 40
0
 40
1
 40
1
 40
1
 40
1
 10
-50.061490
 20
36.675360
 30
0.0
 10
-50.212211
 20
36.112998
 30
0.0
 10
-50.580178
 20
35.633553
 30
0.0
 10
-51.084426
 20
35.342518
 30
0.0
  0
SPLINE
  5
186
100
AcDbEntity
  8
Ebene_1
 62
5
100
AcDbSpline
 70
8
 71
3
 72
8
 73
4
 74
0
 40
0
 40
0
 40
0
 40
0
 40
1
 40
1
 40
1
 40
1
 10
-51.084426
 20
35.342518
 30
0.0
 10
-52.134261
 20
34.736675
 30
0.0
 10
-53.476448
 20
35.096466
 30
0.0
 10
-54.082487
 20
36.146188
 30
0.0
  0
SPLINE
  5
187
100
AcDbEntity
  8
Ebene_1
 62
5
100
AcDbSpline
 70
8
 71
3
 72
8
 73
4
 74
0
 40
0
 40
0
 40
0
 40
0
 40
1
 40
1
 40
1
 40
1
 10
-54.082487
 20
36.146188
 30
0.0
 10
-54.373647
 20
36.650325
 30
0.0
 10
-54.452604
 20
37.249479
 30
0.0
 10
-54.301988
 20
37.811833
 30
0.0
  0
SPLINE
  5
188
100
AcDbEntity
  8
Ebene_1
 62
5
100
AcDbSpline
 70
8
 71
3
 72
8
 73
4
 74
0
 40
0
 40
0
 40
0
 40
0
 40
1
 40
1
 40
1
 40
1
 10
-54.301988
 20
37.811833
 30
0.0
 10
-54.151373
 20
38.374187
 30
0.0
 10
-53.783523
 20
38.853672
 30
0.0
 10
-53.279367
 20
39.144799
 30
0.0
  0
SPLINE
  5
189
100
AcDbEntity
  8
Ebene_1
 62
5
100
AcDbSpline
 70
8
 71
3
 72
8
 73
4
 74
0
 40
0
 40
0
 40
0
 40
0
 40
1
 40
1
 40
1
 40
1
 10
-53.279367
 20
39.144799
 30
0.0
 10
-52.960881
 20
39.328592
 30
0.0
 10
-52.601324
 20
39.429427
 30
0.0
 10
-52.233711
 20
39.438048
 30
0.0
  0
LWPOLYLINE
  5
18a
100
AcDbEntity
  8
Ebene_1
 62
5
100
AcDbPolyline
 90
2
 70
0
 10
226.404509
 20
39.440802
 30
0.0
 10
226.404509
 20
39.440802
 30
0.0
  0
SPLINE
  5
18b
100
AcDbEntity
  8
Ebene_1
 62
5
100
AcDbSpline
 70
8
 71
3
 72
8
 73
4
 74
0
 40
0
 40
0
 40
0
 40
0
 40
1
 40
1
 40
1
 40
1
 10
71.399465
 20
37.123493
 30
0.0
 10
71.981690
 20
37.123477
 30
0.0
 10
72.540055
 20
36.892145
 30
0.0
 10
72.951699
 20
36.480398
 30
0.0
  0
SPLINE
  5
18c
100
AcDbEntity
  8
Ebene_1
 62
5
100
AcDbSpline
 70
8
 71
3
 72
8
 73
4
 74
0
 40
0
 40
0
 40
0
 40
0
 40
1
 40
1
 40
1
 40
1
 10
72.951699
 20
36.480398
 30
0.0
 10
73.363343
 20
36.068652
 30
0.0
 10
73.594535
 20
35.510229
 30
0.0
 10
73.594406
 20
34.928004
 30
0.0
  0
SPLINE
  5
18d
100
AcDbEntity
  8
Ebene_1
 62
5
100
AcDbSpline
 70
8
 71
3
 72
8
 73
4
 74
0
 40
0
 40
0
 40
0
 40
0
 40
1
 40
1
 40
1
 40
1
 10
73.594406
 20
34.928004
 30
0.0
 10
73.594373
 20
33.715785
 30
0.0
 10
72.611684
 20
32.733096
 30
0.0
 10
71.399465
 20
32.733063
 30
0.0
  0
SPLINE
  5
18e
100
AcDbEntity
  8
Ebene_1
 62
5
100
AcDbSpline
 70
8
 71
3
 72
8
 73
4
 74
0
 40
0
 40
0
 40
0
 40
0
 40
1
 40
1
 40
1
 40
1
 10
71.399465
 20
32.733063
 30
0.0
 10
70.187247
 20
32.733097
 30
0.0
 10
69.204559
 20
33.715786
 30
0.0
 10
69.204527
 20
34.928004
 30
0.0
  0
SPLINE
  5
18f
100
AcDbEntity
  8
Ebene_1
 62
5
100
AcDbSpline
 70
8
 71
3
 72
8
 73
4
 74
0
 40
0
 40
0
 40
0
 40
0
 40
1
 40
1
 40
1
 40
1
 10
69.204527
 20
34.928004
 30
0.0
 10
69.204397
 20
35.510228
 30
0.0
 10
69.435590
 20
36.068651
 30
0.0
 10
69.847233
 20
36.480397
 30
0.0
  0
SPLINE
  5
190
100
AcDbEntity
  8
Ebene_1
 62
5
100
AcDbSpline
 70
8
 71
3
 72
8
 73
4
 74
0
 40
0
 40
0
 40
0
 40
0
 40
1
 40
1
 40
1
 40
1
 10
69.847233
 20
36.480397
 30
0.0
 10
70.258876
 20
36.892144
 30
0.0
 10
70.817241
 20
37.123476
 30
0.0
 10
71.399465
 20
37.123493
 30
0.0
  0
LWPOLYLINE
  5
191
100
AcDbEntity
  8
Ebene_1
 62
5
100
AcDbPolyline
 90
2
 70
0
 10
-52.233711
 20
39.438048
 30
0.0
 10
-52.233711
 20
39.438048
 30
0.0
  0
SPLINE
  5
192
100
AcDbEntity
  8
Ebene_1
 62
5
100
AcDbSpline
 70
8
 71
3
 72
8
 73
4
 74
0
 40
0
 40
0
 40
0
 40
0
 40
1
 40
1
 40
1
 40
1
 10
101.389987
 20
37.123493
 30
0.0
 10
101.972211
 20
37.123476
 30
0.0
 10
102.530576
 20
36.892144
 30
0.0
 10
102.942219
 20
36.480397
 30
0.0
  0
SPLINE
  5
193
100
AcDbEntity
  8
Ebene_1
 62
5
100
AcDbSpline
 70
8
 71
3
 72
8
 73
4
 74
0
 40
0
 40
0
 40
0
 40
0
 40
1
 40
1
 40
1
 40
1
 10
102.942219
 20
36.480397
 30
0.0
 10
103.353862
 20
36.068651
 30
0.0
 10
103.585055
 20
35.510228
 30
0.0
 10
103.584925
 20
34.928004
 30
0.0
  0
SPLINE
  5
194
100
AcDbEntity
  8
Ebene_1
 62
5
100
AcDbSpline
 70
8
 71
3
 72
8
 73
4
 74
0
 40
0
 40
0
 40
0
 40
0
 40
1
 40
1
 40
1
 40
1
 10
103.584925
 20
34.928004
 30
0.0
 10
103.584893
 20
33.715786
 30
0.0
 10
102.602205
 20
32.733097
 30
0.0
 10
101.389987
 20
32.733063
 30
0.0
  0
SPLINE
  5
195
100
AcDbEntity
  8
Ebene_1
 62
5
100
AcDbSpline
 70
8
 71
3
 72
8
 73
4
 74
0
 40
0
 40
0
 40
0
 40
0
 40
1
 40
1
 40
1
 40
1
 10
101.389987
 20
32.733063
 30
0.0
 10
100.177769
 20
32.733097
 30
0.0
 10
99.195082
 20
33.715786
 30
0.0
 10
99.195049
 20
34.928004
 30
0.0
  0
SPLINE
  5
196
100
AcDbEntity
  8
Ebene_1
 62
5
100
AcDbSpline
 70
8
 71
3
 72
8
 73
4
 74
0
 40
0
 40
0
 40
0
 40
0
 40
1
 40
1
 40
1
 40
1
 10
99.195049
 20
34.928004
 30
0.0
 10
99.194919
 20
35.510228
 30
0.0
 10
99.426112
 20
36.068651
 30
0.0
 10
99.837755
 20
36.480397
 30
0.0
  0
SPLINE
  5
197
100
AcDbEntity
  8
Ebene_1
 62
5
100
AcDbSpline
 70
8
 71
3
 72
8
 73
4
 74
0
 40
0
 40
0
 40
0
 40
0
 40
1
 40
1
 40
1
 40
1
 10
99.837755
 20
36.480397
 30
0.0
 10
100.249398
 20
36.892144
 30
0.0
 10
100.807763
 20
37.123476
 30
0.0
 10
101.389987
 20
37.123493
 30
0.0
  0
LWPOLYLINE
  5
198
100
AcDbEntity
  8
Ebene_1
 62
5
100
AcDbPolyline
 90
2
 70
0
 10
71.399465
 20
37.123493
 30
0.0
 10
71.399465
 20
37.123493
 30
0.0
  0
LWPOLYLINE
  5
199
100
AcDbEntity
  8
Ebene_1
 62
5
100
AcDbPolyline
 90
2
 70
0
 10
101.389987
 20
37.123493
 30
0.0
 10
101.389987
 20
37.123493
 30
0.0
  0
ENDSEC
  0
SECTION
  2
OBJECTS
  0
DICTIONARY
  5
C
330
0
100
AcDbDictionary
  3
ACAD_GROUP
350
D
  3
ACAD_MLINESTYLE
350
17
  0
DICTIONARY
  5
D
330
C
100
AcDbDictionary
  0
DICTIONARY
  5
1A
330
C
100
AcDbDictionary
  0
DICTIONARY
  5
17
330
C
100
AcDbDictionary
  3
STANDARD
350
18
  0
DICTIONARY
  5
19
330
C
100
AcDbDictionary
  0
ENDSEC
  0
EOF
