  0
SECTION
  2
HEADER
  9
$ACADVER
  1
AC1014
  9
$HANDSEED
  5
FFFF
  9
$MEASUREMENT
 70
     1
  0
ENDSEC
  0
SECTION
  2
TABLES
  0
TABLE
  2
VPORT
  5
8
330
0
100
AcDbSymbolTable
 70
     4
  0
VPORT
  5
2E
330
8
100
AcDbSymbolTableRecord
100
AcDbViewportTableRecord
  2
*ACTIVE
 70
     0
 10
0.0
 20
0.0
 11
1.0
 21
1.0
 12
210.0
 22
148.5
 13
0.0
 23
0.0
 14
10.0
 24
10.0
 15
10.0
 25
10.0
 16
0.0
 26
0.0
 36
1.0
 17
0.0
 27
0.0
 37
0.0
 40
341.0
 41
1.24
 42
50.0
 43
0.0
 44
0.0
 50
0.0
 51
0.0
 71
     0
 72
   100
 73
     1
 74
     3
 75
     0
 76
     0
 77
     0
 78
     0
  0
ENDTAB
  0
TABLE
  2
LTYPE
  5
5
330
0
100
AcDbSymbolTable
 70
     1
  0
LTYPE
  5
14
330
5
100
AcDbSymbolTableRecord
100
AcDbLinetypeTableRecord
  2
BYBLOCK
 70
     0
  3

 72
    65
 73
     0
 40
0.0
  0
LTYPE
  5
15
330
5
100
AcDbSymbolTableRecord
100
AcDbLinetypeTableRecord
  2
BYLAYER
 70
     0
  3

 72
    65
 73
     0
 40
0.0
  0
LTYPE
  5
16
330
5
100
AcDbSymbolTableRecord
100
AcDbLinetypeTableRecord
  2
CONTINUOUS
 70
     0
  3
Solid line
 72
    65
 73
     0
 40
0.0
  0
ENDTAB
  0
TABLE
  2
LAYER
  5
2
100
AcDbSymbolTable
 70
2
  0
LAYER
  5
50
100
AcDbSymbolTableRecord
100
AcDbLayerTableRecord
  2
0
 70
0
  6
CONTINUOUS
  0
LAYER
  5
51
100
AcDbSymbolTableRecord
100
AcDbLayerTableRecord
  2
Ebene_1
 70
0
  6
CONTINUOUS
  0
ENDTAB
  0
TABLE
  2
STYLE
  5
3
330
0
100
AcDbSymbolTable
 70
     1
  0
STYLE
  5
11
330
3
100
AcDbSymbolTableRecord
100
AcDbTextStyleTableRecord
  2
STANDARD
 70
     0
 40
0.0
 41
1.0
 50
0.0
 71
     0
 42
2.5
  3
txt
  4

  0
ENDTAB
  0
TABLE
  2
VIEW
  5
6
330
0
100
AcDbSymbolTable
 70
     0
  0
ENDTAB
  0
TABLE
  2
UCS
  5
7
330
0
100
AcDbSymbolTable
 70
     0
  0
ENDTAB
  0
TABLE
  2
APPID
  5
9
330
0
100
AcDbSymbolTable
 70
     2
  0
APPID
  5
12
330
9
100
AcDbSymbolTableRecord
100
AcDbRegAppTableRecord
  2
ACAD
 70
     0
  0
ENDTAB
  0
TABLE
  2
DIMSTYLE
  5
A
330
0
100
AcDbSymbolTable
 70
     1
  0
DIMSTYLE
105
27
330
A
100
AcDbSymbolTableRecord
100
AcDbDimStyleTableRecord
  2
ISO-25
 70
     0
  3

  4

  5

  6

  7

 40
1.0
 41
2.5
 42
0.625
 43
3.75
 44
1.25
 45
0.0
 46
0.0
 47
0.0
 48
0.0
140
2.5
141
2.5
142
0.0
143
0.03937007874016
144
1.0
145
0.0
146
1.0
147
0.625
 71
     0
 72
     0
 73
     0
 74
     0
 75
     0
 76
     0
 77
     1
 78
     8
170
     0
171
     3
172
     1
173
     0
174
     0
175
     0
176
     0
177
     0
178
     0
270
     2
271
     2
272
     2
273
     2
274
     3
340
11
275
     0
280
     0
281
     0
282
     0
283
     0
284
     8
285
     0
286
     0
287
     3
288
     0
  0
ENDTAB
  0
TABLE
  2
BLOCK_RECORD
  5
1
330
0
100
AcDbSymbolTable
 70
     1
  0
BLOCK_RECORD
  5
1F
330
1
100
AcDbSymbolTableRecord
100
AcDbBlockTableRecord
  2
*MODEL_SPACE
  0
BLOCK_RECORD
  5
1B
330
1
100
AcDbSymbolTableRecord
100
AcDbBlockTableRecord
  2
*PAPER_SPACE
  0
ENDTAB
  0
ENDSEC
  0
SECTION
  2
BLOCKS
  0
BLOCK
  5
20
330
1F
100
AcDbEntity
  8
0
100
AcDbBlockBegin
  2
*MODEL_SPACE
 70
     0
 10
0.0
 20
0.0
 30
0.0
  3
*MODEL_SPACE
  1

  0
ENDBLK
  5
21
330
1F
100
AcDbEntity
  8
0
100
AcDbBlockEnd
  0
BLOCK
  5
1C
330
1B
100
AcDbEntity
 67
     1
  8
0
100
AcDbBlockBegin
  2
*PAPER_SPACE
  1

  0
ENDBLK
  5
1D
330
1B
100
AcDbEntity
 67
     1
  8
0
100
AcDbBlockEnd
  0
ENDSEC
  0
SECTION
  2
ENTITIES
  0
SPLINE
  5
100
100
AcDbEntity
  8
Ebene_1
 62
5
100
AcDbSpline
 70
8
 71
3
 72
8
 73
4
 74
0
 40
0
 40
0
 40
0
 40
0
 40
1
 40
1
 40
1
 40
1
 10
-57.837352
 20
242.786672
 30
0.0
 10
-57.838820
 20
242.787425
 30
0.0
 10
-57.840287
 20
242.788177
 30
0.0
 10
-57.841755
 20
242.788930
 30
0.0
  0
SPLINE
  5
101
100
AcDbEntity
  8
Ebene_1
 62
5
100
AcDbSpline
 70
8
 71
3
 72
8
 73
4
 74
0
 40
0
 40
0
 40
0
 40
0
 40
1
 40
1
 40
1
 40
1
 10
-57.841755
 20
242.788930
 30
0.0
 10
-62.622248
 20
245.547786
 30
0.0
 10
-68.734077
 20
243.909459
 30
0.0
 10
-71.493705
 20
239.129410
 30
0.0
  0
SPLINE
  5
102
100
AcDbEntity
  8
Ebene_1
 62
5
100
AcDbSpline
 70
8
 71
3
 72
8
 73
4
 74
0
 40
0
 40
0
 40
0
 40
0
 40
1
 40
1
 40
1
 40
1
 10
-71.493705
 20
239.129410
 30
0.0
 10
-74.253770
 20
234.349394
 30
0.0
 10
-72.616649
 20
228.236963
 30
0.0
 10
-67.836943
 20
225.476360
 30
0.0
  0
SPLINE
  5
103
100
AcDbEntity
  8
Ebene_1
 62
5
100
AcDbSpline
 70
8
 71
3
 72
8
 73
4
 74
0
 40
0
 40
0
 40
0
 40
0
 40
1
 40
1
 40
1
 40
1
 10
-67.836943
 20
225.476360
 30
0.0
 10
-67.836190
 20
225.475259
 30
0.0
 10
-67.835438
 20
225.474159
 30
0.0
 10
-67.834685
 20
225.473058
 30
0.0
  0
LWPOLYLINE
  5
104
100
AcDbEntity
  8
Ebene_1
 62
5
100
AcDbPolyline
 90
3
 70
1
 10
0.899048
 20
313.622245
 30
0.0
 10
-44.457702
 20
235.061942
 30
0.0
 10
-57.837352
 20
242.786672
 30
0.0
  0
SPLINE
  5
105
100
AcDbEntity
  8
Ebene_1
 62
5
100
AcDbSpline
 70
8
 71
3
 72
8
 73
4
 74
0
 40
0
 40
0
 40
0
 40
0
 40
1
 40
1
 40
1
 40
1
 10
137.745464
 20
217.757145
 30
0.0
 10
137.745464
 20
217.757145
 30
0.0
 10
151.133381
 20
225.486839
 30
0.0
 10
151.133381
 20
225.486839
 30
0.0
  0
SPLINE
  5
106
100
AcDbEntity
  8
Ebene_1
 62
5
100
AcDbSpline
 70
8
 71
3
 72
8
 73
4
 74
0
 40
0
 40
0
 40
0
 40
0
 40
1
 40
1
 40
1
 40
1
 10
151.133381
 20
225.486839
 30
0.0
 10
151.134849
 20
225.487779
 30
0.0
 10
151.136316
 20
225.488720
 30
0.0
 10
151.137784
 20
225.489661
 30
0.0
  0
SPLINE
  5
107
100
AcDbEntity
  8
Ebene_1
 62
5
100
AcDbSpline
 70
8
 71
3
 72
8
 73
4
 74
0
 40
0
 40
0
 40
0
 40
0
 40
1
 40
1
 40
1
 40
1
 10
151.137784
 20
225.489661
 30
0.0
 10
155.916830
 20
228.250232
 30
0.0
 10
157.553864
 20
234.361839
 30
0.0
 10
154.794548
 20
239.141611
 30
0.0
  0
LWPOLYLINE
  5
108
100
AcDbEntity
  8
Ebene_1
 62
5
100
AcDbPolyline
 90
12
 70
1
 10
-67.834685
 20
225.473058
 30
0.0
 10
-54.455035
 20
217.748328
 30
0.0
 10
-68.554572
 20
193.326183
 30
0.0
 10
-138.008797
 20
73.027857
 30
0.0
 10
-117.633677
 20
37.736852
 30
0.0
 10
-97.260760
 20
2.450255
 30
0.0
 10
41.647694
 20
2.450255
 30
0.0
 10
180.556148
 20
2.450255
 30
0.0
 10
200.929618
 20
37.737402
 30
0.0
 10
221.304739
 20
73.027857
 30
0.0
 10
151.850511
 20
193.326183
 30
0.0
 10
137.745464
 20
217.757145
 30
0.0
  0
SPLINE
  5
109
100
AcDbEntity
  8
Ebene_1
 62
5
100
AcDbSpline
 70
8
 71
3
 72
8
 73
4
 74
0
 40
0
 40
0
 40
0
 40
0
 40
1
 40
1
 40
1
 40
1
 10
154.796806
 20
239.143304
 30
0.0
 10
152.037179
 20
243.923353
 30
0.0
 10
145.925349
 20
245.561680
 30
0.0
 10
141.144856
 20
242.802823
 30
0.0
  0
SPLINE
  5
10a
100
AcDbEntity
  8
Ebene_1
 62
5
100
AcDbSpline
 70
8
 71
3
 72
8
 73
4
 74
0
 40
0
 40
0
 40
0
 40
0
 40
1
 40
1
 40
1
 40
1
 10
141.144856
 20
242.802823
 30
0.0
 10
141.143389
 20
242.801883
 30
0.0
 10
141.141921
 20
242.800942
 30
0.0
 10
141.140454
 20
242.800001
 30
0.0
  0
LWPOLYLINE
  5
10b
100
AcDbEntity
  8
Ebene_1
 62
5
100
AcDbPolyline
 90
2
 70
1
 10
154.794548
 20
239.141611
 30
0.0
 10
154.796806
 20
239.143304
 30
0.0
  0
SPLINE
  5
10c
100
AcDbEntity
  8
Ebene_1
 62
5
100
AcDbSpline
 70
8
 71
3
 72
8
 73
4
 74
0
 40
0
 40
0
 40
0
 40
0
 40
1
 40
1
 40
1
 40
1
 10
11.657116
 20
310.024463
 30
0.0
 10
12.869333
 20
310.024429
 30
0.0
 10
13.852021
 20
309.041741
 30
0.0
 10
13.852054
 20
307.829524
 30
0.0
  0
SPLINE
  5
10d
100
AcDbEntity
  8
Ebene_1
 62
5
100
AcDbSpline
 70
8
 71
3
 72
8
 73
4
 74
0
 40
0
 40
0
 40
0
 40
0
 40
1
 40
1
 40
1
 40
1
 10
13.852054
 20
307.829524
 30
0.0
 10
13.852021
 20
306.617307
 30
0.0
 10
12.869333
 20
305.634619
 30
0.0
 10
11.657116
 20
305.634585
 30
0.0
  0
SPLINE
  5
10e
100
AcDbEntity
  8
Ebene_1
 62
5
100
AcDbSpline
 70
8
 71
3
 72
8
 73
4
 74
0
 40
0
 40
0
 40
0
 40
0
 40
1
 40
1
 40
1
 40
1
 10
11.657116
 20
305.634585
 30
0.0
 10
10.444897
 20
305.634617
 30
0.0
 10
9.462208
 20
306.617306
 30
0.0
 10
9.462175
 20
307.829524
 30
0.0
  0
SPLINE
  5
10f
100
AcDbEntity
  8
Ebene_1
 62
5
100
AcDbSpline
 70
8
 71
3
 72
8
 73
4
 74
0
 40
0
 40
0
 40
0
 40
0
 40
1
 40
1
 40
1
 40
1
 10
9.462175
 20
307.829524
 30
0.0
 10
9.462208
 20
309.041742
 30
0.0
 10
10.444897
 20
310.024431
 30
0.0
 10
11.657116
 20
310.024463
 30
0.0
  0
LWPOLYLINE
  5
110
100
AcDbEntity
  8
Ebene_1
 62
5
100
AcDbPolyline
 90
6
 70
1
 10
141.140454
 20
242.800001
 30
0.0
 10
127.752537
 20
235.070310
 30
0.0
 10
82.400747
 20
313.621793
 30
0.0
 10
41.649955
 20
313.621793
 30
0.0
 10
0.899160
 20
313.622357
 30
0.0
 10
0.899048
 20
313.622245
 30
0.0
  0
SPLINE
  5
111
100
AcDbEntity
  8
Ebene_1
 62
5
100
AcDbSpline
 70
8
 71
3
 72
8
 73
4
 74
0
 40
0
 40
0
 40
0
 40
0
 40
1
 40
1
 40
1
 40
1
 10
71.645873
 20
310.023899
 30
0.0
 10
72.858091
 20
310.023866
 30
0.0
 10
73.840781
 20
309.041178
 30
0.0
 10
73.840814
 20
307.828960
 30
0.0
  0
SPLINE
  5
112
100
AcDbEntity
  8
Ebene_1
 62
5
100
AcDbSpline
 70
8
 71
3
 72
8
 73
4
 74
0
 40
0
 40
0
 40
0
 40
0
 40
1
 40
1
 40
1
 40
1
 10
73.840814
 20
307.828960
 30
0.0
 10
73.840781
 20
306.616742
 30
0.0
 10
72.858092
 20
305.634053
 30
0.0
 10
71.645873
 20
305.634020
 30
0.0
  0
SPLINE
  5
113
100
AcDbEntity
  8
Ebene_1
 62
5
100
AcDbSpline
 70
8
 71
3
 72
8
 73
4
 74
0
 40
0
 40
0
 40
0
 40
0
 40
1
 40
1
 40
1
 40
1
 10
71.645873
 20
305.634020
 30
0.0
 10
70.433656
 20
305.634055
 30
0.0
 10
69.450968
 20
306.616743
 30
0.0
 10
69.450935
 20
307.828960
 30
0.0
  0
SPLINE
  5
114
100
AcDbEntity
  8
Ebene_1
 62
5
100
AcDbSpline
 70
8
 71
3
 72
8
 73
4
 74
0
 40
0
 40
0
 40
0
 40
0
 40
1
 40
1
 40
1
 40
1
 10
69.450935
 20
307.828960
 30
0.0
 10
69.450969
 20
309.041177
 30
0.0
 10
70.433656
 20
310.023865
 30
0.0
 10
71.645873
 20
310.023899
 30
0.0
  0
LWPOLYLINE
  5
115
100
AcDbEntity
  8
Ebene_1
 62
5
100
AcDbPolyline
 90
2
 70
1
 10
11.657116
 20
310.024463
 30
0.0
 10
11.657116
 20
310.024463
 30
0.0
  0
SPLINE
  5
116
100
AcDbEntity
  8
Ebene_1
 62
5
100
AcDbSpline
 70
8
 71
3
 72
8
 73
4
 74
0
 40
0
 40
0
 40
0
 40
0
 40
1
 40
1
 40
1
 40
1
 10
71.646438
 20
269.535483
 30
0.0
 10
72.582550
 20
269.535476
 30
0.0
 10
73.341417
 20
268.776609
 30
0.0
 10
73.341425
 20
267.840496
 30
0.0
  0
SPLINE
  5
117
100
AcDbEntity
  8
Ebene_1
 62
5
100
AcDbSpline
 70
8
 71
3
 72
8
 73
4
 74
0
 40
0
 40
0
 40
0
 40
0
 40
1
 40
1
 40
1
 40
1
 10
73.341425
 20
267.840496
 30
0.0
 10
73.341418
 20
266.904384
 30
0.0
 10
72.582550
 20
266.145516
 30
0.0
 10
71.646438
 20
266.145509
 30
0.0
  0
SPLINE
  5
118
100
AcDbEntity
  8
Ebene_1
 62
5
100
AcDbSpline
 70
8
 71
3
 72
8
 73
4
 74
0
 40
0
 40
0
 40
0
 40
0
 40
1
 40
1
 40
1
 40
1
 10
71.646438
 20
266.145509
 30
0.0
 10
70.710325
 20
266.145516
 30
0.0
 10
69.951458
 20
266.904384
 30
0.0
 10
69.951450
 20
267.840496
 30
0.0
  0
SPLINE
  5
119
100
AcDbEntity
  8
Ebene_1
 62
5
100
AcDbSpline
 70
8
 71
3
 72
8
 73
4
 74
0
 40
0
 40
0
 40
0
 40
0
 40
1
 40
1
 40
1
 40
1
 10
69.951450
 20
267.840496
 30
0.0
 10
69.951458
 20
268.776609
 30
0.0
 10
70.710325
 20
269.535476
 30
0.0
 10
71.646438
 20
269.535483
 30
0.0
  0
LWPOLYLINE
  5
11a
100
AcDbEntity
  8
Ebene_1
 62
5
100
AcDbPolyline
 90
2
 70
1
 10
71.645873
 20
310.023899
 30
0.0
 10
71.645873
 20
310.023899
 30
0.0
  0
SPLINE
  5
11b
100
AcDbEntity
  8
Ebene_1
 62
5
100
AcDbSpline
 70
8
 71
3
 72
8
 73
4
 74
0
 40
0
 40
0
 40
0
 40
0
 40
1
 40
1
 40
1
 40
1
 10
11.657127
 20
269.534919
 30
0.0
 10
12.593239
 20
269.534912
 30
0.0
 10
13.352106
 20
268.776045
 30
0.0
 10
13.352114
 20
267.839933
 30
0.0
  0
SPLINE
  5
11c
100
AcDbEntity
  8
Ebene_1
 62
5
100
AcDbSpline
 70
8
 71
3
 72
8
 73
4
 74
0
 40
0
 40
0
 40
0
 40
0
 40
1
 40
1
 40
1
 40
1
 10
13.352114
 20
267.839933
 30
0.0
 10
13.352107
 20
266.903820
 30
0.0
 10
12.593240
 20
266.144953
 30
0.0
 10
11.657127
 20
266.144946
 30
0.0
  0
SPLINE
  5
11d
100
AcDbEntity
  8
Ebene_1
 62
5
100
AcDbSpline
 70
8
 71
3
 72
8
 73
4
 74
0
 40
0
 40
0
 40
0
 40
0
 40
1
 40
1
 40
1
 40
1
 10
11.657127
 20
266.144946
 30
0.0
 10
10.721015
 20
266.144953
 30
0.0
 10
9.962147
 20
266.903820
 30
0.0
 10
9.962140
 20
267.839933
 30
0.0
  0
SPLINE
  5
11e
100
AcDbEntity
  8
Ebene_1
 62
5
100
AcDbSpline
 70
8
 71
3
 72
8
 73
4
 74
0
 40
0
 40
0
 40
0
 40
0
 40
1
 40
1
 40
1
 40
1
 10
9.962140
 20
267.839933
 30
0.0
 10
9.962148
 20
268.776045
 30
0.0
 10
10.721015
 20
269.534912
 30
0.0
 10
11.657127
 20
269.534919
 30
0.0
  0
LWPOLYLINE
  5
11f
100
AcDbEntity
  8
Ebene_1
 62
5
100
AcDbPolyline
 90
2
 70
1
 10
71.646438
 20
269.535483
 30
0.0
 10
71.646438
 20
269.535483
 30
0.0
  0
SPLINE
  5
120
100
AcDbEntity
  8
Ebene_1
 62
5
100
AcDbSpline
 70
8
 71
3
 72
8
 73
4
 74
0
 40
0
 40
0
 40
0
 40
0
 40
1
 40
1
 40
1
 40
1
 10
-62.841835
 20
236.345173
 30
0.0
 10
-61.629616
 20
236.345140
 30
0.0
 10
-60.646927
 20
235.362450
 30
0.0
 10
-60.646894
 20
234.150232
 30
0.0
  0
SPLINE
  5
121
100
AcDbEntity
  8
Ebene_1
 62
5
100
AcDbSpline
 70
8
 71
3
 72
8
 73
4
 74
0
 40
0
 40
0
 40
0
 40
0
 40
1
 40
1
 40
1
 40
1
 10
-60.646894
 20
234.150232
 30
0.0
 10
-60.646928
 20
232.938014
 30
0.0
 10
-61.629617
 20
231.955326
 30
0.0
 10
-62.841835
 20
231.955293
 30
0.0
  0
SPLINE
  5
122
100
AcDbEntity
  8
Ebene_1
 62
5
100
AcDbSpline
 70
8
 71
3
 72
8
 73
4
 74
0
 40
0
 40
0
 40
0
 40
0
 40
1
 40
1
 40
1
 40
1
 10
-62.841835
 20
231.955293
 30
0.0
 10
-63.424060
 20
231.955163
 30
0.0
 10
-63.982484
 20
232.186355
 30
0.0
 10
-64.394230
 20
232.597998
 30
0.0
  0
SPLINE
  5
123
100
AcDbEntity
  8
Ebene_1
 62
5
100
AcDbSpline
 70
8
 71
3
 72
8
 73
4
 74
0
 40
0
 40
0
 40
0
 40
0
 40
1
 40
1
 40
1
 40
1
 10
-64.394230
 20
232.597998
 30
0.0
 10
-64.805977
 20
233.009642
 30
0.0
 10
-65.037310
 20
233.568007
 30
0.0
 10
-65.037327
 20
234.150232
 30
0.0
  0
SPLINE
  5
124
100
AcDbEntity
  8
Ebene_1
 62
5
100
AcDbSpline
 70
8
 71
3
 72
8
 73
4
 74
0
 40
0
 40
0
 40
0
 40
0
 40
1
 40
1
 40
1
 40
1
 10
-65.037327
 20
234.150232
 30
0.0
 10
-65.037311
 20
234.732457
 30
0.0
 10
-64.805978
 20
235.290823
 30
0.0
 10
-64.394231
 20
235.702466
 30
0.0
  0
SPLINE
  5
125
100
AcDbEntity
  8
Ebene_1
 62
5
100
AcDbSpline
 70
8
 71
3
 72
8
 73
4
 74
0
 40
0
 40
0
 40
0
 40
0
 40
1
 40
1
 40
1
 40
1
 10
-64.394231
 20
235.702466
 30
0.0
 10
-63.982485
 20
236.114110
 30
0.0
 10
-63.424060
 20
236.345303
 30
0.0
 10
-62.841835
 20
236.345173
 30
0.0
  0
LWPOLYLINE
  5
126
100
AcDbEntity
  8
Ebene_1
 62
5
100
AcDbPolyline
 90
2
 70
1
 10
11.657127
 20
269.534919
 30
0.0
 10
11.657127
 20
269.534919
 30
0.0
  0
SPLINE
  5
127
100
AcDbEntity
  8
Ebene_1
 62
5
100
AcDbSpline
 70
8
 71
3
 72
8
 73
4
 74
0
 40
0
 40
0
 40
0
 40
0
 40
1
 40
1
 40
1
 40
1
 10
146.143720
 20
236.345173
 30
0.0
 10
147.355939
 20
236.345140
 30
0.0
 10
148.338629
 20
235.362450
 30
0.0
 10
148.338661
 20
234.150232
 30
0.0
  0
SPLINE
  5
128
100
AcDbEntity
  8
Ebene_1
 62
5
100
AcDbSpline
 70
8
 71
3
 72
8
 73
4
 74
0
 40
0
 40
0
 40
0
 40
0
 40
1
 40
1
 40
1
 40
1
 10
148.338661
 20
234.150232
 30
0.0
 10
148.338627
 20
232.938014
 30
0.0
 10
147.355938
 20
231.955326
 30
0.0
 10
146.143720
 20
231.955293
 30
0.0
  0
SPLINE
  5
129
100
AcDbEntity
  8
Ebene_1
 62
5
100
AcDbSpline
 70
8
 71
3
 72
8
 73
4
 74
0
 40
0
 40
0
 40
0
 40
0
 40
1
 40
1
 40
1
 40
1
 10
146.143720
 20
231.955293
 30
0.0
 10
145.561496
 20
231.955163
 30
0.0
 10
145.003072
 20
232.186355
 30
0.0
 10
144.591325
 20
232.597998
 30
0.0
  0
SPLINE
  5
12a
100
AcDbEntity
  8
Ebene_1
 62
5
100
AcDbSpline
 70
8
 71
3
 72
8
 73
4
 74
0
 40
0
 40
0
 40
0
 40
0
 40
1
 40
1
 40
1
 40
1
 10
144.591325
 20
232.597998
 30
0.0
 10
144.179578
 20
233.009642
 30
0.0
 10
143.948245
 20
233.568007
 30
0.0
 10
143.948229
 20
234.150232
 30
0.0
  0
SPLINE
  5
12b
100
AcDbEntity
  8
Ebene_1
 62
5
100
AcDbSpline
 70
8
 71
3
 72
8
 73
4
 74
0
 40
0
 40
0
 40
0
 40
0
 40
1
 40
1
 40
1
 40
1
 10
143.948229
 20
234.150232
 30
0.0
 10
143.948245
 20
234.732457
 30
0.0
 10
144.179577
 20
235.290823
 30
0.0
 10
144.591324
 20
235.702466
 30
0.0
  0
SPLINE
  5
12c
100
AcDbEntity
  8
Ebene_1
 62
5
100
AcDbSpline
 70
8
 71
3
 72
8
 73
4
 74
0
 40
0
 40
0
 40
0
 40
0
 40
1
 40
1
 40
1
 40
1
 10
144.591324
 20
235.702466
 30
0.0
 10
145.003071
 20
236.114110
 30
0.0
 10
145.561495
 20
236.345303
 30
0.0
 10
146.143720
 20
236.345173
 30
0.0
  0
LWPOLYLINE
  5
12d
100
AcDbEntity
  8
Ebene_1
 62
5
100
AcDbPolyline
 90
2
 70
1
 10
-62.841835
 20
236.345173
 30
0.0
 10
-62.841835
 20
236.345173
 30
0.0
  0
SPLINE
  5
12e
100
AcDbEntity
  8
Ebene_1
 62
5
100
AcDbSpline
 70
8
 71
3
 72
8
 73
4
 74
0
 40
0
 40
0
 40
0
 40
0
 40
1
 40
1
 40
1
 40
1
 10
75.169793
 20
193.848128
 30
0.0
 10
75.972393
 20
193.867150
 30
0.0
 10
76.721348
 20
193.446483
 30
0.0
 10
77.122748
 20
192.751209
 30
0.0
  0
SPLINE
  5
12f
100
AcDbEntity
  8
Ebene_1
 62
5
100
AcDbSpline
 70
8
 71
3
 72
8
 73
4
 74
0
 40
0
 40
0
 40
0
 40
0
 40
1
 40
1
 40
1
 40
1
 10
77.122748
 20
192.751209
 30
0.0
 10
77.413862
 20
192.247006
 30
0.0
 10
77.492735
 20
191.647802
 30
0.0
 10
77.342014
 20
191.085440
 30
0.0
  0
SPLINE
  5
130
100
AcDbEntity
  8
Ebene_1
 62
5
100
AcDbSpline
 70
8
 71
3
 72
8
 73
4
 74
0
 40
0
 40
0
 40
0
 40
0
 40
1
 40
1
 40
1
 40
1
 10
77.342014
 20
191.085440
 30
0.0
 10
77.191293
 20
190.523077
 30
0.0
 10
76.823327
 20
190.043633
 30
0.0
 10
76.319078
 20
189.752598
 30
0.0
  0
SPLINE
  5
131
100
AcDbEntity
  8
Ebene_1
 62
5
100
AcDbSpline
 70
8
 71
3
 72
8
 73
4
 74
0
 40
0
 40
0
 40
0
 40
0
 40
1
 40
1
 40
1
 40
1
 10
76.319078
 20
189.752598
 30
0.0
 10
75.269242
 20
189.146755
 30
0.0
 10
73.927055
 20
189.506548
 30
0.0
 10
73.321017
 20
190.556271
 30
0.0
  0
SPLINE
  5
132
100
AcDbEntity
  8
Ebene_1
 62
5
100
AcDbSpline
 70
8
 71
3
 72
8
 73
4
 74
0
 40
0
 40
0
 40
0
 40
0
 40
1
 40
1
 40
1
 40
1
 10
73.321017
 20
190.556271
 30
0.0
 10
72.715084
 20
191.605961
 30
0.0
 10
73.074616
 20
192.948102
 30
0.0
 10
74.124137
 20
193.554329
 30
0.0
  0
SPLINE
  5
133
100
AcDbEntity
  8
Ebene_1
 62
5
100
AcDbSpline
 70
8
 71
3
 72
8
 73
4
 74
0
 40
0
 40
0
 40
0
 40
0
 40
1
 40
1
 40
1
 40
1
 10
74.124137
 20
193.554329
 30
0.0
 10
74.442573
 20
193.738314
 30
0.0
 10
74.802132
 20
193.839339
 30
0.0
 10
75.169793
 20
193.848128
 30
0.0
  0
LWPOLYLINE
  5
134
100
AcDbEntity
  8
Ebene_1
 62
5
100
AcDbPolyline
 90
2
 70
1
 10
146.143720
 20
236.345173
 30
0.0
 10
146.143720
 20
236.345173
 30
0.0
  0
SPLINE
  5
135
100
AcDbEntity
  8
Ebene_1
 62
5
100
AcDbSpline
 70
8
 71
3
 72
8
 73
4
 74
0
 40
0
 40
0
 40
0
 40
0
 40
1
 40
1
 40
1
 40
1
 10
-72.713548
 20
168.691765
 30
0.0
 10
-72.262181
 20
168.681033
 30
0.0
 10
-71.820743
 20
168.557074
 30
0.0
 10
-71.429770
 20
168.331271
 30
0.0
  0
SPLINE
  5
136
100
AcDbEntity
  8
Ebene_1
 62
5
100
AcDbSpline
 70
8
 71
3
 72
8
 73
4
 74
0
 40
0
 40
0
 40
0
 40
0
 40
1
 40
1
 40
1
 40
1
 10
-71.429770
 20
168.331271
 30
0.0
 10
-70.810695
 20
167.973931
 30
0.0
 10
-70.358941
 20
167.385287
 30
0.0
 10
-70.173900
 20
166.694848
 30
0.0
  0
SPLINE
  5
137
100
AcDbEntity
  8
Ebene_1
 62
5
100
AcDbSpline
 70
8
 71
3
 72
8
 73
4
 74
0
 40
0
 40
0
 40
0
 40
0
 40
1
 40
1
 40
1
 40
1
 10
-70.173900
 20
166.694848
 30
0.0
 10
-69.988860
 20
166.004409
 30
0.0
 10
-70.085692
 20
165.268741
 30
0.0
 10
-70.443093
 20
164.649702
 30
0.0
  0
SPLINE
  5
138
100
AcDbEntity
  8
Ebene_1
 62
5
100
AcDbSpline
 70
8
 71
3
 72
8
 73
4
 74
0
 40
0
 40
0
 40
0
 40
0
 40
1
 40
1
 40
1
 40
1
 10
-70.443093
 20
164.649702
 30
0.0
 10
-70.800525
 20
164.030721
 30
0.0
 10
-71.389210
 20
163.579085
 30
0.0
 10
-72.079640
 20
163.394150
 30
0.0
  0
SPLINE
  5
139
100
AcDbEntity
  8
Ebene_1
 62
5
100
AcDbSpline
 70
8
 71
3
 72
8
 73
4
 74
0
 40
0
 40
0
 40
0
 40
0
 40
1
 40
1
 40
1
 40
1
 10
-72.079640
 20
163.394150
 30
0.0
 10
-72.770070
 20
163.209216
 30
0.0
 10
-73.505687
 20
163.306132
 30
0.0
 10
-74.124659
 20
163.663578
 30
0.0
  0
SPLINE
  5
13a
100
AcDbEntity
  8
Ebene_1
 62
5
100
AcDbSpline
 70
8
 71
3
 72
8
 73
4
 74
0
 40
0
 40
0
 40
0
 40
0
 40
1
 40
1
 40
1
 40
1
 10
-74.124659
 20
163.663578
 30
0.0
 10
-74.743733
 20
164.020917
 30
0.0
 10
-75.195487
 20
164.609561
 30
0.0
 10
-75.380527
 20
165.299999
 30
0.0
  0
SPLINE
  5
13b
100
AcDbEntity
  8
Ebene_1
 62
5
100
AcDbSpline
 70
8
 71
3
 72
8
 73
4
 74
0
 40
0
 40
0
 40
0
 40
0
 40
1
 40
1
 40
1
 40
1
 10
-75.380527
 20
165.299999
 30
0.0
 10
-75.565568
 20
165.990437
 30
0.0
 10
-75.468736
 20
166.726105
 30
0.0
 10
-75.111336
 20
167.345144
 30
0.0
  0
SPLINE
  5
13c
100
AcDbEntity
  8
Ebene_1
 62
5
100
AcDbSpline
 70
8
 71
3
 72
8
 73
4
 74
0
 40
0
 40
0
 40
0
 40
0
 40
1
 40
1
 40
1
 40
1
 10
-75.111336
 20
167.345144
 30
0.0
 10
-74.652499
 20
168.139796
 30
0.0
 10
-73.820861
 20
168.646381
 30
0.0
 10
-72.904271
 20
168.689560
 30
0.0
  0
SPLINE
  5
13d
100
AcDbEntity
  8
Ebene_1
 62
5
100
AcDbSpline
 70
8
 71
3
 72
8
 73
4
 74
0
 40
0
 40
0
 40
0
 40
0
 40
1
 40
1
 40
1
 40
1
 10
-72.904271
 20
168.689560
 30
0.0
 10
-72.840743
 20
168.692563
 30
0.0
 10
-72.777129
 20
168.693316
 30
0.0
 10
-72.713548
 20
168.691818
 30
0.0
  0
LWPOLYLINE
  5
13e
100
AcDbEntity
  8
Ebene_1
 62
5
100
AcDbPolyline
 90
2
 70
1
 10
75.169793
 20
193.848128
 30
0.0
 10
75.169793
 20
193.848128
 30
0.0
  0
LWPOLYLINE
  5
13f
100
AcDbEntity
  8
Ebene_1
 62
5
100
AcDbPolyline
 90
2
 70
1
 10
-72.713548
 20
168.691818
 30
0.0
 10
-72.713548
 20
168.691765
 30
0.0
  0
SPLINE
  5
140
100
AcDbEntity
  8
Ebene_1
 62
5
100
AcDbSpline
 70
8
 71
3
 72
8
 73
4
 74
0
 40
0
 40
0
 40
0
 40
0
 40
1
 40
1
 40
1
 40
1
 10
41.650971
 20
137.007359
 30
0.0
 10
47.169910
 20
137.006853
 30
0.0
 10
51.643939
 20
132.533318
 30
0.0
 10
51.645055
 20
127.014378
 30
0.0
  0
SPLINE
  5
141
100
AcDbEntity
  8
Ebene_1
 62
5
100
AcDbSpline
 70
8
 71
3
 72
8
 73
4
 74
0
 40
0
 40
0
 40
0
 40
0
 40
1
 40
1
 40
1
 40
1
 10
51.645055
 20
127.014378
 30
0.0
 10
51.644303
 20
127.012910
 30
0.0
 10
51.643550
 20
127.011442
 30
0.0
 10
51.642797
 20
127.009975
 30
0.0
  0
SPLINE
  5
142
100
AcDbEntity
  8
Ebene_1
 62
5
100
AcDbSpline
 70
8
 71
3
 72
8
 73
4
 74
0
 40
0
 40
0
 40
0
 40
0
 40
1
 40
1
 40
1
 40
1
 10
51.642797
 20
127.009975
 30
0.0
 10
51.642797
 20
127.009975
 30
0.0
 10
51.642797
 20
27.022280
 30
0.0
 10
51.642797
 20
27.022280
 30
0.0
  0
SPLINE
  5
143
100
AcDbEntity
  8
Ebene_1
 62
5
100
AcDbSpline
 70
8
 71
3
 72
8
 73
4
 74
0
 40
0
 40
0
 40
0
 40
0
 40
1
 40
1
 40
1
 40
1
 10
51.642797
 20
27.022280
 30
0.0
 10
51.637429
 20
21.506144
 30
0.0
 10
47.164325
 20
17.037219
 30
0.0
 10
41.648188
 20
17.037006
 30
0.0
  0
SPLINE
  5
144
100
AcDbEntity
  8
Ebene_1
 62
5
100
AcDbSpline
 70
8
 71
3
 72
8
 73
4
 74
0
 40
0
 40
0
 40
0
 40
0
 40
1
 40
1
 40
1
 40
1
 10
41.648188
 20
17.037006
 30
0.0
 10
36.132044
 20
17.037203
 30
0.0
 10
31.658924
 20
21.506128
 30
0.0
 10
31.653551
 20
27.022271
 30
0.0
  0
SPLINE
  5
145
100
AcDbEntity
  8
Ebene_1
 62
5
100
AcDbSpline
 70
8
 71
3
 72
8
 73
4
 74
0
 40
0
 40
0
 40
0
 40
0
 40
1
 40
1
 40
1
 40
1
 10
31.653551
 20
27.022271
 30
0.0
 10
31.653551
 20
27.022271
 30
0.0
 10
31.653551
 20
127.009967
 30
0.0
 10
31.653551
 20
127.009967
 30
0.0
  0
SPLINE
  5
146
100
AcDbEntity
  8
Ebene_1
 62
5
100
AcDbSpline
 70
8
 71
3
 72
8
 73
4
 74
0
 40
0
 40
0
 40
0
 40
0
 40
1
 40
1
 40
1
 40
1
 10
31.653551
 20
127.009967
 30
0.0
 10
31.654303
 20
127.011434
 30
0.0
 10
31.655055
 20
127.012902
 30
0.0
 10
31.655808
 20
127.014369
 30
0.0
  0
SPLINE
  5
147
100
AcDbEntity
  8
Ebene_1
 62
5
100
AcDbSpline
 70
8
 71
3
 72
8
 73
4
 74
0
 40
0
 40
0
 40
0
 40
0
 40
1
 40
1
 40
1
 40
1
 10
31.655808
 20
127.014369
 30
0.0
 10
31.656924
 20
132.533310
 30
0.0
 10
36.130953
 20
137.006845
 30
0.0
 10
41.649893
 20
137.007350
 30
0.0
  0
LWPOLYLINE
  5
148
100
AcDbEntity
  8
Ebene_1
 62
5
100
AcDbPolyline
 90
3
 70
1
 10
41.649842
 20
137.007359
 30
0.0
 10
41.650406
 20
137.007359
 30
0.0
 10
41.650971
 20
137.007359
 30
0.0
  0
SPLINE
  5
149
100
AcDbEntity
  8
Ebene_1
 62
5
100
AcDbSpline
 70
8
 71
3
 72
8
 73
4
 74
0
 40
0
 40
0
 40
0
 40
0
 40
1
 40
1
 40
1
 40
1
 10
113.162856
 20
128.039637
 30
0.0
 10
113.965456
 20
128.058660
 30
0.0
 10
114.714412
 20
127.637993
 30
0.0
 10
115.115811
 20
126.942719
 30
0.0
  0
SPLINE
  5
14a
100
AcDbEntity
  8
Ebene_1
 62
5
100
AcDbSpline
 70
8
 71
3
 72
8
 73
4
 74
0
 40
0
 40
0
 40
0
 40
0
 40
1
 40
1
 40
1
 40
1
 10
115.115811
 20
126.942719
 30
0.0
 10
115.406925
 20
126.438516
 30
0.0
 10
115.485799
 20
125.839311
 30
0.0
 10
115.335078
 20
125.276949
 30
0.0
  0
SPLINE
  5
14b
100
AcDbEntity
  8
Ebene_1
 62
5
100
AcDbSpline
 70
8
 71
3
 72
8
 73
4
 74
0
 40
0
 40
0
 40
0
 40
0
 40
1
 40
1
 40
1
 40
1
 10
115.335078
 20
125.276949
 30
0.0
 10
115.184357
 20
124.714587
 30
0.0
 10
114.816390
 20
124.235142
 30
0.0
 10
114.312141
 20
123.944108
 30
0.0
  0
SPLINE
  5
14c
100
AcDbEntity
  8
Ebene_1
 62
5
100
AcDbSpline
 70
8
 71
3
 72
8
 73
4
 74
0
 40
0
 40
0
 40
0
 40
0
 40
1
 40
1
 40
1
 40
1
 10
114.312141
 20
123.944108
 30
0.0
 10
113.262306
 20
123.338265
 30
0.0
 10
111.920118
 20
123.698057
 30
0.0
 10
111.314080
 20
124.747781
 30
0.0
  0
SPLINE
  5
14d
100
AcDbEntity
  8
Ebene_1
 62
5
100
AcDbSpline
 70
8
 71
3
 72
8
 73
4
 74
0
 40
0
 40
0
 40
0
 40
0
 40
1
 40
1
 40
1
 40
1
 10
111.314080
 20
124.747781
 30
0.0
 10
111.022921
 20
125.251917
 30
0.0
 10
110.943964
 20
125.851071
 30
0.0
 10
111.094579
 20
126.413425
 30
0.0
  0
SPLINE
  5
14e
100
AcDbEntity
  8
Ebene_1
 62
5
100
AcDbSpline
 70
8
 71
3
 72
8
 73
4
 74
0
 40
0
 40
0
 40
0
 40
0
 40
1
 40
1
 40
1
 40
1
 10
111.094579
 20
126.413425
 30
0.0
 10
111.245195
 20
126.975779
 30
0.0
 10
111.613045
 20
127.455265
 30
0.0
 10
112.117200
 20
127.746392
 30
0.0
  0
SPLINE
  5
14f
100
AcDbEntity
  8
Ebene_1
 62
5
100
AcDbSpline
 70
8
 71
3
 72
8
 73
4
 74
0
 40
0
 40
0
 40
0
 40
0
 40
1
 40
1
 40
1
 40
1
 10
112.117200
 20
127.746392
 30
0.0
 10
112.435687
 20
127.930183
 30
0.0
 10
112.795244
 20
128.031018
 30
0.0
 10
113.162856
 20
128.039637
 30
0.0
  0
LWPOLYLINE
  5
150
100
AcDbEntity
  8
Ebene_1
 62
5
100
AcDbPolyline
 90
2
 70
1
 10
41.649893
 20
137.007350
 30
0.0
 10
41.649842
 20
137.007359
 30
0.0
  0
SPLINE
  5
151
100
AcDbEntity
  8
Ebene_1
 62
5
100
AcDbSpline
 70
8
 71
3
 72
8
 73
4
 74
0
 40
0
 40
0
 40
0
 40
0
 40
1
 40
1
 40
1
 40
1
 10
-97.711161
 20
125.400970
 30
0.0
 10
-97.259794
 20
125.390238
 30
0.0
 10
-96.818356
 20
125.266279
 30
0.0
 10
-96.427383
 20
125.040476
 30
0.0
  0
SPLINE
  5
152
100
AcDbEntity
  8
Ebene_1
 62
5
100
AcDbSpline
 70
8
 71
3
 72
8
 73
4
 74
0
 40
0
 40
0
 40
0
 40
0
 40
1
 40
1
 40
1
 40
1
 10
-96.427383
 20
125.040476
 30
0.0
 10
-95.138751
 20
124.296177
 30
0.0
 10
-94.697288
 20
122.648283
 30
0.0
 10
-95.441256
 20
121.359460
 30
0.0
  0
SPLINE
  5
153
100
AcDbEntity
  8
Ebene_1
 62
5
100
AcDbSpline
 70
8
 71
3
 72
8
 73
4
 74
0
 40
0
 40
0
 40
0
 40
0
 40
1
 40
1
 40
1
 40
1
 10
-95.441256
 20
121.359460
 30
0.0
 10
-96.185367
 20
120.070628
 30
0.0
 10
-97.833305
 20
119.628907
 30
0.0
 10
-99.122272
 20
120.372783
 30
0.0
  0
SPLINE
  5
154
100
AcDbEntity
  8
Ebene_1
 62
5
100
AcDbSpline
 70
8
 71
3
 72
8
 73
4
 74
0
 40
0
 40
0
 40
0
 40
0
 40
1
 40
1
 40
1
 40
1
 10
-99.122272
 20
120.372783
 30
0.0
 10
-99.741347
 20
120.730123
 30
0.0
 10
-100.193101
 20
121.318767
 30
0.0
 10
-100.378142
 20
122.009206
 30
0.0
  0
SPLINE
  5
155
100
AcDbEntity
  8
Ebene_1
 62
5
100
AcDbSpline
 70
8
 71
3
 72
8
 73
4
 74
0
 40
0
 40
0
 40
0
 40
0
 40
1
 40
1
 40
1
 40
1
 10
-100.378142
 20
122.009206
 30
0.0
 10
-100.563183
 20
122.699644
 30
0.0
 10
-100.466350
 20
123.435312
 30
0.0
 10
-100.108949
 20
124.054352
 30
0.0
  0
SPLINE
  5
156
100
AcDbEntity
  8
Ebene_1
 62
5
100
AcDbSpline
 70
8
 71
3
 72
8
 73
4
 74
0
 40
0
 40
0
 40
0
 40
0
 40
1
 40
1
 40
1
 40
1
 10
-100.108949
 20
124.054352
 30
0.0
 10
-99.650216
 20
124.848843
 30
0.0
 10
-98.818825
 20
125.355403
 30
0.0
 10
-97.902435
 20
125.398766
 30
0.0
  0
SPLINE
  5
157
100
AcDbEntity
  8
Ebene_1
 62
5
100
AcDbSpline
 70
8
 71
3
 72
8
 73
4
 74
0
 40
0
 40
0
 40
0
 40
0
 40
1
 40
1
 40
1
 40
1
 10
-97.902435
 20
125.398766
 30
0.0
 10
-97.838724
 20
125.401781
 30
0.0
 10
-97.774926
 20
125.402534
 30
0.0
 10
-97.711161
 20
125.401023
 30
0.0
  0
LWPOLYLINE
  5
158
100
AcDbEntity
  8
Ebene_1
 62
5
100
AcDbPolyline
 90
2
 70
1
 10
113.162856
 20
128.039637
 30
0.0
 10
113.162856
 20
128.039637
 30
0.0
  0
SPLINE
  5
159
100
AcDbEntity
  8
Ebene_1
 62
5
100
AcDbSpline
 70
8
 71
3
 72
8
 73
4
 74
0
 40
0
 40
0
 40
0
 40
0
 40
1
 40
1
 40
1
 40
1
 10
176.085184
 20
114.480844
 30
0.0
 10
181.605200
 20
114.480642
 30
0.0
 10
186.079921
 20
110.005674
 30
0.0
 10
186.079819
 20
104.485659
 30
0.0
  0
SPLINE
  5
15a
100
AcDbEntity
  8
Ebene_1
 62
5
100
AcDbSpline
 70
8
 71
3
 72
8
 73
4
 74
0
 40
0
 40
0
 40
0
 40
0
 40
1
 40
1
 40
1
 40
1
 10
186.079819
 20
104.485659
 30
0.0
 10
186.079922
 20
98.965642
 30
0.0
 10
181.605201
 20
94.490673
 30
0.0
 10
176.085184
 20
94.490471
 30
0.0
  0
SPLINE
  5
15b
100
AcDbEntity
  8
Ebene_1
 62
5
100
AcDbSpline
 70
8
 71
3
 72
8
 73
4
 74
0
 40
0
 40
0
 40
0
 40
0
 40
1
 40
1
 40
1
 40
1
 10
176.085184
 20
94.490471
 30
0.0
 10
171.051213
 20
94.496700
 30
0.0
 10
166.807438
 20
98.245694
 30
0.0
 10
166.180395
 20
103.240463
 30
0.0
  0
LWPOLYLINE
  5
15c
100
AcDbEntity
  8
Ebene_1
 62
5
100
AcDbPolyline
 90
2
 70
1
 10
-97.711161
 20
125.401023
 30
0.0
 10
-97.711161
 20
125.400970
 30
0.0
  0
SPLINE
  5
15d
100
AcDbEntity
  8
Ebene_1
 62
5
100
AcDbSpline
 70
8
 71
3
 72
8
 73
4
 74
0
 40
0
 40
0
 40
0
 40
0
 40
1
 40
1
 40
1
 40
1
 10
165.028355
 20
105.730854
 30
0.0
 10
165.028355
 20
105.730854
 30
0.0
 10
166.177640
 20
105.730854
 30
0.0
 10
166.177640
 20
105.730854
 30
0.0
  0
SPLINE
  5
15e
100
AcDbEntity
  8
Ebene_1
 62
5
100
AcDbSpline
 70
8
 71
3
 72
8
 73
4
 74
0
 40
0
 40
0
 40
0
 40
0
 40
1
 40
1
 40
1
 40
1
 10
166.177640
 20
105.730854
 30
0.0
 10
166.804817
 20
110.726662
 30
0.0
 10
171.050164
 20
114.476001
 30
0.0
 10
176.085184
 20
114.480844
 30
0.0
  0
LWPOLYLINE
  5
15f
100
AcDbEntity
  8
Ebene_1
 62
5
100
AcDbPolyline
 90
3
 70
1
 10
166.180395
 20
103.240463
 30
0.0
 10
165.028355
 20
103.240463
 30
0.0
 10
165.028355
 20
105.730854
 30
0.0
  0
SPLINE
  5
160
100
AcDbEntity
  8
Ebene_1
 62
5
100
AcDbSpline
 70
8
 71
3
 72
8
 73
4
 74
0
 40
0
 40
0
 40
0
 40
0
 40
1
 40
1
 40
1
 40
1
 10
-93.022524
 20
88.303079
 30
0.0
 10
-92.402702
 20
88.317747
 30
0.0
 10
-91.824327
 20
87.992834
 30
0.0
 10
-91.514399
 20
87.455862
 30
0.0
  0
SPLINE
  5
161
100
AcDbEntity
  8
Ebene_1
 62
5
100
AcDbSpline
 70
8
 71
3
 72
8
 73
4
 74
0
 40
0
 40
0
 40
0
 40
0
 40
1
 40
1
 40
1
 40
1
 10
-91.514399
 20
87.455862
 30
0.0
 10
-91.289573
 20
87.066494
 30
0.0
 10
-91.228658
 20
86.603753
 30
0.0
 10
-91.345061
 20
86.169466
 30
0.0
  0
SPLINE
  5
162
100
AcDbEntity
  8
Ebene_1
 62
5
100
AcDbSpline
 70
8
 71
3
 72
8
 73
4
 74
0
 40
0
 40
0
 40
0
 40
0
 40
1
 40
1
 40
1
 40
1
 10
-91.345061
 20
86.169466
 30
0.0
 10
-91.461463
 20
85.735180
 30
0.0
 10
-91.745644
 20
85.364935
 30
0.0
 10
-92.135068
 20
85.140206
 30
0.0
  0
SPLINE
  5
163
100
AcDbEntity
  8
Ebene_1
 62
5
100
AcDbSpline
 70
8
 71
3
 72
8
 73
4
 74
0
 40
0
 40
0
 40
0
 40
0
 40
1
 40
1
 40
1
 40
1
 10
-92.135068
 20
85.140206
 30
0.0
 10
-92.945773
 20
84.672397
 30
0.0
 10
-93.982209
 20
84.950260
 30
0.0
 10
-94.450174
 20
85.760875
 30
0.0
  0
SPLINE
  5
164
100
AcDbEntity
  8
Ebene_1
 62
5
100
AcDbSpline
 70
8
 71
3
 72
8
 73
4
 74
0
 40
0
 40
0
 40
0
 40
0
 40
1
 40
1
 40
1
 40
1
 10
-94.450174
 20
85.760875
 30
0.0
 10
-94.918073
 20
86.571434
 30
0.0
 10
-94.640468
 20
87.607824
 30
0.0
 10
-93.830055
 20
88.075977
 30
0.0
  0
SPLINE
  5
165
100
AcDbEntity
  8
Ebene_1
 62
5
100
AcDbSpline
 70
8
 71
3
 72
8
 73
4
 74
0
 40
0
 40
0
 40
0
 40
0
 40
1
 40
1
 40
1
 40
1
 10
-93.830055
 20
88.075977
 30
0.0
 10
-93.584158
 20
88.218142
 30
0.0
 10
-93.306478
 20
88.296234
 30
0.0
 10
-93.022524
 20
88.303079
 30
0.0
  0
LWPOLYLINE
  5
166
100
AcDbEntity
  8
Ebene_1
 62
5
100
AcDbPolyline
 90
2
 70
1
 10
176.085184
 20
114.480844
 30
0.0
 10
176.085184
 20
114.480844
 30
0.0
  0
SPLINE
  5
167
100
AcDbEntity
  8
Ebene_1
 62
5
100
AcDbSpline
 70
8
 71
3
 72
8
 73
4
 74
0
 40
0
 40
0
 40
0
 40
0
 40
1
 40
1
 40
1
 40
1
 10
176.321105
 20
88.300821
 30
0.0
 10
176.605057
 20
88.293976
 30
0.0
 10
176.882736
 20
88.215884
 30
0.0
 10
177.128633
 20
88.073720
 30
0.0
  0
SPLINE
  5
168
100
AcDbEntity
  8
Ebene_1
 62
5
100
AcDbSpline
 70
8
 71
3
 72
8
 73
4
 74
0
 40
0
 40
0
 40
0
 40
0
 40
1
 40
1
 40
1
 40
1
 10
177.128633
 20
88.073720
 30
0.0
 10
177.518057
 20
87.848991
 30
0.0
 10
177.802238
 20
87.478746
 30
0.0
 10
177.918640
 20
87.044459
 30
0.0
  0
SPLINE
  5
169
100
AcDbEntity
  8
Ebene_1
 62
5
100
AcDbSpline
 70
8
 71
3
 72
8
 73
4
 74
0
 40
0
 40
0
 40
0
 40
0
 40
1
 40
1
 40
1
 40
1
 10
177.918640
 20
87.044459
 30
0.0
 10
178.035043
 20
86.610173
 30
0.0
 10
177.974128
 20
86.147431
 30
0.0
 10
177.749302
 20
85.758064
 30
0.0
  0
SPLINE
  5
16a
100
AcDbEntity
  8
Ebene_1
 62
5
100
AcDbSpline
 70
8
 71
3
 72
8
 73
4
 74
0
 40
0
 40
0
 40
0
 40
0
 40
1
 40
1
 40
1
 40
1
 10
177.749302
 20
85.758064
 30
0.0
 10
177.524480
 20
85.368734
 30
0.0
 10
177.154194
 20
85.084670
 30
0.0
 10
176.719916
 20
84.968373
 30
0.0
  0
SPLINE
  5
16b
100
AcDbEntity
  8
Ebene_1
 62
5
100
AcDbSpline
 70
8
 71
3
 72
8
 73
4
 74
0
 40
0
 40
0
 40
0
 40
0
 40
1
 40
1
 40
1
 40
1
 10
176.719916
 20
84.968373
 30
0.0
 10
176.285637
 20
84.852077
 30
0.0
 10
175.822946
 20
84.913075
 30
0.0
 10
175.433646
 20
85.137948
 30
0.0
  0
SPLINE
  5
16c
100
AcDbEntity
  8
Ebene_1
 62
5
100
AcDbSpline
 70
8
 71
3
 72
8
 73
4
 74
0
 40
0
 40
0
 40
0
 40
0
 40
1
 40
1
 40
1
 40
1
 10
175.433646
 20
85.137948
 30
0.0
 10
174.623034
 20
85.605914
 30
0.0
 10
174.345172
 20
86.642348
 30
0.0
 10
174.812980
 20
87.453051
 30
0.0
  0
SPLINE
  5
16d
100
AcDbEntity
  8
Ebene_1
 62
5
100
AcDbSpline
 70
8
 71
3
 72
8
 73
4
 74
0
 40
0
 40
0
 40
0
 40
0
 40
1
 40
1
 40
1
 40
1
 10
174.812980
 20
87.453051
 30
0.0
 10
175.101396
 20
87.953008
 30
0.0
 10
175.624401
 20
88.271839
 30
0.0
 10
176.200937
 20
88.299167
 30
0.0
  0
SPLINE
  5
16e
100
AcDbEntity
  8
Ebene_1
 62
5
100
AcDbSpline
 70
8
 71
3
 72
8
 73
4
 74
0
 40
0
 40
0
 40
0
 40
0
 40
1
 40
1
 40
1
 40
1
 10
176.200937
 20
88.299167
 30
0.0
 10
176.240961
 20
88.301152
 30
0.0
 10
176.281042
 20
88.301717
 30
0.0
 10
176.321105
 20
88.300860
 30
0.0
  0
LWPOLYLINE
  5
16f
100
AcDbEntity
  8
Ebene_1
 62
5
100
AcDbPolyline
 90
2
 70
1
 10
-93.022524
 20
88.303079
 30
0.0
 10
-93.022524
 20
88.303079
 30
0.0
  0
SPLINE
  5
170
100
AcDbEntity
  8
Ebene_1
 62
5
100
AcDbSpline
 70
8
 71
3
 72
8
 73
4
 74
0
 40
0
 40
0
 40
0
 40
0
 40
1
 40
1
 40
1
 40
1
 10
-127.664752
 20
68.807698
 30
0.0
 10
-126.862267
 20
68.826833
 30
0.0
 10
-126.113339
 20
68.406392
 30
0.0
 10
-125.711797
 20
67.711330
 30
0.0
  0
SPLINE
  5
171
100
AcDbEntity
  8
Ebene_1
 62
5
100
AcDbSpline
 70
8
 71
3
 72
8
 73
4
 74
0
 40
0
 40
0
 40
0
 40
0
 40
1
 40
1
 40
1
 40
1
 10
-125.711797
 20
67.711330
 30
0.0
 10
-125.420683
 20
67.207127
 30
0.0
 10
-125.341809
 20
66.607922
 30
0.0
 10
-125.492530
 20
66.045560
 30
0.0
  0
SPLINE
  5
172
100
AcDbEntity
  8
Ebene_1
 62
5
100
AcDbSpline
 70
8
 71
3
 72
8
 73
4
 74
0
 40
0
 40
0
 40
0
 40
0
 40
1
 40
1
 40
1
 40
1
 10
-125.492530
 20
66.045560
 30
0.0
 10
-125.643251
 20
65.483198
 30
0.0
 10
-126.011218
 20
65.003754
 30
0.0
 10
-126.515467
 20
64.712719
 30
0.0
  0
SPLINE
  5
173
100
AcDbEntity
  8
Ebene_1
 62
5
100
AcDbSpline
 70
8
 71
3
 72
8
 73
4
 74
0
 40
0
 40
0
 40
0
 40
0
 40
1
 40
1
 40
1
 40
1
 10
-126.515467
 20
64.712719
 30
0.0
 10
-127.019603
 20
64.421559
 30
0.0
 10
-127.618757
 20
64.342602
 30
0.0
 10
-128.181111
 20
64.493218
 30
0.0
  0
SPLINE
  5
174
100
AcDbEntity
  8
Ebene_1
 62
5
100
AcDbSpline
 70
8
 71
3
 72
8
 73
4
 74
0
 40
0
 40
0
 40
0
 40
0
 40
1
 40
1
 40
1
 40
1
 10
-128.181111
 20
64.493218
 30
0.0
 10
-128.743466
 20
64.643833
 30
0.0
 10
-129.222951
 20
65.011683
 30
0.0
 10
-129.514078
 20
65.515838
 30
0.0
  0
SPLINE
  5
175
100
AcDbEntity
  8
Ebene_1
 62
5
100
AcDbSpline
 70
8
 71
3
 72
8
 73
4
 74
0
 40
0
 40
0
 40
0
 40
0
 40
1
 40
1
 40
1
 40
1
 10
-129.514078
 20
65.515838
 30
0.0
 10
-129.805192
 20
66.020042
 30
0.0
 10
-129.884065
 20
66.619246
 30
0.0
 10
-129.733344
 20
67.181608
 30
0.0
  0
SPLINE
  5
176
100
AcDbEntity
  8
Ebene_1
 62
5
100
AcDbSpline
 70
8
 71
3
 72
8
 73
4
 74
0
 40
0
 40
0
 40
0
 40
0
 40
1
 40
1
 40
1
 40
1
 10
-129.733344
 20
67.181608
 30
0.0
 10
-129.582623
 20
67.743970
 30
0.0
 10
-129.214656
 20
68.223415
 30
0.0
 10
-128.710408
 20
68.514450
 30
0.0
  0
SPLINE
  5
177
100
AcDbEntity
  8
Ebene_1
 62
5
100
AcDbSpline
 70
8
 71
3
 72
8
 73
4
 74
0
 40
0
 40
0
 40
0
 40
0
 40
1
 40
1
 40
1
 40
1
 10
-128.710408
 20
68.514450
 30
0.0
 10
-128.391921
 20
68.698242
 30
0.0
 10
-128.032365
 20
68.799078
 30
0.0
 10
-127.664752
 20
68.807698
 30
0.0
  0
LWPOLYLINE
  5
178
100
AcDbEntity
  8
Ebene_1
 62
5
100
AcDbPolyline
 90
2
 70
1
 10
176.321105
 20
88.300860
 30
0.0
 10
176.321105
 20
88.300821
 30
0.0
  0
SPLINE
  5
179
100
AcDbEntity
  8
Ebene_1
 62
5
100
AcDbSpline
 70
8
 71
3
 72
8
 73
4
 74
0
 40
0
 40
0
 40
0
 40
0
 40
1
 40
1
 40
1
 40
1
 10
210.964983
 20
68.805440
 30
0.0
 10
211.332596
 20
68.796820
 30
0.0
 10
211.692152
 20
68.695984
 30
0.0
 10
212.010639
 20
68.512192
 30
0.0
  0
SPLINE
  5
17a
100
AcDbEntity
  8
Ebene_1
 62
5
100
AcDbSpline
 70
8
 71
3
 72
8
 73
4
 74
0
 40
0
 40
0
 40
0
 40
0
 40
1
 40
1
 40
1
 40
1
 10
212.010639
 20
68.512192
 30
0.0
 10
212.514794
 20
68.221065
 30
0.0
 10
212.882644
 20
67.741580
 30
0.0
 10
213.033260
 20
67.179225
 30
0.0
  0
SPLINE
  5
17b
100
AcDbEntity
  8
Ebene_1
 62
5
100
AcDbSpline
 70
8
 71
3
 72
8
 73
4
 74
0
 40
0
 40
0
 40
0
 40
0
 40
1
 40
1
 40
1
 40
1
 10
213.033260
 20
67.179225
 30
0.0
 10
213.183876
 20
66.616871
 30
0.0
 10
213.104918
 20
66.017717
 30
0.0
 10
212.813759
 20
65.513581
 30
0.0
  0
SPLINE
  5
17c
100
AcDbEntity
  8
Ebene_1
 62
5
100
AcDbSpline
 70
8
 71
3
 72
8
 73
4
 74
0
 40
0
 40
0
 40
0
 40
0
 40
1
 40
1
 40
1
 40
1
 10
212.813759
 20
65.513581
 30
0.0
 10
212.207532
 20
64.464060
 30
0.0
 10
210.865391
 20
64.104527
 30
0.0
 10
209.815701
 20
64.710461
 30
0.0
  0
SPLINE
  5
17d
100
AcDbEntity
  8
Ebene_1
 62
5
100
AcDbSpline
 70
8
 71
3
 72
8
 73
4
 74
0
 40
0
 40
0
 40
0
 40
0
 40
1
 40
1
 40
1
 40
1
 10
209.815701
 20
64.710461
 30
0.0
 10
208.765978
 20
65.316499
 30
0.0
 10
208.406185
 20
66.658686
 30
0.0
 10
209.012028
 20
67.708522
 30
0.0
  0
SPLINE
  5
17e
100
AcDbEntity
  8
Ebene_1
 62
5
100
AcDbSpline
 70
8
 71
3
 72
8
 73
4
 74
0
 40
0
 40
0
 40
0
 40
0
 40
1
 40
1
 40
1
 40
1
 10
209.012028
 20
67.708522
 30
0.0
 10
209.385655
 20
68.355826
 30
0.0
 10
210.062977
 20
68.768534
 30
0.0
 10
210.809541
 20
68.803787
 30
0.0
  0
SPLINE
  5
17f
100
AcDbEntity
  8
Ebene_1
 62
5
100
AcDbSpline
 70
8
 71
3
 72
8
 73
4
 74
0
 40
0
 40
0
 40
0
 40
0
 40
1
 40
1
 40
1
 40
1
 10
210.809541
 20
68.803787
 30
0.0
 10
210.861319
 20
68.806186
 30
0.0
 10
210.913165
 20
68.806751
 30
0.0
 10
210.964983
 20
68.805480
 30
0.0
  0
LWPOLYLINE
  5
180
100
AcDbEntity
  8
Ebene_1
 62
5
100
AcDbPolyline
 90
2
 70
1
 10
-127.664752
 20
68.807698
 30
0.0
 10
-127.664752
 20
68.807698
 30
0.0
  0
SPLINE
  5
181
100
AcDbEntity
  8
Ebene_1
 62
5
100
AcDbSpline
 70
8
 71
3
 72
8
 73
4
 74
0
 40
0
 40
0
 40
0
 40
0
 40
1
 40
1
 40
1
 40
1
 10
140.520773
 20
57.100934
 30
0.0
 10
141.732991
 20
57.100902
 30
0.0
 10
142.715680
 20
56.118214
 30
0.0
 10
142.715714
 20
54.905996
 30
0.0
  0
SPLINE
  5
182
100
AcDbEntity
  8
Ebene_1
 62
5
100
AcDbSpline
 70
8
 71
3
 72
8
 73
4
 74
0
 40
0
 40
0
 40
0
 40
0
 40
1
 40
1
 40
1
 40
1
 10
142.715714
 20
54.905996
 30
0.0
 10
142.715681
 20
53.693777
 30
0.0
 10
141.732992
 20
52.711088
 30
0.0
 10
140.520773
 20
52.711055
 30
0.0
  0
SPLINE
  5
183
100
AcDbEntity
  8
Ebene_1
 62
5
100
AcDbSpline
 70
8
 71
3
 72
8
 73
4
 74
0
 40
0
 40
0
 40
0
 40
0
 40
1
 40
1
 40
1
 40
1
 10
140.520773
 20
52.711055
 30
0.0
 10
139.308555
 20
52.711089
 30
0.0
 10
138.325867
 20
53.693778
 30
0.0
 10
138.325835
 20
54.905996
 30
0.0
  0
SPLINE
  5
184
100
AcDbEntity
  8
Ebene_1
 62
5
100
AcDbSpline
 70
8
 71
3
 72
8
 73
4
 74
0
 40
0
 40
0
 40
0
 40
0
 40
1
 40
1
 40
1
 40
1
 10
138.325835
 20
54.905996
 30
0.0
 10
138.325869
 20
56.118213
 30
0.0
 10
139.308556
 20
57.100900
 30
0.0
 10
140.520773
 20
57.100934
 30
0.0
  0
LWPOLYLINE
  5
185
100
AcDbEntity
  8
Ebene_1
 62
5
100
AcDbPolyline
 90
2
 70
1
 10
210.964983
 20
68.805480
 30
0.0
 10
210.964983
 20
68.805440
 30
0.0
  0
SPLINE
  5
186
100
AcDbEntity
  8
Ebene_1
 62
5
100
AcDbSpline
 70
8
 71
3
 72
8
 73
4
 74
0
 40
0
 40
0
 40
0
 40
0
 40
1
 40
1
 40
1
 40
1
 10
57.785564
 20
57.097632
 30
0.0
 10
58.997782
 20
57.097600
 30
0.0
 10
59.980471
 20
56.114912
 30
0.0
 10
59.980505
 20
54.902694
 30
0.0
  0
SPLINE
  5
187
100
AcDbEntity
  8
Ebene_1
 62
5
100
AcDbSpline
 70
8
 71
3
 72
8
 73
4
 74
0
 40
0
 40
0
 40
0
 40
0
 40
1
 40
1
 40
1
 40
1
 10
59.980505
 20
54.902694
 30
0.0
 10
59.980473
 20
53.690475
 30
0.0
 10
58.997783
 20
52.707786
 30
0.0
 10
57.785564
 20
52.707753
 30
0.0
  0
SPLINE
  5
188
100
AcDbEntity
  8
Ebene_1
 62
5
100
AcDbSpline
 70
8
 71
3
 72
8
 73
4
 74
0
 40
0
 40
0
 40
0
 40
0
 40
1
 40
1
 40
1
 40
1
 10
57.785564
 20
52.707753
 30
0.0
 10
56.573347
 20
52.707787
 30
0.0
 10
55.590659
 20
53.690476
 30
0.0
 10
55.590626
 20
54.902694
 30
0.0
  0
SPLINE
  5
189
100
AcDbEntity
  8
Ebene_1
 62
5
100
AcDbSpline
 70
8
 71
3
 72
8
 73
4
 74
0
 40
0
 40
0
 40
0
 40
0
 40
1
 40
1
 40
1
 40
1
 10
55.590626
 20
54.902694
 30
0.0
 10
55.590660
 20
56.114911
 30
0.0
 10
56.573348
 20
57.097598
 30
0.0
 10
57.785564
 20
57.097632
 30
0.0
  0
LWPOLYLINE
  5
18a
100
AcDbEntity
  8
Ebene_1
 62
5
100
AcDbPolyline
 90
2
 70
1
 10
140.520773
 20
57.100934
 30
0.0
 10
140.520773
 20
57.100934
 30
0.0
  0
SPLINE
  5
18b
100
AcDbEntity
  8
Ebene_1
 62
5
100
AcDbSpline
 70
8
 71
3
 72
8
 73
4
 74
0
 40
0
 40
0
 40
0
 40
0
 40
1
 40
1
 40
1
 40
1
 10
-63.027044
 20
36.350991
 30
0.0
 10
-62.407417
 20
36.365456
 30
0.0
 10
-61.829301
 20
36.040571
 30
0.0
 10
-61.519469
 20
35.503774
 30
0.0
  0
SPLINE
  5
18c
100
AcDbEntity
  8
Ebene_1
 62
5
100
AcDbSpline
 70
8
 71
3
 72
8
 73
4
 74
0
 40
0
 40
0
 40
0
 40
0
 40
1
 40
1
 40
1
 40
1
 10
-61.519469
 20
35.503774
 30
0.0
 10
-61.294596
 20
35.114473
 30
0.0
 10
-61.233598
 20
34.651782
 30
0.0
 10
-61.349895
 20
34.217504
 30
0.0
  0
SPLINE
  5
18d
100
AcDbEntity
  8
Ebene_1
 62
5
100
AcDbSpline
 70
8
 71
3
 72
8
 73
4
 74
0
 40
0
 40
0
 40
0
 40
0
 40
1
 40
1
 40
1
 40
1
 10
-61.349895
 20
34.217504
 30
0.0
 10
-61.466192
 20
33.783225
 30
0.0
 10
-61.750257
 20
33.412939
 30
0.0
 10
-62.139587
 20
33.188118
 30
0.0
  0
SPLINE
  5
18e
100
AcDbEntity
  8
Ebene_1
 62
5
100
AcDbSpline
 70
8
 71
3
 72
8
 73
4
 74
0
 40
0
 40
0
 40
0
 40
0
 40
1
 40
1
 40
1
 40
1
 10
-62.139587
 20
33.188118
 30
0.0
 10
-62.528955
 20
32.963292
 30
0.0
 10
-62.991696
 20
32.902377
 30
0.0
 10
-63.425983
 20
33.018780
 30
0.0
  0
SPLINE
  5
18f
100
AcDbEntity
  8
Ebene_1
 62
5
100
AcDbSpline
 70
8
 71
3
 72
8
 73
4
 74
0
 40
0
 40
0
 40
0
 40
0
 40
1
 40
1
 40
1
 40
1
 10
-63.425983
 20
33.018780
 30
0.0
 10
-63.860269
 20
33.135182
 30
0.0
 10
-64.230514
 20
33.419363
 30
0.0
 10
-64.455243
 20
33.808787
 30
0.0
  0
SPLINE
  5
190
100
AcDbEntity
  8
Ebene_1
 62
5
100
AcDbSpline
 70
8
 71
3
 72
8
 73
4
 74
0
 40
0
 40
0
 40
0
 40
0
 40
1
 40
1
 40
1
 40
1
 10
-64.455243
 20
33.808787
 30
0.0
 10
-64.680070
 20
34.198155
 30
0.0
 10
-64.740984
 20
34.660896
 30
0.0
 10
-64.624582
 20
35.095183
 30
0.0
  0
SPLINE
  5
191
100
AcDbEntity
  8
Ebene_1
 62
5
100
AcDbSpline
 70
8
 71
3
 72
8
 73
4
 74
0
 40
0
 40
0
 40
0
 40
0
 40
1
 40
1
 40
1
 40
1
 10
-64.624582
 20
35.095183
 30
0.0
 10
-64.508180
 20
35.529469
 30
0.0
 10
-64.223998
 20
35.899714
 30
0.0
 10
-63.834574
 20
36.124443
 30
0.0
  0
SPLINE
  5
192
100
AcDbEntity
  8
Ebene_1
 62
5
100
AcDbSpline
 70
8
 71
3
 72
8
 73
4
 74
0
 40
0
 40
0
 40
0
 40
0
 40
1
 40
1
 40
1
 40
1
 10
-63.834574
 20
36.124443
 30
0.0
 10
-63.588626
 20
36.266414
 30
0.0
 10
-63.310948
 20
36.344315
 30
0.0
 10
-63.027044
 20
36.350991
 30
0.0
  0
LWPOLYLINE
  5
193
100
AcDbEntity
  8
Ebene_1
 62
5
100
AcDbPolyline
 90
2
 70
1
 10
57.785564
 20
57.097632
 30
0.0
 10
57.785564
 20
57.097632
 30
0.0
  0
SPLINE
  5
194
100
AcDbEntity
  8
Ebene_1
 62
5
100
AcDbSpline
 70
8
 71
3
 72
8
 73
4
 74
0
 40
0
 40
0
 40
0
 40
0
 40
1
 40
1
 40
1
 40
1
 10
146.326725
 20
36.347689
 30
0.0
 10
146.610629
 20
36.341013
 30
0.0
 10
146.888307
 20
36.263112
 30
0.0
 10
147.134255
 20
36.121141
 30
0.0
  0
SPLINE
  5
195
100
AcDbEntity
  8
Ebene_1
 62
5
100
AcDbSpline
 70
8
 71
3
 72
8
 73
4
 74
0
 40
0
 40
0
 40
0
 40
0
 40
1
 40
1
 40
1
 40
1
 10
147.134255
 20
36.121141
 30
0.0
 10
147.523679
 20
35.896412
 30
0.0
 10
147.807860
 20
35.526167
 30
0.0
 10
147.924263
 20
35.091881
 30
0.0
  0
SPLINE
  5
196
100
AcDbEntity
  8
Ebene_1
 62
5
100
AcDbSpline
 70
8
 71
3
 72
8
 73
4
 74
0
 40
0
 40
0
 40
0
 40
0
 40
1
 40
1
 40
1
 40
1
 10
147.924263
 20
35.091881
 30
0.0
 10
148.040665
 20
34.657594
 30
0.0
 10
147.979751
 20
34.194853
 30
0.0
 10
147.754924
 20
33.805485
 30
0.0
  0
SPLINE
  5
197
100
AcDbEntity
  8
Ebene_1
 62
5
100
AcDbSpline
 70
8
 71
3
 72
8
 73
4
 74
0
 40
0
 40
0
 40
0
 40
0
 40
1
 40
1
 40
1
 40
1
 10
147.754924
 20
33.805485
 30
0.0
 10
147.530103
 20
33.416154
 30
0.0
 10
147.159817
 20
33.132090
 30
0.0
 10
146.725539
 20
33.015793
 30
0.0
  0
SPLINE
  5
198
100
AcDbEntity
  8
Ebene_1
 62
5
100
AcDbSpline
 70
8
 71
3
 72
8
 73
4
 74
0
 40
0
 40
0
 40
0
 40
0
 40
1
 40
1
 40
1
 40
1
 10
146.725539
 20
33.015793
 30
0.0
 10
146.291260
 20
32.899496
 30
0.0
 10
145.828569
 20
32.960494
 30
0.0
 10
145.439268
 20
33.185367
 30
0.0
  0
SPLINE
  5
199
100
AcDbEntity
  8
Ebene_1
 62
5
100
AcDbSpline
 70
8
 71
3
 72
8
 73
4
 74
0
 40
0
 40
0
 40
0
 40
0
 40
1
 40
1
 40
1
 40
1
 10
145.439268
 20
33.185367
 30
0.0
 10
145.049938
 20
33.410188
 30
0.0
 10
144.765873
 20
33.780473
 30
0.0
 10
144.649576
 20
34.214752
 30
0.0
  0
SPLINE
  5
19a
100
AcDbEntity
  8
Ebene_1
 62
5
100
AcDbSpline
 70
8
 71
3
 72
8
 73
4
 74
0
 40
0
 40
0
 40
0
 40
0
 40
1
 40
1
 40
1
 40
1
 10
144.649576
 20
34.214752
 30
0.0
 10
144.533279
 20
34.649030
 30
0.0
 10
144.594277
 20
35.111722
 30
0.0
 10
144.819150
 20
35.501023
 30
0.0
  0
SPLINE
  5
19b
100
AcDbEntity
  8
Ebene_1
 62
5
100
AcDbSpline
 70
8
 71
3
 72
8
 73
4
 74
0
 40
0
 40
0
 40
0
 40
0
 40
1
 40
1
 40
1
 40
1
 10
144.819150
 20
35.501023
 30
0.0
 10
145.107701
 20
36.000769
 30
0.0
 10
145.630683
 20
36.319378
 30
0.0
 10
146.207110
 20
36.346589
 30
0.0
  0
SPLINE
  5
19c
100
AcDbEntity
  8
Ebene_1
 62
5
100
AcDbSpline
 70
8
 71
3
 72
8
 73
4
 74
0
 40
0
 40
0
 40
0
 40
0
 40
1
 40
1
 40
1
 40
1
 10
146.207110
 20
36.346589
 30
0.0
 10
146.246956
 20
36.348372
 30
0.0
 10
146.286852
 20
36.348749
 30
0.0
 10
146.326725
 20
36.347717
 30
0.0
  0
LWPOLYLINE
  5
19d
100
AcDbEntity
  8
Ebene_1
 62
5
100
AcDbPolyline
 90
2
 70
1
 10
-63.027044
 20
36.350991
 30
0.0
 10
-63.027044
 20
36.350991
 30
0.0
  0
SPLINE
  5
19e
100
AcDbEntity
  8
Ebene_1
 62
5
100
AcDbSpline
 70
8
 71
3
 72
8
 73
4
 74
0
 40
0
 40
0
 40
0
 40
0
 40
1
 40
1
 40
1
 40
1
 10
-62.841835
 20
27.357368
 30
0.0
 10
-61.629617
 20
27.357335
 30
0.0
 10
-60.646928
 20
26.374647
 30
0.0
 10
-60.646894
 20
25.162429
 30
0.0
  0
SPLINE
  5
19f
100
AcDbEntity
  8
Ebene_1
 62
5
100
AcDbSpline
 70
8
 71
3
 72
8
 73
4
 74
0
 40
0
 40
0
 40
0
 40
0
 40
1
 40
1
 40
1
 40
1
 10
-60.646894
 20
25.162429
 30
0.0
 10
-60.646928
 20
23.950212
 30
0.0
 10
-61.629617
 20
22.967524
 30
0.0
 10
-62.841835
 20
22.967491
 30
0.0
  0
SPLINE
  5
1a0
100
AcDbEntity
  8
Ebene_1
 62
5
100
AcDbSpline
 70
8
 71
3
 72
8
 73
4
 74
0
 40
0
 40
0
 40
0
 40
0
 40
1
 40
1
 40
1
 40
1
 10
-62.841835
 20
22.967491
 30
0.0
 10
-63.424060
 20
22.967361
 30
0.0
 10
-63.982484
 20
23.198553
 30
0.0
 10
-64.394230
 20
23.610196
 30
0.0
  0
SPLINE
  5
1a1
100
AcDbEntity
  8
Ebene_1
 62
5
100
AcDbSpline
 70
8
 71
3
 72
8
 73
4
 74
0
 40
0
 40
0
 40
0
 40
0
 40
1
 40
1
 40
1
 40
1
 10
-64.394230
 20
23.610196
 30
0.0
 10
-64.805977
 20
24.021839
 30
0.0
 10
-65.037310
 20
24.580205
 30
0.0
 10
-65.037327
 20
25.162429
 30
0.0
  0
SPLINE
  5
1a2
100
AcDbEntity
  8
Ebene_1
 62
5
100
AcDbSpline
 70
8
 71
3
 72
8
 73
4
 74
0
 40
0
 40
0
 40
0
 40
0
 40
1
 40
1
 40
1
 40
1
 10
-65.037327
 20
25.162429
 30
0.0
 10
-65.037310
 20
25.744654
 30
0.0
 10
-64.805977
 20
26.303019
 30
0.0
 10
-64.394230
 20
26.714663
 30
0.0
  0
SPLINE
  5
1a3
100
AcDbEntity
  8
Ebene_1
 62
5
100
AcDbSpline
 70
8
 71
3
 72
8
 73
4
 74
0
 40
0
 40
0
 40
0
 40
0
 40
1
 40
1
 40
1
 40
1
 10
-64.394230
 20
26.714663
 30
0.0
 10
-63.982484
 20
27.126306
 30
0.0
 10
-63.424060
 20
27.357498
 30
0.0
 10
-62.841835
 20
27.357368
 30
0.0
  0
LWPOLYLINE
  5
1a4
100
AcDbEntity
  8
Ebene_1
 62
5
100
AcDbPolyline
 90
2
 70
1
 10
146.326725
 20
36.347717
 30
0.0
 10
146.326725
 20
36.347689
 30
0.0
  0
SPLINE
  5
1a5
100
AcDbEntity
  8
Ebene_1
 62
5
100
AcDbSpline
 70
8
 71
3
 72
8
 73
4
 74
0
 40
0
 40
0
 40
0
 40
0
 40
1
 40
1
 40
1
 40
1
 10
146.143720
 20
27.356239
 30
0.0
 10
147.355939
 20
27.356206
 30
0.0
 10
148.338629
 20
26.373517
 30
0.0
 10
148.338661
 20
25.161298
 30
0.0
  0
SPLINE
  5
1a6
100
AcDbEntity
  8
Ebene_1
 62
5
100
AcDbSpline
 70
8
 71
3
 72
8
 73
4
 74
0
 40
0
 40
0
 40
0
 40
0
 40
1
 40
1
 40
1
 40
1
 10
148.338661
 20
25.161298
 30
0.0
 10
148.338627
 20
23.949080
 30
0.0
 10
147.355938
 20
22.966392
 30
0.0
 10
146.143720
 20
22.966360
 30
0.0
  0
SPLINE
  5
1a7
100
AcDbEntity
  8
Ebene_1
 62
5
100
AcDbSpline
 70
8
 71
3
 72
8
 73
4
 74
0
 40
0
 40
0
 40
0
 40
0
 40
1
 40
1
 40
1
 40
1
 10
146.143720
 20
22.966360
 30
0.0
 10
145.561496
 20
22.966229
 30
0.0
 10
145.003072
 20
23.197422
 30
0.0
 10
144.591325
 20
23.609065
 30
0.0
  0
SPLINE
  5
1a8
100
AcDbEntity
  8
Ebene_1
 62
5
100
AcDbSpline
 70
8
 71
3
 72
8
 73
4
 74
0
 40
0
 40
0
 40
0
 40
0
 40
1
 40
1
 40
1
 40
1
 10
144.591325
 20
23.609065
 30
0.0
 10
144.179578
 20
24.020708
 30
0.0
 10
143.948245
 20
24.579073
 30
0.0
 10
143.948229
 20
25.161298
 30
0.0
  0
SPLINE
  5
1a9
100
AcDbEntity
  8
Ebene_1
 62
5
100
AcDbSpline
 70
8
 71
3
 72
8
 73
4
 74
0
 40
0
 40
0
 40
0
 40
0
 40
1
 40
1
 40
1
 40
1
 10
143.948229
 20
25.161298
 30
0.0
 10
143.948245
 20
25.743523
 30
0.0
 10
144.179577
 20
26.301889
 30
0.0
 10
144.591324
 20
26.713533
 30
0.0
  0
SPLINE
  5
1aa
100
AcDbEntity
  8
Ebene_1
 62
5
100
AcDbSpline
 70
8
 71
3
 72
8
 73
4
 74
0
 40
0
 40
0
 40
0
 40
0
 40
1
 40
1
 40
1
 40
1
 10
144.591324
 20
26.713533
 30
0.0
 10
145.003071
 20
27.125176
 30
0.0
 10
145.561495
 20
27.356369
 30
0.0
 10
146.143720
 20
27.356239
 30
0.0
  0
LWPOLYLINE
  5
1ab
100
AcDbEntity
  8
Ebene_1
 62
5
100
AcDbPolyline
 90
2
 70
1
 10
-62.841835
 20
27.357368
 30
0.0
 10
-62.841835
 20
27.357368
 30
0.0
  0
SPLINE
  5
1ac
100
AcDbEntity
  8
Ebene_1
 62
5
100
AcDbSpline
 70
8
 71
3
 72
8
 73
4
 74
0
 40
0
 40
0
 40
0
 40
0
 40
1
 40
1
 40
1
 40
1
 10
-97.670922
 20
16.855588
 30
0.0
 10
-96.868322
 20
16.874611
 30
0.0
 10
-96.119366
 20
16.453944
 30
0.0
 10
-95.717967
 20
15.758669
 30
0.0
  0
SPLINE
  5
1ad
100
AcDbEntity
  8
Ebene_1
 62
5
100
AcDbSpline
 70
8
 71
3
 72
8
 73
4
 74
0
 40
0
 40
0
 40
0
 40
0
 40
1
 40
1
 40
1
 40
1
 10
-95.717967
 20
15.758669
 30
0.0
 10
-95.112124
 20
14.708834
 30
0.0
 10
-95.471917
 20
13.366646
 30
0.0
 10
-96.521640
 20
12.760609
 30
0.0
  0
SPLINE
  5
1ae
100
AcDbEntity
  8
Ebene_1
 62
5
100
AcDbSpline
 70
8
 71
3
 72
8
 73
4
 74
0
 40
0
 40
0
 40
0
 40
0
 40
1
 40
1
 40
1
 40
1
 10
-96.521640
 20
12.760609
 30
0.0
 10
-97.571331
 20
12.154673
 30
0.0
 10
-98.913473
 20
12.514206
 30
0.0
 10
-99.519700
 20
13.563728
 30
0.0
  0
SPLINE
  5
1af
100
AcDbEntity
  8
Ebene_1
 62
5
100
AcDbSpline
 70
8
 71
3
 72
8
 73
4
 74
0
 40
0
 40
0
 40
0
 40
0
 40
1
 40
1
 40
1
 40
1
 10
-99.519700
 20
13.563728
 30
0.0
 10
-99.810860
 20
14.067865
 30
0.0
 10
-99.889817
 20
14.667019
 30
0.0
 10
-99.739200
 20
15.229374
 30
0.0
  0
SPLINE
  5
1b0
100
AcDbEntity
  8
Ebene_1
 62
5
100
AcDbSpline
 70
8
 71
3
 72
8
 73
4
 74
0
 40
0
 40
0
 40
0
 40
0
 40
1
 40
1
 40
1
 40
1
 10
-99.739200
 20
15.229374
 30
0.0
 10
-99.588584
 20
15.791728
 30
0.0
 10
-99.220734
 20
16.271213
 30
0.0
 10
-98.716578
 20
16.562339
 30
0.0
  0
SPLINE
  5
1b1
100
AcDbEntity
  8
Ebene_1
 62
5
100
AcDbSpline
 70
8
 71
3
 72
8
 73
4
 74
0
 40
0
 40
0
 40
0
 40
0
 40
1
 40
1
 40
1
 40
1
 10
-98.716578
 20
16.562339
 30
0.0
 10
-98.398091
 20
16.746132
 30
0.0
 10
-98.038535
 20
16.846968
 30
0.0
 10
-97.670922
 20
16.855588
 30
0.0
  0
LWPOLYLINE
  5
1b2
100
AcDbEntity
  8
Ebene_1
 62
5
100
AcDbPolyline
 90
2
 70
1
 10
146.143720
 20
27.356239
 30
0.0
 10
146.143720
 20
27.356239
 30
0.0
  0
SPLINE
  5
1b3
100
AcDbEntity
  8
Ebene_1
 62
5
100
AcDbSpline
 70
8
 71
3
 72
8
 73
4
 74
0
 40
0
 40
0
 40
0
 40
0
 40
1
 40
1
 40
1
 40
1
 10
180.970053
 20
16.853895
 30
0.0
 10
181.337665
 20
16.845274
 30
0.0
 10
181.697222
 20
16.744438
 30
0.0
 10
182.015709
 20
16.560646
 30
0.0
  0
SPLINE
  5
1b4
100
AcDbEntity
  8
Ebene_1
 62
5
100
AcDbSpline
 70
8
 71
3
 72
8
 73
4
 74
0
 40
0
 40
0
 40
0
 40
0
 40
1
 40
1
 40
1
 40
1
 10
182.015709
 20
16.560646
 30
0.0
 10
182.519867
 20
16.269519
 30
0.0
 10
182.887719
 20
15.790032
 30
0.0
 10
183.038335
 20
15.227675
 30
0.0
  0
SPLINE
  5
1b5
100
AcDbEntity
  8
Ebene_1
 62
5
100
AcDbSpline
 70
8
 71
3
 72
8
 73
4
 74
0
 40
0
 40
0
 40
0
 40
0
 40
1
 40
1
 40
1
 40
1
 10
183.038335
 20
15.227675
 30
0.0
 10
183.188951
 20
14.665318
 30
0.0
 10
183.109991
 20
14.066161
 30
0.0
 10
182.818828
 20
13.562024
 30
0.0
  0
SPLINE
  5
1b6
100
AcDbEntity
  8
Ebene_1
 62
5
100
AcDbSpline
 70
8
 71
3
 72
8
 73
4
 74
0
 40
0
 40
0
 40
0
 40
0
 40
1
 40
1
 40
1
 40
1
 10
182.818828
 20
13.562024
 30
0.0
 10
182.212601
 20
12.512503
 30
0.0
 10
180.870461
 20
12.152970
 30
0.0
 10
179.820770
 20
12.758904
 30
0.0
  0
SPLINE
  5
1b7
100
AcDbEntity
  8
Ebene_1
 62
5
100
AcDbSpline
 70
8
 71
3
 72
8
 73
4
 74
0
 40
0
 40
0
 40
0
 40
0
 40
1
 40
1
 40
1
 40
1
 10
179.820770
 20
12.758904
 30
0.0
 10
178.771041
 20
13.364942
 30
0.0
 10
178.411247
 20
14.707138
 30
0.0
 10
179.017097
 20
15.756976
 30
0.0
  0
SPLINE
  5
1b8
100
AcDbEntity
  8
Ebene_1
 62
5
100
AcDbSpline
 70
8
 71
3
 72
8
 73
4
 74
0
 40
0
 40
0
 40
0
 40
0
 40
1
 40
1
 40
1
 40
1
 10
179.017097
 20
15.756976
 30
0.0
 10
179.390724
 20
16.404281
 30
0.0
 10
180.068047
 20
16.816988
 30
0.0
 10
180.814610
 20
16.852241
 30
0.0
  0
SPLINE
  5
1b9
100
AcDbEntity
  8
Ebene_1
 62
5
100
AcDbSpline
 70
8
 71
3
 72
8
 73
4
 74
0
 40
0
 40
0
 40
0
 40
0
 40
1
 40
1
 40
1
 40
1
 10
180.814610
 20
16.852241
 30
0.0
 10
180.866388
 20
16.854641
 30
0.0
 10
180.918235
 20
16.855205
 30
0.0
 10
180.970053
 20
16.853934
 30
0.0
  0
LWPOLYLINE
  5
1ba
100
AcDbEntity
  8
Ebene_1
 62
5
100
AcDbPolyline
 90
2
 70
1
 10
-97.670922
 20
16.855588
 30
0.0
 10
-97.670922
 20
16.855588
 30
0.0
  0
SPLINE
  5
1bb
100
AcDbEntity
  8
Ebene_1
 62
5
100
AcDbSpline
 70
8
 71
3
 72
8
 73
4
 74
0
 40
0
 40
0
 40
0
 40
0
 40
1
 40
1
 40
1
 40
1
 10
59.535122
 20
9.113722
 30
0.0
 10
60.747336
 20
9.113689
 30
0.0
 10
61.730023
 20
8.131008
 30
0.0
 10
61.730063
 20
6.918795
 30
0.0
  0
SPLINE
  5
1bc
100
AcDbEntity
  8
Ebene_1
 62
5
100
AcDbSpline
 70
8
 71
3
 72
8
 73
4
 74
0
 40
0
 40
0
 40
0
 40
0
 40
1
 40
1
 40
1
 40
1
 10
61.730063
 20
6.918795
 30
0.0
 10
61.730038
 20
5.706570
 30
0.0
 10
60.747347
 20
4.723872
 30
0.0
 10
59.535122
 20
4.723840
 30
0.0
  0
SPLINE
  5
1bd
100
AcDbEntity
  8
Ebene_1
 62
5
100
AcDbSpline
 70
8
 71
3
 72
8
 73
4
 74
0
 40
0
 40
0
 40
0
 40
0
 40
1
 40
1
 40
1
 40
1
 10
59.535122
 20
4.723840
 30
0.0
 10
58.322899
 20
4.723874
 30
0.0
 10
57.340209
 20
5.706572
 30
0.0
 10
57.340184
 20
6.918795
 30
0.0
  0
SPLINE
  5
1be
100
AcDbEntity
  8
Ebene_1
 62
5
100
AcDbSpline
 70
8
 71
3
 72
8
 73
4
 74
0
 40
0
 40
0
 40
0
 40
0
 40
1
 40
1
 40
1
 40
1
 10
57.340184
 20
6.918795
 30
0.0
 10
57.340224
 20
8.131007
 30
0.0
 10
58.322910
 20
9.113688
 30
0.0
 10
59.535122
 20
9.113722
 30
0.0
  0
LWPOLYLINE
  5
1bf
100
AcDbEntity
  8
Ebene_1
 62
5
100
AcDbPolyline
 90
2
 70
1
 10
180.970053
 20
16.853934
 30
0.0
 10
180.970053
 20
16.853895
 30
0.0
  0
SPLINE
  5
1c0
100
AcDbEntity
  8
Ebene_1
 62
5
100
AcDbSpline
 70
8
 71
3
 72
8
 73
4
 74
0
 40
0
 40
0
 40
0
 40
0
 40
1
 40
1
 40
1
 40
1
 10
133.897923
 20
9.110899
 30
0.0
 10
135.110147
 20
9.110865
 30
0.0
 10
136.092837
 20
8.128168
 30
0.0
 10
136.092861
 20
6.915944
 30
0.0
  0
SPLINE
  5
1c1
100
AcDbEntity
  8
Ebene_1
 62
5
100
AcDbSpline
 70
8
 71
3
 72
8
 73
4
 74
0
 40
0
 40
0
 40
0
 40
0
 40
1
 40
1
 40
1
 40
1
 10
136.092861
 20
6.915944
 30
0.0
 10
136.092821
 20
5.703732
 30
0.0
 10
135.110136
 20
4.721052
 30
0.0
 10
133.897923
 20
4.721017
 30
0.0
  0
SPLINE
  5
1c2
100
AcDbEntity
  8
Ebene_1
 62
5
100
AcDbSpline
 70
8
 71
3
 72
8
 73
4
 74
0
 40
0
 40
0
 40
0
 40
0
 40
1
 40
1
 40
1
 40
1
 10
133.897923
 20
4.721017
 30
0.0
 10
132.685710
 20
4.721050
 30
0.0
 10
131.703022
 20
5.703731
 30
0.0
 10
131.702982
 20
6.915944
 30
0.0
  0
SPLINE
  5
1c3
100
AcDbEntity
  8
Ebene_1
 62
5
100
AcDbSpline
 70
8
 71
3
 72
8
 73
4
 74
0
 40
0
 40
0
 40
0
 40
0
 40
1
 40
1
 40
1
 40
1
 10
131.702982
 20
6.915944
 30
0.0
 10
131.703007
 20
8.128169
 30
0.0
 10
132.685699
 20
9.110867
 30
0.0
 10
133.897923
 20
9.110899
 30
0.0
  0
LWPOLYLINE
  5
1c4
100
AcDbEntity
  8
Ebene_1
 62
5
100
AcDbPolyline
 90
2
 70
1
 10
59.535122
 20
9.113722
 30
0.0
 10
59.535122
 20
9.113722
 30
0.0
  0
LWPOLYLINE
  5
1c5
100
AcDbEntity
  8
Ebene_1
 62
5
100
AcDbPolyline
 90
2
 70
1
 10
133.897923
 20
9.110899
 30
0.0
 10
133.897923
 20
9.110899
 30
0.0
  0
ENDSEC
  0
SECTION
  2
OBJECTS
  0
DICTIONARY
  5
C
330
0
100
AcDbDictionary
  3
ACAD_GROUP
350
D
  3
ACAD_MLINESTYLE
350
17
  0
DICTIONARY
  5
D
330
C
100
AcDbDictionary
  0
DICTIONARY
  5
1A
330
C
100
AcDbDictionary
  0
DICTIONARY
  5
17
330
C
100
AcDbDictionary
  3
STANDARD
350
18
  0
DICTIONARY
  5
19
330
C
100
AcDbDictionary
  0
ENDSEC
  0
EOF
