<?xml version="1.0" encoding="UTF-8" standalone="no"?>
<!-- Created with Inkscape (http://www.inkscape.org/) -->

<svg
   xmlns:dc="http://purl.org/dc/elements/1.1/"
   xmlns:cc="http://creativecommons.org/ns#"
   xmlns:rdf="http://www.w3.org/1999/02/22-rdf-syntax-ns#"
   xmlns:svg="http://www.w3.org/2000/svg"
   xmlns="http://www.w3.org/2000/svg"
   xmlns:sodipodi="http://sodipodi.sourceforge.net/DTD/sodipodi-0.dtd"
   xmlns:inkscape="http://www.inkscape.org/namespaces/inkscape"
   width="359.59579mm"
   height="311.45438mm"
   viewBox="0 0 1274.1583 1103.5785"
   id="svg5018"
   version="1.1"
   inkscape:version="0.91 r13725"
   sodipodi:docname="plate_bottom_dxf.svg">
  <defs
     id="defs5020" />
  <sodipodi:namedview
     id="base"
     pagecolor="#ffffff"
     bordercolor="#666666"
     borderopacity="1.0"
     inkscape:pageopacity="0.0"
     inkscape:pageshadow="2"
     inkscape:zoom="0.175"
     inkscape:cx="1266.0232"
     inkscape:cy="579.33669"
     inkscape:document-units="px"
     inkscape:current-layer="layer1"
     showgrid="false"
     inkscape:window-width="1214"
     inkscape:window-height="1375"
     inkscape:window-x="357"
     inkscape:window-y="199"
     inkscape:window-maximized="0"
     fit-margin-top="0"
     fit-margin-left="0"
     fit-margin-right="0"
     fit-margin-bottom="0" />
  <metadata
     id="metadata5023">
    <rdf:RDF>
      <cc:Work
         rdf:about="">
        <dc:format>image/svg+xml</dc:format>
        <dc:type
           rdf:resource="http://purl.org/dc/dcmitype/StillImage" />
        <dc:title></dc:title>
      </cc:Work>
    </rdf:RDF>
  </metadata>
  <g
     inkscape:label="Ebene 1"
     inkscape:groupmode="layer"
     id="layer1"
     transform="translate(-19.063427,150.82638)">
    <path
       style="color:#000000;clip-rule:nonzero;display:inline;overflow:visible;visibility:visible;opacity:1;isolation:auto;mix-blend-mode:normal;color-interpolation:sRGB;color-interpolation-filters:linearRGB;solid-color:#000000;solid-opacity:1;fill:#000000;fill-opacity:1;fill-rule:nonzero;stroke:#0000ff;stroke-width:1;stroke-linecap:round;stroke-linejoin:round;stroke-miterlimit:4;stroke-dasharray:none;stroke-dashoffset:0;stroke-opacity:1;marker:none;color-rendering:auto;image-rendering:auto;shape-rendering:auto;text-rendering:auto;enable-background:accumulate"
       d="M 511.75697,-150.32628 351.04408,128.037 l -11.85205,-6.84277 -11.85205,-6.84277 -11.85206,-6.84278 -11.85205,-6.84277 -0.004,-0.002 -0.004,-0.002 -0.004,-0.002 -0.004,-0.002 -13.32927,-4.479757 -13.54246,0.945911 -12.19986,5.954536 -9.30146,10.54611 -4.48292,13.32868 0.94304,13.54307 5.95223,12.20144 10.54468,9.30376 0.002,0.003 0.002,0.003 0.002,0.003 0.002,0.003 11.85205,6.84277 11.85205,6.84278 11.85206,6.84277 11.85205,6.84277 -12.48975,21.63379 -12.48975,21.63379 -12.48974,21.63379 -12.48975,21.63379 -246.097651,426.25391 72.19531,125.04687 72.187501,125.03125 492.19531,0 492.19526,0 72.1895,-125.0332 72.1953,-125.04492 -246.0976,-426.25391 -12.4946,-21.6416 -12.4947,-21.6416 -12.4946,-21.6416 -12.49465,-21.6416 11.85935,-6.84717 11.8594,-6.84717 11.8593,-6.84717 11.8594,-6.84717 0,-0.002 0,-0.002 0,-0.002 0,-0.002 10.5433,-9.30322 5.9518,-12.2003 0.9435,-13.5418 -4.4815,-13.32773 0,-0.001 0,-0.002 0,-0.001 0,-0.002 -9.3015,-10.54613 -12.1998,-5.95454 -13.5425,-0.945906 -13.3293,4.479776 0,0.002 0,0.002 0,0.002 0,0.002 -11.85937,6.84717 -11.85936,6.84717 -11.85937,6.84716 -11.85936,6.84717 -160.69532,-278.33203 -144.39257,0 -144.39258,-0.002 z m 38.11914,12.74805 3.02725,0.61124 2.4721,1.66675 1.66675,2.4721 0.61124,3.02725 -0.61124,3.02725 -1.66675,2.4721 -2.4721,1.66675 -3.02725,0.61124 -3.02726,-0.61124 -2.47209,-1.66675 -1.66676,-2.47209 -0.61124,-3.02726 0.61124,-3.02726 1.66676,-2.47209 2.47209,-1.66675 z m 212.55859,0.002 3.02726,0.61124 2.47209,1.66675 1.66676,2.47209 0.61124,3.02726 -0.61124,3.02726 -1.66676,2.47209 -2.47209,1.66675 -3.02726,0.61124 -3.02725,-0.61124 -2.4721,-1.66675 -1.66675,-2.4721 -0.61124,-3.02725 0.61124,-3.02725 1.66675,-2.4721 2.4721,-1.66675 z m 0.002,143.4628862 2.33774,0.4719828 1.90903,1.2871074 1.28711,1.909028 0.47198,2.3377446 -0.47198,2.337744 -1.28711,1.909027 -1.90903,1.287107 -2.33774,0.471982 -2.33774,-0.471982 -1.90903,-1.287107 -1.28711,-1.909027 -0.47198,-2.337744 0.47198,-2.3377446 1.28711,-1.909028 1.90903,-1.2871074 z m -212.56055,0.002 2.33774,0.4719817 1.90903,1.2871049 1.28711,1.9090248 0.47198,2.3377414 -0.47198,2.337744 -1.28711,1.909027 -1.90903,1.287107 -2.33774,0.471982 -2.33774,-0.471982 -1.90903,-1.287107 -1.28711,-1.909027 -0.47198,-2.337744 0.47198,-2.3377414 1.28711,-1.9090248 1.90903,-1.2871049 z m -263.9727,117.6014638 3.02726,0.61124 2.4721,1.66675 1.66675,2.4721 0.61124,3.02726 -0.61124,3.02726 -1.66676,2.47209 -2.47209,1.66675 -3.02726,0.61124 -3.02788,-0.61068 -2.47273,-1.66662 -1.66725,-2.47231 -0.61144,-3.02773 0.61144,-3.02773 1.66724,-2.47232 2.47273,-1.66662 z m 740.49995,0 3.0273,0.61122 2.4721,1.66676 1.6668,2.4721 0.6112,3.02727 -0.6112,3.02727 -1.6668,2.4721 -2.4721,1.66675 -3.0273,0.61122 -3.0279,-0.61068 -2.4727,-1.66662 -1.6673,-2.47231 -0.6114,-3.02773 0.6114,-3.02773 1.6673,-2.47232 2.4727,-1.66662 z m -251.48237,150.58008 2.08098,0.23243 1.91207,0.76182 1.64552,1.23637 1.28135,1.6561 0.98447,2.92768 -0.20754,2.97465 -1.30792,2.67973 -2.31666,2.04294 -2.92721,0.98374 -2.97401,-0.20775 -2.67916,-1.30767 -2.04267,-2.31598 -0.98408,-2.92689 0.20726,-2.97388 1.3071,-2.67925 2.31542,-2.04302 0.87173,-0.43331 0.9154,-0.31999 0.94811,-0.2036 z m -523.99609,89.13672 1.19066,0.10311 1.164,0.24979 1.12387,0.39266 1.07029,0.53178 2.84419,2.50829 1.60574,3.29006 0.2548,3.65212 -1.20863,3.59446 -2.50864,2.84363 -3.29015,1.60517 -3.65198,0.25431 -3.59415,-1.20897 -2.84419,-2.50829 -1.60574,-3.29005 -0.2548,-3.65212 1.20863,-3.59446 1.45109,-1.91068 1.85083,-1.46967 2.15495,-0.97042 2.36344,-0.41291 0.16887,-0.006 0.16895,-0.003 0.16899,-5.1e-4 0.16898,0.002 0,5e-5 0,5e-5 0,4e-5 z m 405.22461,112.26758 5e-4,0 5e-4,0 5e-4,0 5e-4,0 5e-4,0 5e-4,0 5e-4,0 5e-4,0 13.78248,2.78332 11.25533,7.58821 7.58945,11.2545 2.78485,13.78217 -0.002,0.004 -0.002,0.004 -0.002,0.004 -0.002,0.004 0,88.57178 0,88.57178 0,88.57177 0,88.57178 -2.79289,13.77386 -7.59172,11.24581 -11.2529,7.5812 -13.77646,2.78002 -13.77648,-2.77998 -11.25294,-7.58119 -7.59174,-11.24582 -2.79291,-13.77387 0,-88.57178 0,-88.57177 0,-88.57178 0,-88.57178 0.002,-0.004 0.002,-0.004 0.002,-0.004 0.002,-0.004 2.78485,-13.78217 7.58945,-11.2545 11.25533,-7.58821 13.78248,-2.78332 -5e-5,-1e-5 -4e-5,0 -5e-5,-10e-6 z m 253.39257,31.77539 2.08098,0.23243 1.91207,0.76182 1.64552,1.23637 1.28135,1.6561 0.98447,2.92768 -0.20754,2.97465 -1.30792,2.67973 -2.31666,2.04294 -2.92721,0.98374 -2.97401,-0.20775 -2.67916,-1.30767 -2.04267,-2.31598 -0.98481,-2.92737 0.20705,-2.97452 1.30735,-2.67982 2.31611,-2.04329 0.87183,-0.4328 0.91543,-0.31949 0.94808,-0.20311 z m -747.1914,9.34961 1.19066,0.10311 1.164,0.24979 1.12387,0.39266 1.07029,0.53178 2.84295,2.50837 1.60492,3.28958 0.25452,3.65135 -1.20824,3.59367 -2.50802,2.84351 -3.28949,1.60548 -3.65148,0.25501 -3.59398,-1.2079 -2.84419,-2.50829 -1.60574,-3.29006 -0.2548,-3.65212 1.20863,-3.59446 1.45073,-1.91035 1.85034,-1.46954 2.1544,-0.97051 2.36289,-0.41327 0.16936,-0.007 0.16944,-0.004 0.16947,-4.9e-4 0.16947,0.003 0,5e-5 0,5e-5 0,4e-5 z m 970.14448,38.69336 13.785,2.78354 11.2569,7.59005 7.5894,11.25726 2.7828,13.78516 -2.7828,13.78516 -7.5894,11.25726 -11.2569,7.59006 -13.785,2.78354 -12.6962,-2.36489 -10.7073,-6.50859 -7.7795,-9.82283 -3.9127,-12.3076 -1.0205,0 -1.0205,0 -1.0205,0 -1.0205,0 0,-2.20605 0,-2.20606 0,-2.20605 0,-2.20606 1.0181,0 1.018,0 1.0181,0 1.0181,0 3.9139,-12.30983 7.7819,-9.82379 10.7104,-6.50796 z m -953.5312,92.75586 1.60706,0.17957 1.47658,0.58842 1.2707,0.95491 0.98941,1.27905 0.7603,2.26091 -0.16028,2.29718 -1.0101,2.06941 -1.78914,1.57758 -2.26043,0.75958 -2.29655,-0.1605 -2.06884,-1.00984 -1.57731,-1.78846 -0.75992,-2.26012 0.16001,-2.29641 1.00928,-2.06892 1.7879,-1.57767 0.67317,-0.33483 0.70693,-0.24732 0.73221,-0.15741 z m 954.3672,0.008 0.749,0.0651 0.7322,0.15741 0.7069,0.24732 0.6732,0.33483 1.7891,1.57758 1.0101,2.06941 0.1603,2.29718 -0.7603,2.26091 -1.5779,1.78859 -2.0695,1.00954 -2.2971,0.15979 -2.2606,-0.76066 -1.7885,-1.57732 -1.0098,-2.06883 -0.1605,-2.29655 0.7596,-2.26042 0.9123,-1.20219 1.1639,-0.92485 1.3552,-0.61084 1.4866,-0.26017 0.1064,-0.004 0.1064,-0.002 0.1065,-5.5e-4 0.1065,10e-4 0,4e-5 0,3e-5 0,4e-5 z m -1077.115251,69.07012 2.080738,0.23206 1.911971,0.76134 1.645595,1.23584 1.281616,1.65553 0.984466,2.92768 -0.207538,2.97465 -1.307915,2.67973 -2.316663,2.04294 -2.927375,0.98481 -2.974516,-0.20705 -2.67982,-1.30735 -2.043289,-2.31611 -0.984466,-2.92768 0.207538,-2.97465 1.307915,-2.67973 2.316663,-2.04294 0.87183,-0.4328 0.915434,-0.31949 0.948073,-0.20312 z m 1199.869151,0.008 0.9697,0.0837 0.9481,0.20311 0.9155,0.3195 0.8718,0.4328 2.3161,2.04329 1.3074,2.67982 0.207,2.97452 -0.9848,2.92737 -2.043,2.31544 -2.6793,1.30711 -2.9739,0.20725 -2.9269,-0.9841 -2.316,-2.04268 -1.3076,-2.67917 -0.2078,-2.974 0.9838,-2.9272 1.1817,-1.55642 1.5073,-1.19726 1.7551,-0.79063 1.925,-0.33655 0.1376,-0.005 0.1377,-0.003 0.1378,-2.8e-4 0.1377,0.002 0,4e-5 0,3e-5 0,4e-5 z m -249.6055,41.47266 3.0273,0.61122 2.4721,1.66675 1.6668,2.4721 0.6112,3.02727 -0.6112,3.02727 -1.6668,2.4721 -2.4721,1.66676 -3.0273,0.61122 -3.0272,-0.61125 -2.4721,-1.66676 -1.66679,-2.47209 -0.61123,-3.02725 0.61124,-3.02725 1.66678,-2.47209 2.4721,-1.66675 z m -293.15623,0.0117 3.02726,0.61124 2.47209,1.66675 1.66676,2.47209 0.61124,3.02726 -0.61124,3.02726 -1.66675,2.4721 -2.4721,1.66675 -3.02726,0.61124 -3.02726,-0.61124 -2.47209,-1.66676 -1.66675,-2.47209 -0.61124,-3.02726 0.61124,-3.02725 1.66675,-2.4721 2.4721,-1.66675 z m -428.07617,73.51172 1.60651,0.17996 1.47603,0.58853 1.2702,0.95478 0.98906,1.27868 0.76065,2.2606 -0.1598,2.29705 -1.00954,2.0695 -1.78858,1.57793 -2.26091,0.7603 -2.29718,-0.16028 -2.06941,-1.0101 -1.57758,-1.78914 -0.7603,-2.26091 0.16028,-2.29718 1.0101,-2.06941 1.78914,-1.57758 0.67327,-0.33432 0.70696,-0.24682 0.73218,-0.15692 z m 741.8047,0.0117 0.7489,0.0647 0.7322,0.15693 0.7069,0.24681 0.6733,0.33432 1.7891,1.57758 1.0101,2.06941 0.1603,2.29718 -0.7603,2.26091 -1.5779,1.78855 -2.0695,1.00953 -2.297,0.15981 -2.2606,-0.76062 -1.7886,-1.57793 -1.0095,-2.06949 -0.1598,-2.29705 0.7606,-2.26061 0.9126,-1.20163 1.1639,-0.9243 1.3552,-0.61037 1.4863,-0.2598 0.1059,-0.004 0.106,-0.002 0.1059,-6e-5 0.106,0.002 0,3e-5 0,2e-5 0,3e-5 z m -741.14845,31.85547 3.02726,0.61124 2.47209,1.66675 1.66676,2.47209 0.61124,3.02726 -0.61124,3.02726 -1.66676,2.47209 -2.47209,1.66675 -3.02726,0.61124 -3.02788,-0.61068 -2.47273,-1.66662 -1.66725,-2.47231 -0.61144,-3.02773 0.61144,-3.02773 1.66725,-2.47231 2.47273,-1.66662 z m 740.49995,0.004 3.0273,0.61122 2.4721,1.66676 1.6668,2.4721 0.6112,3.02727 -0.6112,3.02727 -1.6668,2.4721 -2.4721,1.66675 -3.0273,0.61122 -3.0279,-0.61068 -2.4727,-1.66662 -1.6673,-2.47231 -0.6114,-3.02773 0.6114,-3.02773 1.6673,-2.47232 2.4727,-1.66662 z m -863.9101,37.20703 2.08098,0.23243 1.91207,0.76182 1.64552,1.23637 1.28135,1.6561 0.98376,2.92722 -0.20775,2.97403 -1.30767,2.67918 -2.316,2.04267 -2.92689,0.98408 -2.97388,-0.20726 -2.67926,-1.3071 -2.04302,-2.31542 -0.98483,-2.92739 0.20705,-2.97453 1.30736,-2.67984 2.31613,-2.04329 0.87183,-0.4328 0.91543,-0.31949 0.94808,-0.20312 z m 987.3105,0.006 0.9697,0.0837 0.9481,0.20311 0.9155,0.3195 0.8718,0.4328 2.3161,2.0433 1.3074,2.67983 0.207,2.97453 -0.9848,2.92739 -2.043,2.31541 -2.6793,1.30709 -2.9738,0.20727 -2.9269,-0.98407 -2.316,-2.04267 -1.3077,-2.67918 -0.2078,-2.97403 0.9838,-2.92722 1.1817,-1.55644 1.5074,-1.19726 1.7551,-0.79063 1.925,-0.33653 0.1376,-0.005 0.1377,-0.003 0.1377,-2.8e-4 0.1377,0.002 0,4e-5 0,3e-5 0,4e-5 z m -430.28121,27.42582 3.02725,0.61123 2.47209,1.66675 1.66676,2.47208 0.61125,3.02724 -0.61122,3.02728 -1.66676,2.47211 -2.4721,1.66677 -3.02727,0.61124 -3.02727,-0.61125 -2.4721,-1.66677 -1.66675,-2.47211 -0.61122,-3.02727 0.61125,-3.02724 1.66676,-2.47208 2.47209,-1.66674 z m 263.49024,0.01 3.02727,0.61125 2.4721,1.66677 1.66675,2.47211 0.61122,3.02727 -0.61125,3.02724 -1.66676,2.47208 -2.47209,1.66674 -3.02724,0.61124 -3.02725,-0.61123 -2.47209,-1.66675 -1.66676,-2.47208 -0.61125,-3.02724 0.61122,-3.02728 1.66676,-2.47211 2.4721,-1.66677 z"
       id="path5485-7-5-3"
       inkscape:connector-curvature="0"
       sodipodi:nodetypes="cccccccccccccccccccccccccccccccccccccccccccccccccccccccccccccccccccccccccccccccccccccccccccccccccccccccccccccccccccccccccccccccccccccccccccccccccccccccccccccccccccccccccccccccccccccccccccccccccccccccccccccccccccccccccccccccccccccccccccccccccccccccccccccccccccccccccccccccccccccccccccccccccccccccccccccccccccccccccccccccccccccccccccccccccccccccccccccccccccccccccccccccccccccccccccccccccccccccccccccccccccccccccccccccccccccccccccccccccccccccccccccccccccccccccccccccccccccccccccccccccccccccccccccccccccccccccccccccccccccccccccccccccccccccccccccccccccccccccccccccccccccccccccccccccccccccccccccccccccccccccccccccccccccccccccccccccccccccccccccccccccccccccccc" />
  </g>
</svg>
