<?xml version="1.0" encoding="UTF-8" standalone="no"?>
<!-- Created with Inkscape (http://www.inkscape.org/) -->

<svg
   xmlns:dc="http://purl.org/dc/elements/1.1/"
   xmlns:cc="http://creativecommons.org/ns#"
   xmlns:rdf="http://www.w3.org/1999/02/22-rdf-syntax-ns#"
   xmlns:svg="http://www.w3.org/2000/svg"
   xmlns="http://www.w3.org/2000/svg"
   xmlns:sodipodi="http://sodipodi.sourceforge.net/DTD/sodipodi-0.dtd"
   xmlns:inkscape="http://www.inkscape.org/namespaces/inkscape"
   width="210mm"
   height="297mm"
   viewBox="0 0 744.09448819 1052.3622047"
   id="svg5018"
   version="1.1"
   inkscape:version="0.91 r13725"
   sodipodi:docname="plate_bottom.svg">
  <defs
     id="defs5020" />
  <sodipodi:namedview
     id="base"
     pagecolor="#ffffff"
     bordercolor="#666666"
     borderopacity="1.0"
     inkscape:pageopacity="0.0"
     inkscape:pageshadow="2"
     inkscape:zoom="0.98994949"
     inkscape:cx="72.325464"
     inkscape:cy="488.93249"
     inkscape:document-units="px"
     inkscape:current-layer="layer1"
     showgrid="false"
     inkscape:window-width="2989"
     inkscape:window-height="1705"
     inkscape:window-x="75"
     inkscape:window-y="-8"
     inkscape:window-maximized="1" />
  <metadata
     id="metadata5023">
    <rdf:RDF>
      <cc:Work
         rdf:about="">
        <dc:format>image/svg+xml</dc:format>
        <dc:type
           rdf:resource="http://purl.org/dc/dcmitype/StillImage" />
        <dc:title></dc:title>
      </cc:Work>
    </rdf:RDF>
  </metadata>
  <g
     inkscape:label="Ebene 1"
     inkscape:groupmode="layer"
     id="layer1">
    <path
       style="color:#000000;clip-rule:nonzero;display:inline;overflow:visible;visibility:visible;opacity:1;isolation:auto;mix-blend-mode:normal;color-interpolation:sRGB;color-interpolation-filters:linearRGB;solid-color:#000000;solid-opacity:1;fill:#000000;fill-opacity:1;fill-rule:nonzero;stroke:#0000ff;stroke-width:1;stroke-linecap:round;stroke-linejoin:round;stroke-miterlimit:4;stroke-dasharray:none;stroke-dashoffset:0;stroke-opacity:1;marker:none;color-rendering:auto;image-rendering:auto;shape-rendering:auto;text-rendering:auto;enable-background:accumulate"
       d="M 3.1856014,-58.897719 -157.52729,219.46556 -204.9355,192.09447 a 35.415353,35.41536 0 0 0 -0.0156,-0.008 35.415353,35.41536 0 0 0 -48.37305,12.9668 35.415353,35.41536 0 0 0 12.95703,48.37695 35.415353,35.41536 0 0 0 0.008,0.0117 l 47.40821,27.37109 -49.95899,86.53516 -246.09765,426.25391 72.19531,125.04687 72.1875,125.03125 492.19531,0 492.19531,0 72.18946,-125.0332 72.19531,-125.04492 -246.09766,-426.25391 -49.97851,-86.5664 47.4375,-27.38868 a 35.415353,35.41536 0 0 0 0.0156,-0.01 35.415353,35.41536 0 0 0 12.95704,-48.37305 l 0.008,-0.006 a 35.415353,35.41536 0 0 0 -48.37305,-12.9668 35.415353,35.41536 0 0 0 -0.0156,0.01 l -47.4375,27.38867 -160.69532,-278.332026 -144.39257,0 -144.3925786,-0.002 z m 38.1191396,12.748046 a 7.7775593,7.7775583 0 0 1 7.77734,7.777344 7.7775593,7.7775583 0 0 1 -7.77734,7.777344 7.7775593,7.7775583 0 0 1 -7.77735,-7.777344 7.7775593,7.7775583 0 0 1 7.77735,-7.777344 z m 212.558589,0.002 a 7.7775593,7.7775583 0 0 1 7.77735,7.777343 7.7775593,7.7775583 0 0 1 -7.77735,7.777344 7.7775593,7.7775583 0 0 1 -7.77734,-7.777344 7.7775593,7.7775583 0 0 1 7.77734,-7.777343 z m 0.002,143.46289 a 6.0059061,6.0059061 0 0 1 6.00586,6.005859 6.0059061,6.0059061 0 0 1 -6.00586,6.00586 6.0059061,6.0059061 0 0 1 -6.00586,-6.00586 6.0059061,6.0059061 0 0 1 6.00586,-6.005859 z m -212.560549,0.002 a 6.0059061,6.0059061 0 0 1 6.00586,6.005856 6.0059061,6.0059061 0 0 1 -6.00586,6.00586 6.0059061,6.0059061 0 0 1 -6.00586,-6.00586 6.0059061,6.0059061 0 0 1 6.00586,-6.005856 z M -222.66792,214.91868 a 7.7775593,7.7775583 0 0 1 7.77735,7.77735 7.7775593,7.7775583 0 0 1 -7.77735,7.77734 7.7775593,7.7775583 0 0 1 -7.7793,-7.77734 7.7775593,7.7775583 0 0 1 7.7793,-7.77735 z m 740.5,0 a 7.7775593,7.7775583 0 0 1 7.77735,7.77735 7.7775593,7.7775583 0 0 1 -7.77735,7.77734 7.7775593,7.7775583 0 0 1 -7.7793,-7.77734 7.7775593,7.7775583 0 0 1 7.7793,-7.77735 z M 266.34966,365.49876 a 7.7775589,7.7775587 0 0 1 6.91992,3.88672 7.7775589,7.7775587 0 0 1 -2.84765,10.625 7.7775589,7.7775587 0 0 1 -10.62305,-2.84766 7.7775589,7.7775587 0 0 1 2.8457,-10.62304 7.7775589,7.7775587 0 0 1 3.70508,-1.04102 z m -523.99609,89.13672 a 9.5492123,9.5492126 0 0 1 4.54882,1.27734 9.5492123,9.5492126 0 0 1 3.4961,13.04493 9.5492123,9.5492126 0 0 1 -13.04492,3.49414 9.5492123,9.5492126 0 0 1 -3.4961,-13.04492 9.5492123,9.5492126 0 0 1 7.82031,-4.76368 9.5492123,9.5492126 0 0 1 0.67579,-0.008 z m 405.22461,112.26758 0.002,0 0.002,0 a 35.415353,35.41536 0 0 1 35.41211,35.4082 35.415353,35.41536 0 0 1 -0.008,0.0156 l 0,354.28711 A 35.415353,35.41536 0 0 1 147.57232,991.99486 35.415353,35.41536 0 0 1 112.15825,956.614 l 0,-354.28711 a 35.415353,35.41536 0 0 1 0.008,-0.0156 35.415353,35.41536 0 0 1 35.41211,-35.4082 z m 253.39257,31.77539 a 7.7775589,7.7775587 0 0 1 6.91992,3.88672 7.7775589,7.7775587 0 0 1 -2.84765,10.625 7.7775589,7.7775587 0 0 1 -10.62305,-2.84766 7.7775589,7.7775587 0 0 1 2.8457,-10.625 7.7775589,7.7775587 0 0 1 3.70508,-1.03906 z m -747.1914,9.34961 a 9.5492123,9.5492126 0 0 1 4.54882,1.27734 9.5492123,9.5492126 0 0 1 3.49415,13.04297 9.5492123,9.5492126 0 0 1 -13.04297,3.4961 9.5492123,9.5492126 0 0 1 -3.4961,-13.04493 9.5492123,9.5492126 0 0 1 7.81836,-4.76367 9.5492123,9.5492126 0 0 1 0.67774,-0.008 z m 970.14453,38.69336 a 35.415357,35.415356 0 0 1 35.41406,35.41601 35.415357,35.415356 0 0 1 -35.41406,35.41602 35.415357,35.415356 0 0 1 -35.09571,-31.00391 l -4.08203,0 0,-8.82422 4.07227,0 a 35.415357,35.415356 0 0 1 35.10547,-31.0039 z m -953.53125,92.75586 a 6.0059057,6.0059056 0 0 1 5.34375,3.00195 6.0059057,6.0059056 0 0 1 -2.19922,8.20508 6.0059057,6.0059056 0 0 1 -8.20313,-2.19922 6.0059057,6.0059056 0 0 1 2.19727,-8.20312 6.0059057,6.0059056 0 0 1 2.86133,-0.80469 z m 954.36719,0.008 a 6.0059056,6.0059057 0 0 1 2.86132,0.80469 6.0059056,6.0059057 0 0 1 2.19922,8.20508 6.0059056,6.0059057 0 0 1 -8.20508,2.19726 6.0059056,6.0059057 0 0 1 -2.19921,-8.20312 6.0059056,6.0059057 0 0 1 4.91796,-2.99805 6.0059056,6.0059057 0 0 1 0.42579,-0.006 z M -452.35542,808.5554 a 7.7775589,7.7775587 0 0 1 6.91992,3.88477 7.7775589,7.7775587 0 0 1 -2.84765,10.625 7.7775589,7.7775587 0 0 1 -10.625,-2.8457 7.7775589,7.7775587 0 0 1 2.84765,-10.625 7.7775589,7.7775587 0 0 1 3.70508,-1.03907 z m 1199.86914,0.008 a 7.7775587,7.7775589 0 0 1 3.70508,1.03907 7.7775587,7.7775589 0 0 1 2.8457,10.625 7.7775587,7.7775589 0 0 1 -10.62304,2.8457 7.7775587,7.7775589 0 0 1 -2.84766,-10.62305 7.7775587,7.7775589 0 0 1 6.36914,-3.88086 7.7775587,7.7775589 0 0 1 0.55078,-0.006 z m -249.60547,41.47266 a 7.7775593,7.7775583 0 0 1 7.77735,7.77734 7.7775593,7.7775583 0 0 1 -7.77735,7.77735 7.7775593,7.7775583 0 0 1 -7.77734,-7.77735 7.7775593,7.7775583 0 0 1 7.77734,-7.77734 z m -293.15625,0.0117 a 7.7775593,7.7775583 0 0 1 7.77735,7.77734 7.7775593,7.7775583 0 0 1 -7.77735,7.77735 7.7775593,7.7775583 0 0 1 -7.77734,-7.77735 7.7775593,7.7775583 0 0 1 7.77734,-7.77734 z m -428.07617,73.51172 a 6.0059057,6.0059056 0 0 1 5.3418,3.00195 6.0059057,6.0059056 0 0 1 -2.19727,8.20508 6.0059057,6.0059056 0 0 1 -8.20508,-2.19922 6.0059057,6.0059056 0 0 1 2.19922,-8.20508 6.0059057,6.0059056 0 0 1 2.86133,-0.80273 z m 741.80469,0.0117 a 6.0059056,6.0059057 0 0 1 2.86133,0.80273 6.0059056,6.0059057 0 0 1 2.19922,8.20508 6.0059056,6.0059057 0 0 1 -8.20508,2.19727 6.0059056,6.0059057 0 0 1 -2.19727,-8.20508 6.0059056,6.0059057 0 0 1 4.91797,-2.9961 6.0059056,6.0059057 0 0 1 0.42383,-0.004 z m -741.14844,31.85547 a 7.7775593,7.7775583 0 0 1 7.77735,7.77734 7.7775593,7.7775583 0 0 1 -7.77735,7.77734 7.7775593,7.7775583 0 0 1 -7.7793,-7.77734 7.7775593,7.7775583 0 0 1 7.7793,-7.77734 z m 740.5,0.004 a 7.7775593,7.7775583 0 0 1 7.77735,7.77735 7.7775593,7.7775583 0 0 1 -7.77735,7.77734 7.7775593,7.7775583 0 0 1 -7.7793,-7.77734 7.7775593,7.7775583 0 0 1 7.7793,-7.77735 z m -863.91015,37.20703 a 7.7775589,7.7775587 0 0 1 6.91992,3.88672 7.7775589,7.7775587 0 0 1 -2.84766,10.62305 7.7775589,7.7775587 0 0 1 -10.62305,-2.8457 7.7775589,7.7775587 0 0 1 2.84571,-10.625 7.7775589,7.7775587 0 0 1 3.70508,-1.03907 z m 987.31054,0.006 a 7.7775587,7.7775589 0 0 1 3.70508,1.03907 7.7775587,7.7775589 0 0 1 2.8457,10.62504 7.7775587,7.7775589 0 0 1 -10.62304,2.8457 7.7775587,7.7775589 0 0 1 -2.84766,-10.62309 7.7775587,7.7775589 0 0 1 6.36914,-3.88086 7.7775587,7.7775589 0 0 1 0.55078,-0.006 z m -430.28125,27.42581 a 7.7775593,7.7775583 0 0 1 7.77735,7.7773 7.7775593,7.7775583 0 0 1 -7.77735,7.7774 7.7775593,7.7775583 0 0 1 -7.77734,-7.7774 7.7775593,7.7775583 0 0 1 7.77734,-7.7773 z m 263.49024,0.01 a 7.7775593,7.7775583 0 0 1 7.77734,7.7774 7.7775593,7.7775583 0 0 1 -7.77734,7.7773 7.7775593,7.7775583 0 0 1 -7.77735,-7.7773 7.7775593,7.7775583 0 0 1 7.77735,-7.7774 z"
       id="path5485-7-5-3"
       inkscape:connector-curvature="0" />
  </g>
</svg>
