<?xml version="1.0" encoding="UTF-8" standalone="no"?>
<!-- Created with Inkscape (http://www.inkscape.org/) -->

<svg
   xmlns:dc="http://purl.org/dc/elements/1.1/"
   xmlns:cc="http://creativecommons.org/ns#"
   xmlns:rdf="http://www.w3.org/1999/02/22-rdf-syntax-ns#"
   xmlns:svg="http://www.w3.org/2000/svg"
   xmlns="http://www.w3.org/2000/svg"
   xmlns:sodipodi="http://sodipodi.sourceforge.net/DTD/sodipodi-0.dtd"
   xmlns:inkscape="http://www.inkscape.org/namespaces/inkscape"
   width="210mm"
   height="297mm"
   viewBox="0 0 744.09448819 1052.3622047"
   id="svg4160"
   version="1.1"
   inkscape:version="0.91 r13725"
   sodipodi:docname="plate_top.svg">
  <defs
     id="defs4162" />
  <sodipodi:namedview
     id="base"
     pagecolor="#ffffff"
     bordercolor="#666666"
     borderopacity="1.0"
     inkscape:pageopacity="0.0"
     inkscape:pageshadow="2"
     inkscape:zoom="0.98994949"
     inkscape:cx="313.15836"
     inkscape:cy="547.21697"
     inkscape:document-units="px"
     inkscape:current-layer="layer1"
     showgrid="false"
     inkscape:window-width="2989"
     inkscape:window-height="1705"
     inkscape:window-x="75"
     inkscape:window-y="-8"
     inkscape:window-maximized="1" />
  <metadata
     id="metadata4165">
    <rdf:RDF>
      <cc:Work
         rdf:about="">
        <dc:format>image/svg+xml</dc:format>
        <dc:type
           rdf:resource="http://purl.org/dc/dcmitype/StillImage" />
        <dc:title></dc:title>
      </cc:Work>
    </rdf:RDF>
  </metadata>
  <g
     inkscape:label="Ebene 1"
     inkscape:groupmode="layer"
     id="layer1">
    <path
       style="color:#000000;clip-rule:nonzero;display:inline;overflow:visible;visibility:visible;opacity:1;isolation:auto;mix-blend-mode:normal;color-interpolation:sRGB;color-interpolation-filters:linearRGB;solid-color:#000000;solid-opacity:1;fill:#000000;fill-opacity:1;fill-rule:nonzero;stroke:#0000ff;stroke-width:1;stroke-linecap:round;stroke-linejoin:round;stroke-miterlimit:4;stroke-dasharray:none;stroke-dashoffset:0;stroke-opacity:1;marker:none;color-rendering:auto;image-rendering:auto;shape-rendering:auto;text-rendering:auto;enable-background:accumulate"
       d="M 164.17969 -138.92383 L -81.910156 287.31641 L -328.00781 713.57031 L -255.8125 838.61719 L -183.625 963.65039 L 308.57031 963.65039 L 800.76758 963.64844 L 872.95508 838.61719 L 945.15039 713.57031 L 699.05273 287.31641 L 452.96289 -138.92383 L 308.57227 -138.92383 L 164.17969 -138.92383 z M 202.29688 -126.17383 A 7.7775593 7.7775583 0 0 1 210.07422 -118.39648 A 7.7775593 7.7775583 0 0 1 202.29688 -110.61914 A 7.7775593 7.7775583 0 0 1 194.51953 -118.39648 A 7.7775593 7.7775583 0 0 1 202.29688 -126.17383 z M 414.85547 -126.17188 A 7.7775593 7.7775583 0 0 1 422.63281 -118.39453 A 7.7775593 7.7775583 0 0 1 414.85547 -110.61719 A 7.7775593 7.7775583 0 0 1 407.07812 -118.39453 A 7.7775593 7.7775583 0 0 1 414.85547 -126.17188 z M 445.45508 -82.59375 A 9.5492125 9.5492124 0 0 1 454.46094 -74.529297 A 9.5492125 9.5492124 0 0 1 446.50195 -63.621094 A 9.5492125 9.5492124 0 0 1 435.5918 -71.580078 A 9.5492125 9.5492124 0 0 1 443.55078 -82.490234 A 9.5492125 9.5492124 0 0 1 445.45508 -82.59375 z M 414.85742 17.289062 A 6.0059061 6.0059061 0 0 1 420.86328 23.294922 A 6.0059061 6.0059061 0 0 1 414.85742 29.300781 A 6.0059061 6.0059061 0 0 1 408.85156 23.294922 A 6.0059061 6.0059061 0 0 1 414.85742 17.289062 z M 202.29688 17.292969 A 6.0059061 6.0059061 0 0 1 208.30273 23.298828 A 6.0059061 6.0059061 0 0 1 202.29688 29.304688 A 6.0059061 6.0059061 0 0 1 196.29102 23.298828 A 6.0059061 6.0059061 0 0 1 202.29688 17.292969 z M 472.80664 92.410156 A 9.5492125 9.5492124 0 0 1 481.8125 100.47461 A 9.5492125 9.5492124 0 0 1 473.85352 111.38477 A 9.5492125 9.5492124 0 0 1 462.94336 103.42383 A 9.5492125 9.5492124 0 0 1 470.90234 92.515625 A 9.5492125 9.5492124 0 0 1 472.80664 92.410156 z M 642.45117 250.77734 A 7.7775588 7.7775593 0 0 1 649.37109 254.66406 A 7.7775588 7.7775593 0 0 1 646.52344 265.28711 A 7.7775588 7.7775593 0 0 1 635.90039 262.44141 A 7.7775588 7.7775593 0 0 1 638.74609 251.81641 A 7.7775588 7.7775593 0 0 1 642.45117 250.77734 z M -25.070312 250.9082 A 7.7775593 7.7775588 0 0 1 -21.365234 251.94727 A 7.7775593 7.7775588 0 0 1 -18.517578 262.57031 A 7.7775593 7.7775588 0 0 1 -29.142578 265.41797 A 7.7775593 7.7775588 0 0 1 -31.990234 254.79297 A 7.7775593 7.7775588 0 0 1 -25.621094 250.91406 A 7.7775593 7.7775588 0 0 1 -25.070312 250.9082 z M 695.58398 342.80664 A 7.7775588 7.7775593 0 0 1 702.50391 346.69336 A 7.7775588 7.7775593 0 0 1 699.65625 357.31641 A 7.7775588 7.7775593 0 0 1 689.0332 354.4707 A 7.7775588 7.7775593 0 0 1 691.87891 343.8457 A 7.7775588 7.7775593 0 0 1 695.58398 342.80664 z M -78.203125 342.93555 A 7.7775593 7.7775588 0 0 1 -74.498047 343.97461 A 7.7775593 7.7775588 0 0 1 -71.650391 354.59961 A 7.7775593 7.7775588 0 0 1 -82.275391 357.44531 A 7.7775593 7.7775588 0 0 1 -85.121094 346.82031 A 7.7775593 7.7775588 0 0 1 -78.753906 342.94141 A 7.7775593 7.7775588 0 0 1 -78.203125 342.93555 z M 308.57617 511.01562 A 1.753937 1.753937 0 0 1 310.33008 512.76953 A 1.753937 1.753937 0 0 1 308.57617 514.52344 A 1.753937 1.753937 0 0 1 306.82227 512.76953 A 1.753937 1.753937 0 0 1 308.57617 511.01562 z M 785.75 659.45508 A 6.0059055 6.0059057 0 0 1 788.61133 660.25781 A 6.0059055 6.0059057 0 0 1 790.80859 668.46289 A 6.0059055 6.0059057 0 0 1 782.60547 670.66016 A 6.0059055 6.0059057 0 0 1 780.40625 662.45703 A 6.0059055 6.0059057 0 0 1 785.32422 659.46094 A 6.0059055 6.0059057 0 0 1 785.75 659.45508 z M -168.60938 659.46289 A 6.0059057 6.0059056 0 0 1 -163.26562 662.46484 A 6.0059057 6.0059056 0 0 1 -165.46484 670.66797 A 6.0059057 6.0059056 0 0 1 -173.66797 668.4707 A 6.0059057 6.0059056 0 0 1 -171.4707 660.26562 A 6.0059057 6.0059056 0 0 1 -168.60938 659.46289 z M 908.50195 728.53125 A 7.7775587 7.7775589 0 0 1 912.20703 729.57031 A 7.7775587 7.7775589 0 0 1 915.05469 740.19531 A 7.7775587 7.7775589 0 0 1 904.42969 743.04297 A 7.7775587 7.7775589 0 0 1 901.58398 732.41797 A 7.7775587 7.7775589 0 0 1 907.95117 728.53711 A 7.7775587 7.7775589 0 0 1 908.50195 728.53125 z M -291.35742 728.53906 A 7.7775589 7.7775587 0 0 1 -284.4375 732.42578 A 7.7775589 7.7775587 0 0 1 -287.28516 743.05078 A 7.7775589 7.7775587 0 0 1 -297.9082 740.20312 A 7.7775589 7.7775587 0 0 1 -295.0625 729.58008 A 7.7775589 7.7775587 0 0 1 -291.35742 728.53906 z M 679.4707 843.53906 A 6.0059055 6.0059057 0 0 1 682.33203 844.3418 A 6.0059055 6.0059057 0 0 1 684.5293 852.54688 A 6.0059055 6.0059057 0 0 1 676.32617 854.74414 A 6.0059055 6.0059057 0 0 1 674.12695 846.54102 A 6.0059055 6.0059057 0 0 1 679.04492 843.54492 A 6.0059055 6.0059057 0 0 1 679.4707 843.53906 z M -62.326172 843.54492 A 6.0059057 6.0059056 0 0 1 -56.982422 846.54492 A 6.0059057 6.0059056 0 0 1 -59.181641 854.75 A 6.0059057 6.0059056 0 0 1 -67.384766 852.55078 A 6.0059057 6.0059056 0 0 1 -65.1875 844.34766 A 6.0059057 6.0059056 0 0 1 -62.326172 843.54492 z M 802.2207 912.61133 A 7.7775587 7.7775589 0 0 1 805.92578 913.65039 A 7.7775587 7.7775589 0 0 1 808.77344 924.27539 A 7.7775587 7.7775589 0 0 1 798.14844 927.12305 A 7.7775587 7.7775589 0 0 1 795.30273 916.49805 A 7.7775587 7.7775589 0 0 1 801.66992 912.61719 A 7.7775587 7.7775589 0 0 1 802.2207 912.61133 z M -185.08008 912.62109 A 7.7775589 7.7775587 0 0 1 -178.16016 916.50781 A 7.7775589 7.7775587 0 0 1 -181.00781 927.13281 A 7.7775589 7.7775587 0 0 1 -191.63086 924.28516 A 7.7775589 7.7775587 0 0 1 -188.78516 913.66016 A 7.7775589 7.7775587 0 0 1 -185.08008 912.62109 z M 252.99023 920.82227 A 7.7775598 7.7775593 0 0 1 260.76758 928.60156 A 7.7775598 7.7775593 0 0 1 252.99023 936.37891 A 7.7775598 7.7775593 0 0 1 245.21289 928.60156 A 7.7775598 7.7775593 0 0 1 252.99023 920.82227 z M 359.25586 920.82227 A 7.7775598 7.7775593 0 0 1 367.0332 928.60156 A 7.7775598 7.7775593 0 0 1 359.25586 936.37891 A 7.7775598 7.7775593 0 0 1 351.47852 928.60156 A 7.7775598 7.7775593 0 0 1 359.25586 920.82227 z "
       id="path5485-9-7-5-4" />
  </g>
</svg>
