  0
SECTION
  2
HEADER
  9
$ACADVER
  1
AC1014
  9
$HANDSEED
  5
FFFF
  9
$MEASUREMENT
 70
     1
  0
ENDSEC
  0
SECTION
  2
TABLES
  0
TABLE
  2
VPORT
  5
8
330
0
100
AcDbSymbolTable
 70
     4
  0
VPORT
  5
2E
330
8
100
AcDbSymbolTableRecord
100
AcDbViewportTableRecord
  2
*ACTIVE
 70
     0
 10
0.0
 20
0.0
 11
1.0
 21
1.0
 12
210.0
 22
148.5
 13
0.0
 23
0.0
 14
10.0
 24
10.0
 15
10.0
 25
10.0
 16
0.0
 26
0.0
 36
1.0
 17
0.0
 27
0.0
 37
0.0
 40
341.0
 41
1.24
 42
50.0
 43
0.0
 44
0.0
 50
0.0
 51
0.0
 71
     0
 72
   100
 73
     1
 74
     3
 75
     0
 76
     0
 77
     0
 78
     0
  0
ENDTAB
  0
TABLE
  2
LTYPE
  5
5
330
0
100
AcDbSymbolTable
 70
     1
  0
LTYPE
  5
14
330
5
100
AcDbSymbolTableRecord
100
AcDbLinetypeTableRecord
  2
BYBLOCK
 70
     0
  3

 72
    65
 73
     0
 40
0.0
  0
LTYPE
  5
15
330
5
100
AcDbSymbolTableRecord
100
AcDbLinetypeTableRecord
  2
BYLAYER
 70
     0
  3

 72
    65
 73
     0
 40
0.0
  0
LTYPE
  5
16
330
5
100
AcDbSymbolTableRecord
100
AcDbLinetypeTableRecord
  2
CONTINUOUS
 70
     0
  3
Solid line
 72
    65
 73
     0
 40
0.0
  0
ENDTAB
  0
TABLE
  2
LAYER
  5
2
100
AcDbSymbolTable
 70
2
  0
LAYER
  5
50
100
AcDbSymbolTableRecord
100
AcDbLayerTableRecord
  2
0
 70
0
  6
CONTINUOUS
  0
LAYER
  5
51
100
AcDbSymbolTableRecord
100
AcDbLayerTableRecord
  2
Ebene_1
 70
0
  6
CONTINUOUS
  0
ENDTAB
  0
TABLE
  2
STYLE
  5
3
330
0
100
AcDbSymbolTable
 70
     1
  0
STYLE
  5
11
330
3
100
AcDbSymbolTableRecord
100
AcDbTextStyleTableRecord
  2
STANDARD
 70
     0
 40
0.0
 41
1.0
 50
0.0
 71
     0
 42
2.5
  3
txt
  4

  0
ENDTAB
  0
TABLE
  2
VIEW
  5
6
330
0
100
AcDbSymbolTable
 70
     0
  0
ENDTAB
  0
TABLE
  2
UCS
  5
7
330
0
100
AcDbSymbolTable
 70
     0
  0
ENDTAB
  0
TABLE
  2
APPID
  5
9
330
0
100
AcDbSymbolTable
 70
     2
  0
APPID
  5
12
330
9
100
AcDbSymbolTableRecord
100
AcDbRegAppTableRecord
  2
ACAD
 70
     0
  0
ENDTAB
  0
TABLE
  2
DIMSTYLE
  5
A
330
0
100
AcDbSymbolTable
 70
     1
  0
DIMSTYLE
105
27
330
A
100
AcDbSymbolTableRecord
100
AcDbDimStyleTableRecord
  2
ISO-25
 70
     0
  3

  4

  5

  6

  7

 40
1.0
 41
2.5
 42
0.625
 43
3.75
 44
1.25
 45
0.0
 46
0.0
 47
0.0
 48
0.0
140
2.5
141
2.5
142
0.0
143
0.03937007874016
144
1.0
145
0.0
146
1.0
147
0.625
 71
     0
 72
     0
 73
     0
 74
     0
 75
     0
 76
     0
 77
     1
 78
     8
170
     0
171
     3
172
     1
173
     0
174
     0
175
     0
176
     0
177
     0
178
     0
270
     2
271
     2
272
     2
273
     2
274
     3
340
11
275
     0
280
     0
281
     0
282
     0
283
     0
284
     8
285
     0
286
     0
287
     3
288
     0
  0
ENDTAB
  0
TABLE
  2
BLOCK_RECORD
  5
1
330
0
100
AcDbSymbolTable
 70
     1
  0
BLOCK_RECORD
  5
1F
330
1
100
AcDbSymbolTableRecord
100
AcDbBlockTableRecord
  2
*MODEL_SPACE
  0
BLOCK_RECORD
  5
1B
330
1
100
AcDbSymbolTableRecord
100
AcDbBlockTableRecord
  2
*PAPER_SPACE
  0
ENDTAB
  0
ENDSEC
  0
SECTION
  2
BLOCKS
  0
BLOCK
  5
20
330
1F
100
AcDbEntity
  8
0
100
AcDbBlockBegin
  2
*MODEL_SPACE
 70
     0
 10
0.0
 20
0.0
 30
0.0
  3
*MODEL_SPACE
  1

  0
ENDBLK
  5
21
330
1F
100
AcDbEntity
  8
0
100
AcDbBlockEnd
  0
BLOCK
  5
1C
330
1B
100
AcDbEntity
 67
     1
  8
0
100
AcDbBlockBegin
  2
*PAPER_SPACE
  1

  0
ENDBLK
  5
1D
330
1B
100
AcDbEntity
 67
     1
  8
0
100
AcDbBlockEnd
  0
ENDSEC
  0
SECTION
  2
ENTITIES
  0
LWPOLYLINE
  5
100
100
AcDbEntity
  8
Ebene_1
 62
5
100
AcDbPolyline
 90
74
 70
1
 10
139.049067
 20
311.313241
 30
0.0
 10
93.692318
 20
232.752937
 30
0.0
 10
90.347406
 20
234.684119
 30
0.0
 10
87.002494
 20
236.615301
 30
0.0
 10
83.657579
 20
238.546485
 30
0.0
 10
80.312667
 20
240.477667
 30
0.0
 10
80.311538
 20
240.478231
 30
0.0
 10
80.310409
 20
240.478796
 30
0.0
 10
80.309281
 20
240.479360
 30
0.0
 10
80.308152
 20
240.479925
 30
0.0
 10
76.546335
 20
241.744212
 30
0.0
 10
72.724352
 20
241.477255
 30
0.0
 10
69.281281
 20
239.796752
 30
0.0
 10
66.656202
 20
236.820406
 30
0.0
 10
65.391022
 20
233.058756
 30
0.0
 10
65.657169
 20
229.236601
 30
0.0
 10
67.337021
 20
225.793083
 30
0.0
 10
70.312964
 20
223.167355
 30
0.0
 10
70.313528
 20
223.166509
 30
0.0
 10
70.314093
 20
223.165662
 30
0.0
 10
70.314657
 20
223.164815
 30
0.0
 10
70.315222
 20
223.163969
 30
0.0
 10
73.660133
 20
221.232787
 30
0.0
 10
77.005045
 20
219.301602
 30
0.0
 10
80.349960
 20
217.370421
 30
0.0
 10
83.694872
 20
215.439239
 30
0.0
 10
80.169987
 20
209.333703
 30
0.0
 10
76.645102
 20
203.228166
 30
0.0
 10
73.120220
 20
197.122630
 30
0.0
 10
69.595335
 20
191.017094
 30
0.0
 10
0.141109
 20
70.718768
 30
0.0
 10
20.516230
 20
35.427762
 30
0.0
 10
40.889147
 20
0.141165
 30
0.0
 10
179.797601
 20
0.141165
 30
0.0
 10
318.706041
 20
0.141165
 30
0.0
 10
339.079522
 20
35.428313
 30
0.0
 10
359.454640
 20
70.718768
 30
0.0
 10
290.000428
 20
191.017094
 30
0.0
 10
286.474175
 20
197.124834
 30
0.0
 10
282.947893
 20
203.232575
 30
0.0
 10
279.421639
 20
209.340315
 30
0.0
 10
275.895371
 20
215.448055
 30
0.0
 10
279.242343
 20
217.380479
 30
0.0
 10
282.589329
 20
219.312903
 30
0.0
 10
285.936287
 20
221.245326
 30
0.0
 10
289.283273
 20
223.177750
 30
0.0
 10
289.283273
 20
223.178314
 30
0.0
 10
289.283273
 20
223.178879
 30
0.0
 10
289.283273
 20
223.179443
 30
0.0
 10
289.283273
 20
223.180007
 30
0.0
 10
292.258827
 20
225.805583
 30
0.0
 10
293.938557
 20
229.248779
 30
0.0
 10
294.204834
 20
233.070575
 30
0.0
 10
292.940055
 20
236.831957
 30
0.0
 10
292.940055
 20
236.832239
 30
0.0
 10
292.940055
 20
236.832804
 30
0.0
 10
292.940055
 20
236.833086
 30
0.0
 10
292.940055
 20
236.833650
 30
0.0
 10
290.314965
 20
239.810003
 30
0.0
 10
286.871910
 20
241.490506
 30
0.0
 10
283.049916
 20
241.757462
 30
0.0
 10
279.288091
 20
240.493170
 30
0.0
 10
279.288091
 20
240.492605
 30
0.0
 10
279.288091
 20
240.492041
 30
0.0
 10
279.288091
 20
240.491476
 30
0.0
 10
279.288091
 20
240.490912
 30
0.0
 10
275.941114
 20
238.558488
 30
0.0
 10
272.594139
 20
236.626065
 30
0.0
 10
269.247161
 20
234.693644
 30
0.0
 10
265.900186
 20
232.761220
 30
0.0
 10
220.548396
 20
311.312704
 30
0.0
 10
179.797604
 20
311.312704
 30
0.0
 10
139.046809
 20
311.313269
 30
0.0
 10
139.049067
 20
311.313241
 30
0.0
  0
LWPOLYLINE
  5
101
100
AcDbEntity
  8
Ebene_1
 62
5
100
AcDbPolyline
 90
17
 70
1
 10
149.807135
 20
307.715458
 30
0.0
 10
150.661492
 20
307.542952
 30
0.0
 10
151.359174
 20
307.072558
 30
0.0
 10
151.829568
 20
306.374877
 30
0.0
 10
152.002073
 20
305.520519
 30
0.0
 10
151.829568
 20
304.666162
 30
0.0
 10
151.359174
 20
303.968481
 30
0.0
 10
150.661492
 20
303.498087
 30
0.0
 10
149.807135
 20
303.325581
 30
0.0
 10
148.952775
 20
303.498087
 30
0.0
 10
148.255096
 20
303.968481
 30
0.0
 10
147.784699
 20
304.666159
 30
0.0
 10
147.612194
 20
305.520519
 30
0.0
 10
147.784699
 20
306.374880
 30
0.0
 10
148.255096
 20
307.072558
 30
0.0
 10
148.952775
 20
307.542952
 30
0.0
 10
149.807135
 20
307.715458
 30
0.0
  0
LWPOLYLINE
  5
102
100
AcDbEntity
  8
Ebene_1
 62
5
100
AcDbPolyline
 90
17
 70
1
 10
209.795893
 20
307.714893
 30
0.0
 10
210.650253
 20
307.542388
 30
0.0
 10
211.347931
 20
307.071994
 30
0.0
 10
211.818328
 20
306.374315
 30
0.0
 10
211.990834
 20
305.519955
 30
0.0
 10
211.818328
 20
304.665595
 30
0.0
 10
211.347931
 20
303.967916
 30
0.0
 10
210.650253
 20
303.497522
 30
0.0
 10
209.795893
 20
303.325017
 30
0.0
 10
208.941535
 20
303.497522
 30
0.0
 10
208.243854
 20
303.967916
 30
0.0
 10
207.773460
 20
304.665598
 30
0.0
 10
207.600954
 20
305.519955
 30
0.0
 10
207.773460
 20
306.374312
 30
0.0
 10
208.243854
 20
307.071994
 30
0.0
 10
208.941535
 20
307.542388
 30
0.0
 10
209.795893
 20
307.714893
 30
0.0
  0
LWPOLYLINE
  5
103
100
AcDbEntity
  8
Ebene_1
 62
5
100
AcDbPolyline
 90
17
 70
1
 10
209.796457
 20
267.226479
 30
0.0
 10
210.456219
 20
267.093275
 30
0.0
 10
210.994990
 20
266.730024
 30
0.0
 10
211.358241
 20
266.191254
 30
0.0
 10
211.491444
 20
265.531491
 30
0.0
 10
211.358241
 20
264.871727
 30
0.0
 10
210.994990
 20
264.332958
 30
0.0
 10
210.456219
 20
263.969707
 30
0.0
 10
209.796457
 20
263.836504
 30
0.0
 10
209.136695
 20
263.969707
 30
0.0
 10
208.597924
 20
264.332958
 30
0.0
 10
208.234673
 20
264.871727
 30
0.0
 10
208.101470
 20
265.531491
 30
0.0
 10
208.234673
 20
266.191254
 30
0.0
 10
208.597924
 20
266.730024
 30
0.0
 10
209.136695
 20
267.093275
 30
0.0
 10
209.796457
 20
267.226479
 30
0.0
  0
LWPOLYLINE
  5
104
100
AcDbEntity
  8
Ebene_1
 62
5
100
AcDbPolyline
 90
17
 70
1
 10
149.807146
 20
267.225914
 30
0.0
 10
150.466908
 20
267.092711
 30
0.0
 10
151.005679
 20
266.729461
 30
0.0
 10
151.368930
 20
266.190692
 30
0.0
 10
151.502133
 20
265.530929
 30
0.0
 10
151.368930
 20
264.871166
 30
0.0
 10
151.005679
 20
264.332396
 30
0.0
 10
150.466908
 20
263.969146
 30
0.0
 10
149.807146
 20
263.835942
 30
0.0
 10
149.147384
 20
263.969146
 30
0.0
 10
148.608613
 20
264.332396
 30
0.0
 10
148.245362
 20
264.871166
 30
0.0
 10
148.112159
 20
265.530929
 30
0.0
 10
148.245362
 20
266.190692
 30
0.0
 10
148.608613
 20
266.729461
 30
0.0
 10
149.147384
 20
267.092711
 30
0.0
 10
149.807146
 20
267.225914
 30
0.0
  0
LWPOLYLINE
  5
105
100
AcDbEntity
  8
Ebene_1
 62
5
100
AcDbPolyline
 90
17
 70
1
 10
75.308184
 20
234.036168
 30
0.0
 10
76.162544
 20
233.863662
 30
0.0
 10
76.860226
 20
233.393268
 30
0.0
 10
77.330620
 20
232.695587
 30
0.0
 10
77.503125
 20
231.841227
 30
0.0
 10
77.330620
 20
230.986867
 30
0.0
 10
76.860223
 20
230.289188
 30
0.0
 10
76.162544
 20
229.818794
 30
0.0
 10
75.308184
 20
229.646289
 30
0.0
 10
74.453649
 20
229.818636
 30
0.0
 10
73.755790
 20
230.288993
 30
0.0
 10
73.285255
 20
230.986734
 30
0.0
 10
73.112693
 20
231.841227
 30
0.0
 10
73.285255
 20
232.695719
 30
0.0
 10
73.755787
 20
233.393463
 30
0.0
 10
74.453646
 20
233.863820
 30
0.0
 10
75.308184
 20
234.036168
 30
0.0
  0
LWPOLYLINE
  5
106
100
AcDbEntity
  8
Ebene_1
 62
5
100
AcDbPolyline
 90
17
 70
1
 10
284.293726
 20
234.036168
 30
0.0
 10
285.148097
 20
233.863668
 30
0.0
 10
285.845779
 20
233.393271
 30
0.0
 10
286.316187
 20
232.695590
 30
0.0
 10
286.488681
 20
231.841227
 30
0.0
 10
286.316187
 20
230.986864
 30
0.0
 10
285.845779
 20
230.289182
 30
0.0
 10
285.148097
 20
229.818788
 30
0.0
 10
284.293726
 20
229.646289
 30
0.0
 10
283.439185
 20
229.818636
 30
0.0
 10
282.741334
 20
230.288993
 30
0.0
 10
282.270785
 20
230.986734
 30
0.0
 10
282.098234
 20
231.841227
 30
0.0
 10
282.270785
 20
232.695719
 30
0.0
 10
282.741334
 20
233.393463
 30
0.0
 10
283.439185
 20
233.863820
 30
0.0
 10
284.293726
 20
234.036168
 30
0.0
  0
LWPOLYLINE
  5
107
100
AcDbEntity
  8
Ebene_1
 62
5
100
AcDbPolyline
 90
21
 70
1
 10
213.319812
 20
191.539123
 30
0.0
 10
213.907111
 20
191.473526
 30
0.0
 10
214.446740
 20
191.258524
 30
0.0
 10
214.911142
 20
190.909592
 30
0.0
 10
215.272768
 20
190.442204
 30
0.0
 10
215.550607
 20
189.615948
 30
0.0
 10
215.492035
 20
188.776436
 30
0.0
 10
215.122910
 20
188.020156
 30
0.0
 10
214.469097
 20
187.443593
 30
0.0
 10
213.642974
 20
187.165960
 30
0.0
 10
212.803642
 20
187.224591
 30
0.0
 10
212.047524
 20
187.593645
 30
0.0
 10
211.471037
 20
188.247266
 30
0.0
 10
211.193307
 20
189.073299
 30
0.0
 10
211.251801
 20
189.912594
 30
0.0
 10
211.620694
 20
190.668738
 30
0.0
 10
212.274156
 20
191.245324
 30
0.0
 10
212.520178
 20
191.367614
 30
0.0
 10
212.778524
 20
191.457922
 30
0.0
 10
213.046102
 20
191.515382
 30
0.0
 10
213.319812
 20
191.539123
 30
0.0
  0
LWPOLYLINE
  5
108
100
AcDbEntity
  8
Ebene_1
 62
5
100
AcDbPolyline
 90
29
 70
1
 10
65.436471
 20
166.382760
 30
0.0
 10
65.772502
 20
166.353660
 30
0.0
 10
66.101009
 20
166.283164
 30
0.0
 10
66.418190
 20
166.172346
 30
0.0
 10
66.720250
 20
166.022266
 30
0.0
 10
67.522943
 20
165.314371
 30
0.0
 10
67.976119
 20
164.385843
 30
0.0
 10
68.048029
 20
163.355133
 30
0.0
 10
67.706927
 20
162.340697
 30
0.0
 10
66.998933
 20
161.538161
 30
0.0
 10
66.070379
 20
161.085147
 30
0.0
 10
65.039709
 20
161.013375
 30
0.0
 10
64.025360
 20
161.354573
 30
0.0
 10
63.222667
 20
162.062468
 30
0.0
 10
62.769491
 20
162.990993
 30
0.0
 10
62.697581
 20
164.021703
 30
0.0
 10
63.038683
 20
165.036139
 30
0.0
 10
63.448213
 20
165.575376
 30
0.0
 10
63.970558
 20
165.990149
 30
0.0
 10
64.578733
 20
166.264023
 30
0.0
 10
65.245748
 20
166.380556
 30
0.0
 10
65.293407
 20
166.382249
 30
0.0
 10
65.341089
 20
166.383096
 30
0.0
 10
65.388782
 20
166.383240
 30
0.0
 10
65.436471
 20
166.382675
 30
0.0
 10
65.436471
 20
166.382661
 30
0.0
 10
65.436471
 20
166.382647
 30
0.0
 10
65.436471
 20
166.382636
 30
0.0
 10
65.436471
 20
166.382760
 30
0.0
  0
LWPOLYLINE
  5
109
100
AcDbEntity
  8
Ebene_1
 62
5
100
AcDbPolyline
 90
45
 70
1
 10
179.799861
 20
134.698354
 30
0.0
 10
179.800002
 20
134.698354
 30
0.0
 10
179.800144
 20
134.698354
 30
0.0
 10
179.800285
 20
134.698354
 30
0.0
 10
179.800426
 20
134.698354
 30
0.0
 10
179.800567
 20
134.698354
 30
0.0
 10
179.800708
 20
134.698354
 30
0.0
 10
179.800849
 20
134.698354
 30
0.0
 10
179.800990
 20
134.698354
 30
0.0
 10
183.690712
 20
133.912839
 30
0.0
 10
186.867217
 20
131.771278
 30
0.0
 10
189.009128
 20
128.595008
 30
0.0
 10
189.795075
 20
124.705373
 30
0.0
 10
189.794510
 20
124.704244
 30
0.0
 10
189.793946
 20
124.703115
 30
0.0
 10
189.793381
 20
124.701986
 30
0.0
 10
189.792817
 20
124.700857
 30
0.0
 10
189.792817
 20
99.703933
 30
0.0
 10
189.792817
 20
74.707008
 30
0.0
 10
189.792817
 20
49.710087
 30
0.0
 10
189.792817
 20
24.713162
 30
0.0
 10
189.004601
 20
20.825873
 30
0.0
 10
186.862049
 20
17.652055
 30
0.0
 10
183.686231
 20
15.512472
 30
0.0
 10
179.798208
 20
14.727889
 30
0.0
 10
175.910179
 20
15.512461
 30
0.0
 10
172.734349
 20
17.652041
 30
0.0
 10
170.591791
 20
20.825861
 30
0.0
 10
169.803570
 20
24.713153
 30
0.0
 10
169.803570
 20
49.710078
 30
0.0
 10
169.803570
 20
74.707000
 30
0.0
 10
169.803570
 20
99.703924
 30
0.0
 10
169.803570
 20
124.700849
 30
0.0
 10
169.804134
 20
124.701978
 30
0.0
 10
169.804699
 20
124.703107
 30
0.0
 10
169.805263
 20
124.704236
 30
0.0
 10
169.805828
 20
124.705365
 30
0.0
 10
170.591774
 20
128.594999
 30
0.0
 10
172.733686
 20
131.771269
 30
0.0
 10
175.910190
 20
133.912831
 30
0.0
 10
179.799912
 20
134.698345
 30
0.0
 10
179.799898
 20
134.698348
 30
0.0
 10
179.799887
 20
134.698348
 30
0.0
 10
179.799873
 20
134.698351
 30
0.0
 10
179.799861
 20
134.698354
 30
0.0
  0
LWPOLYLINE
  5
10a
100
AcDbEntity
  8
Ebene_1
 62
5
100
AcDbPolyline
 90
21
 70
1
 10
251.312876
 20
125.730633
 30
0.0
 10
251.900174
 20
125.665036
 30
0.0
 10
252.439803
 20
125.450033
 30
0.0
 10
252.904205
 20
125.101102
 30
0.0
 10
253.265831
 20
124.633714
 30
0.0
 10
253.543670
 20
123.807458
 30
0.0
 10
253.485098
 20
122.967945
 30
0.0
 10
253.115974
 20
122.211666
 30
0.0
 10
252.462161
 20
121.635103
 30
0.0
 10
251.636037
 20
121.357470
 30
0.0
 10
250.796705
 20
121.416101
 30
0.0
 10
250.040587
 20
121.785155
 30
0.0
 10
249.464100
 20
122.438776
 30
0.0
 10
249.186165
 20
123.264945
 30
0.0
 10
249.244599
 20
124.104420
 30
0.0
 10
249.613562
 20
124.860725
 30
0.0
 10
250.267220
 20
125.437387
 30
0.0
 10
250.513269
 20
125.559533
 30
0.0
 10
250.771624
 20
125.649700
 30
0.0
 10
251.039193
 20
125.707022
 30
0.0
 10
251.312876
 20
125.730633
 30
0.0
  0
LWPOLYLINE
  5
10b
100
AcDbEntity
  8
Ebene_1
 62
5
100
AcDbPolyline
 90
29
 70
1
 10
40.438858
 20
123.091965
 30
0.0
 10
40.774889
 20
123.062865
 30
0.0
 10
41.103396
 20
122.992369
 30
0.0
 10
41.420577
 20
122.881551
 30
0.0
 10
41.722636
 20
122.731471
 30
0.0
 10
42.524980
 20
122.023553
 30
0.0
 10
42.977924
 20
121.095161
 30
0.0
 10
43.049755
 20
120.064669
 30
0.0
 10
42.708763
 20
119.050455
 30
0.0
 10
42.000944
 20
118.247954
 30
0.0
 10
41.072577
 20
117.794851
 30
0.0
 10
40.042048
 20
117.722882
 30
0.0
 10
39.027747
 20
118.063778
 30
0.0
 10
38.225054
 20
118.771673
 30
0.0
 10
37.771878
 20
119.700201
 30
0.0
 10
37.699968
 20
120.730911
 30
0.0
 10
38.041070
 20
121.745347
 30
0.0
 10
38.450498
 20
122.284491
 30
0.0
 10
38.972705
 20
122.699227
 30
0.0
 10
39.580725
 20
122.973127
 30
0.0
 10
40.247585
 20
123.089761
 30
0.0
 10
40.295382
 20
123.091736
 30
0.0
 10
40.343202
 20
123.092865
 30
0.0
 10
40.391030
 20
123.093004
 30
0.0
 10
40.438858
 20
123.092157
 30
0.0
 10
40.438858
 20
123.092143
 30
0.0
 10
40.438858
 20
123.092129
 30
0.0
 10
40.438858
 20
123.092117
 30
0.0
 10
40.438858
 20
123.091965
 30
0.0
  0
LWPOLYLINE
  5
10c
100
AcDbEntity
  8
Ebene_1
 62
5
100
AcDbPolyline
 90
29
 70
1
 10
314.235189
 20
112.171839
 30
0.0
 10
318.125623
 20
111.386262
 30
0.0
 10
321.302570
 20
109.244181
 30
0.0
 10
323.444467
 20
106.067132
 30
0.0
 10
324.229835
 20
102.176654
 30
0.0
 10
323.444467
 20
98.286175
 30
0.0
 10
321.302570
 20
95.109126
 30
0.0
 10
318.125623
 20
92.967043
 30
0.0
 10
314.235189
 20
92.181466
 30
0.0
 10
310.652039
 20
92.848891
 30
0.0
 10
307.630201
 20
94.685759
 30
0.0
 10
305.434654
 20
97.457980
 30
0.0
 10
304.330403
 20
100.931458
 30
0.0
 10
304.042395
 20
100.931458
 30
0.0
 10
303.754387
 20
100.931458
 30
0.0
 10
303.466379
 20
100.931458
 30
0.0
 10
303.178372
 20
100.931458
 30
0.0
 10
303.178372
 20
101.554055
 30
0.0
 10
303.178372
 20
102.176654
 30
0.0
 10
303.178372
 20
102.799250
 30
0.0
 10
303.178372
 20
103.421849
 30
0.0
 10
303.465702
 20
103.421849
 30
0.0
 10
303.753004
 20
103.421849
 30
0.0
 10
304.040335
 20
103.421849
 30
0.0
 10
304.327665
 20
103.421849
 30
0.0
 10
305.432255
 20
106.895957
 30
0.0
 10
307.628480
 20
109.668449
 30
0.0
 10
310.651193
 20
111.505140
 30
0.0
 10
314.235189
 20
112.171839
 30
0.0
  0
LWPOLYLINE
  5
10d
100
AcDbEntity
  8
Ebene_1
 62
5
100
AcDbPolyline
 90
21
 70
1
 10
45.127495
 20
85.994074
 30
0.0
 10
45.581043
 20
85.943395
 30
0.0
 10
45.997767
 20
85.777330
 30
0.0
 10
46.356387
 20
85.507833
 30
0.0
 10
46.635620
 20
85.146857
 30
0.0
 10
46.850194
 20
84.508778
 30
0.0
 10
46.804959
 20
83.860463
 30
0.0
 10
46.519886
 20
83.276429
 30
0.0
 10
46.014951
 20
82.831201
 30
0.0
 10
45.377008
 20
82.616831
 30
0.0
 10
44.728870
 20
82.662127
 30
0.0
 10
44.144998
 20
82.947127
 30
0.0
 10
43.699846
 20
83.451870
 30
0.0
 10
43.485379
 20
84.089726
 30
0.0
 10
43.530538
 20
84.737824
 30
0.0
 10
43.815379
 20
85.321719
 30
0.0
 10
44.319964
 20
85.766973
 30
0.0
 10
44.509948
 20
85.861469
 30
0.0
 10
44.709459
 20
85.931268
 30
0.0
 10
44.916105
 20
85.975693
 30
0.0
 10
45.127495
 20
85.994074
 30
0.0
  0
LWPOLYLINE
  5
10e
100
AcDbEntity
  8
Ebene_1
 62
5
100
AcDbPolyline
 90
29
 70
1
 10
314.471127
 20
85.991816
 30
0.0
 10
314.682511
 20
85.973444
 30
0.0
 10
314.889155
 20
85.929019
 30
0.0
 10
315.088657
 20
85.859220
 30
0.0
 10
315.278649
 20
85.764723
 30
0.0
 10
315.783573
 20
85.319495
 30
0.0
 10
316.068646
 20
84.735462
 30
0.0
 10
316.113886
 20
84.087146
 30
0.0
 10
315.899313
 20
83.449067
 30
0.0
 10
315.453994
 20
82.944288
 30
0.0
 10
314.869935
 20
82.659373
 30
0.0
 10
314.221643
 20
82.614277
 30
0.0
 10
313.583651
 20
82.828952
 30
0.0
 10
313.078897
 20
83.274107
 30
0.0
 10
312.793909
 20
83.857976
 30
0.0
 10
312.748612
 20
84.506114
 30
0.0
 10
312.962988
 20
85.144055
 30
0.0
 10
313.220459
 20
85.483339
 30
0.0
 10
313.548938
 20
85.744352
 30
0.0
 10
313.931405
 20
85.916745
 30
0.0
 10
314.350957
 20
85.990171
 30
0.0
 10
314.380985
 20
85.991300
 30
0.0
 10
314.411014
 20
85.991864
 30
0.0
 10
314.441070
 20
85.992019
 30
0.0
 10
314.471127
 20
85.991737
 30
0.0
 10
314.471127
 20
85.991726
 30
0.0
 10
314.471127
 20
85.991717
 30
0.0
 10
314.471127
 20
85.991706
 30
0.0
 10
314.471127
 20
85.991816
 30
0.0
  0
LWPOLYLINE
  5
10f
100
AcDbEntity
  8
Ebene_1
 62
5
100
AcDbPolyline
 90
21
 70
1
 10
10.485267
 20
66.498693
 30
0.0
 10
11.072498
 20
66.433201
 30
0.0
 10
11.612099
 20
66.218334
 30
0.0
 10
12.076522
 20
65.869552
 30
0.0
 10
12.438223
 20
65.402325
 30
0.0
 10
12.716061
 20
64.576069
 30
0.0
 10
12.657489
 20
63.736556
 30
0.0
 10
12.288366
 20
62.980277
 30
0.0
 10
11.634552
 20
62.403714
 30
0.0
 10
10.808382
 20
62.125779
 30
0.0
 10
9.968908
 20
62.184213
 30
0.0
 10
9.212603
 20
62.553176
 30
0.0
 10
8.635941
 20
63.206834
 30
0.0
 10
8.358103
 20
64.033090
 30
0.0
 10
8.416675
 20
64.872602
 30
0.0
 10
8.785798
 20
65.628882
 30
0.0
 10
9.439611
 20
66.205445
 30
0.0
 10
9.685661
 20
66.327591
 30
0.0
 10
9.944017
 20
66.417758
 30
0.0
 10
10.211584
 20
66.475083
 30
0.0
 10
10.485267
 20
66.498693
 30
0.0
  0
LWPOLYLINE
  5
110
100
AcDbEntity
  8
Ebene_1
 62
5
100
AcDbPolyline
 90
29
 70
1
 10
349.115005
 20
66.496436
 30
0.0
 10
349.388676
 20
66.472814
 30
0.0
 10
349.656251
 20
66.415492
 30
0.0
 10
349.914626
 20
66.325322
 30
0.0
 10
350.160667
 20
66.203176
 30
0.0
 10
350.814322
 20
65.626514
 30
0.0
 10
351.183299
 20
64.870209
 30
0.0
 10
351.241719
 20
64.030734
 30
0.0
 10
350.963787
 20
63.204565
 30
0.0
 10
350.387207
 20
62.551096
 30
0.0
 10
349.631049
 20
62.182201
 30
0.0
 10
348.791748
 20
62.123710
 30
0.0
 10
347.965712
 20
62.401445
 30
0.0
 10
347.312085
 20
62.977935
 30
0.0
 10
346.943051
 20
63.734056
 30
0.0
 10
346.884406
 20
64.573385
 30
0.0
 10
347.162056
 20
65.399506
 30
0.0
 10
347.495558
 20
65.838762
 30
0.0
 10
347.920951
 20
66.176655
 30
0.0
 10
348.416280
 20
66.399789
 30
0.0
 10
348.959557
 20
66.494771
 30
0.0
 10
348.998391
 20
66.496182
 30
0.0
 10
349.037253
 20
66.497028
 30
0.0
 10
349.076143
 20
66.497107
 30
0.0
 10
349.115005
 20
66.496543
 30
0.0
 10
349.115005
 20
66.496532
 30
0.0
 10
349.115005
 20
66.496523
 30
0.0
 10
349.115005
 20
66.496512
 30
0.0
 10
349.115005
 20
66.496436
 30
0.0
  0
LWPOLYLINE
  5
111
100
AcDbEntity
  8
Ebene_1
 62
5
100
AcDbPolyline
 90
17
 70
1
 10
278.670787
 20
54.791929
 30
0.0
 10
279.525158
 20
54.619430
 30
0.0
 10
280.222839
 20
54.149036
 30
0.0
 10
280.693247
 20
53.451354
 30
0.0
 10
280.865742
 20
52.596991
 30
0.0
 10
280.693247
 20
51.742628
 30
0.0
 10
280.222839
 20
51.044947
 30
0.0
 10
279.525158
 20
50.574550
 30
0.0
 10
278.670787
 20
50.402050
 30
0.0
 10
277.816443
 20
50.574559
 30
0.0
 10
277.118762
 20
51.044955
 30
0.0
 10
276.648357
 20
51.742634
 30
0.0
 10
276.475854
 20
52.596991
 30
0.0
 10
276.648360
 20
53.451348
 30
0.0
 10
277.118762
 20
54.149027
 30
0.0
 10
277.816443
 20
54.619421
 30
0.0
 10
278.670787
 20
54.791929
 30
0.0
  0
LWPOLYLINE
  5
112
100
AcDbEntity
  8
Ebene_1
 62
5
100
AcDbPolyline
 90
17
 70
1
 10
195.935584
 20
54.788627
 30
0.0
 10
196.789944
 20
54.616122
 30
0.0
 10
197.487623
 20
54.145728
 30
0.0
 10
197.958019
 20
53.448049
 30
0.0
 10
198.130525
 20
52.593689
 30
0.0
 10
197.958019
 20
51.739329
 30
0.0
 10
197.487626
 20
51.041648
 30
0.0
 10
196.789944
 20
50.571254
 30
0.0
 10
195.935584
 20
50.398748
 30
0.0
 10
195.081224
 20
50.571254
 30
0.0
 10
194.383545
 20
51.041650
 30
0.0
 10
193.913151
 20
51.739329
 30
0.0
 10
193.740646
 20
52.593689
 30
0.0
 10
193.913151
 20
53.448046
 30
0.0
 10
194.383545
 20
54.145728
 30
0.0
 10
195.081227
 20
54.616122
 30
0.0
 10
195.935584
 20
54.788627
 30
0.0
  0
LWPOLYLINE
  5
113
100
AcDbEntity
  8
Ebene_1
 62
5
100
AcDbPolyline
 90
21
 70
1
 10
75.122976
 20
34.041986
 30
0.0
 10
75.576369
 20
33.991198
 30
0.0
 10
75.992937
 20
33.825101
 30
0.0
 10
76.351416
 20
33.555641
 30
0.0
 10
76.630551
 20
33.194769
 30
0.0
 10
76.845223
 20
32.556778
 30
0.0
 10
76.800124
 20
31.908499
 30
0.0
 10
76.515209
 20
31.324440
 30
0.0
 10
76.010432
 20
30.879114
 30
0.0
 10
75.372353
 20
30.664540
 30
0.0
 10
74.724038
 20
30.709775
 30
0.0
 10
74.140004
 20
30.994847
 30
0.0
 10
73.694776
 20
31.499782
 30
0.0
 10
73.480203
 20
32.137861
 30
0.0
 10
73.525437
 20
32.786177
 30
0.0
 10
73.810510
 20
33.370210
 30
0.0
 10
74.315445
 20
33.815438
 30
0.0
 10
74.505457
 20
33.909791
 30
0.0
 10
74.704977
 20
33.979449
 30
0.0
 10
74.911614
 20
34.023735
 30
0.0
 10
75.122976
 20
34.041986
 30
0.0
  0
LWPOLYLINE
  5
114
100
AcDbEntity
  8
Ebene_1
 62
5
100
AcDbPolyline
 90
29
 70
1
 10
284.476747
 20
34.038684
 30
0.0
 10
284.688103
 20
34.020425
 30
0.0
 10
284.894746
 20
33.976136
 30
0.0
 10
285.094249
 20
33.906480
 30
0.0
 10
285.284269
 20
33.812128
 30
0.0
 10
285.789193
 20
33.366900
 30
0.0
 10
286.074266
 20
32.782866
 30
0.0
 10
286.119506
 20
32.134551
 30
0.0
 10
285.904932
 20
31.496472
 30
0.0
 10
285.459614
 20
30.991703
 30
0.0
 10
284.875555
 20
30.706791
 30
0.0
 10
284.227291
 20
30.661690
 30
0.0
 10
283.589299
 20
30.876353
 30
0.0
 10
283.084516
 20
31.321680
 30
0.0
 10
282.799613
 20
31.905736
 30
0.0
 10
282.754514
 20
32.554015
 30
0.0
 10
282.969172
 20
33.192009
 30
0.0
 10
283.226728
 20
33.531136
 30
0.0
 10
283.555207
 20
33.791994
 30
0.0
 10
283.937674
 20
33.964254
 30
0.0
 10
284.357141
 20
34.037575
 30
0.0
 10
284.387028
 20
34.038704
 30
0.0
 10
284.416944
 20
34.039269
 30
0.0
 10
284.446831
 20
34.039286
 30
0.0
 10
284.476747
 20
34.038721
 30
0.0
 10
284.476747
 20
34.038713
 30
0.0
 10
284.476747
 20
34.038707
 30
0.0
 10
284.476747
 20
34.038699
 30
0.0
 10
284.476747
 20
34.038684
 30
0.0
  0
LWPOLYLINE
  5
115
100
AcDbEntity
  8
Ebene_1
 62
5
100
AcDbPolyline
 90
17
 70
1
 10
75.308184
 20
25.048363
 30
0.0
 10
76.162544
 20
24.875857
 30
0.0
 10
76.860223
 20
24.405464
 30
0.0
 10
77.330620
 20
23.707785
 30
0.0
 10
77.503125
 20
22.853425
 30
0.0
 10
77.330620
 20
21.999065
 30
0.0
 10
76.860223
 20
21.301386
 30
0.0
 10
76.162544
 20
20.830992
 30
0.0
 10
75.308184
 20
20.658487
 30
0.0
 10
74.453649
 20
20.830834
 30
0.0
 10
73.755790
 20
21.301191
 30
0.0
 10
73.285255
 20
21.998932
 30
0.0
 10
73.112693
 20
22.853425
 30
0.0
 10
73.285255
 20
23.707917
 30
0.0
 10
73.755790
 20
24.405658
 30
0.0
 10
74.453649
 20
24.876015
 30
0.0
 10
75.308184
 20
25.048363
 30
0.0
  0
LWPOLYLINE
  5
116
100
AcDbEntity
  8
Ebene_1
 62
5
100
AcDbPolyline
 90
17
 70
1
 10
284.293726
 20
25.047234
 30
0.0
 10
285.148097
 20
24.874734
 30
0.0
 10
285.845779
 20
24.404337
 30
0.0
 10
286.316187
 20
23.706656
 30
0.0
 10
286.488681
 20
22.852293
 30
0.0
 10
286.316187
 20
21.997930
 30
0.0
 10
285.845779
 20
21.300249
 30
0.0
 10
285.148097
 20
20.829855
 30
0.0
 10
284.293726
 20
20.657355
 30
0.0
 10
283.439185
 20
20.829702
 30
0.0
 10
282.741334
 20
21.300060
 30
0.0
 10
282.270785
 20
21.997800
 30
0.0
 10
282.098234
 20
22.852293
 30
0.0
 10
282.270785
 20
23.706786
 30
0.0
 10
282.741334
 20
24.404529
 30
0.0
 10
283.439185
 20
24.874887
 30
0.0
 10
284.293726
 20
25.047234
 30
0.0
  0
LWPOLYLINE
  5
117
100
AcDbEntity
  8
Ebene_1
 62
5
100
AcDbPolyline
 90
21
 70
1
 10
40.479097
 20
14.546583
 30
0.0
 10
41.066396
 20
14.480986
 30
0.0
 10
41.606025
 20
14.265984
 30
0.0
 10
42.070427
 20
13.917053
 30
0.0
 10
42.432053
 20
13.449665
 30
0.0
 10
42.709692
 20
12.623538
 30
0.0
 10
42.651060
 20
11.784201
 30
0.0
 10
42.282006
 20
11.028077
 30
0.0
 10
41.628380
 20
10.451590
 30
0.0
 10
40.802346
 20
10.173860
 30
0.0
 10
39.963051
 20
10.232354
 30
0.0
 10
39.206905
 20
10.601246
 30
0.0
 10
38.630319
 20
11.254709
 30
0.0
 10
38.352378
 20
12.080884
 30
0.0
 10
38.410812
 20
12.920362
 30
0.0
 10
38.779778
 20
13.676673
 30
0.0
 10
39.433442
 20
14.253335
 30
0.0
 10
39.679491
 20
14.375480
 30
0.0
 10
39.937846
 20
14.465648
 30
0.0
 10
40.205415
 20
14.522973
 30
0.0
 10
40.479097
 20
14.546583
 30
0.0
  0
LWPOLYLINE
  5
118
100
AcDbEntity
  8
Ebene_1
 62
5
100
AcDbPolyline
 90
29
 70
1
 10
319.120061
 20
14.544890
 30
0.0
 10
319.393732
 20
14.521268
 30
0.0
 10
319.661307
 20
14.463946
 30
0.0
 10
319.919681
 20
14.373776
 30
0.0
 10
320.165722
 20
14.251630
 30
0.0
 10
320.819377
 20
13.674965
 30
0.0
 10
321.188355
 20
12.918658
 30
0.0
 10
321.246775
 20
12.079179
 30
0.0
 10
320.968842
 20
11.253005
 30
0.0
 10
320.392262
 20
10.599545
 30
0.0
 10
319.636104
 20
10.230655
 30
0.0
 10
318.796832
 20
10.172159
 30
0.0
 10
317.970795
 20
10.449885
 30
0.0
 10
317.317169
 20
11.026372
 30
0.0
 10
316.948107
 20
11.782496
 30
0.0
 10
316.889461
 20
12.621833
 30
0.0
 10
317.167111
 20
13.447960
 30
0.0
 10
317.500613
 20
13.887222
 30
0.0
 10
317.926035
 20
14.225115
 30
0.0
 10
318.421363
 20
14.448249
 30
0.0
 10
318.964641
 20
14.543225
 30
0.0
 10
319.003475
 20
14.544636
 30
0.0
 10
319.042337
 20
14.545483
 30
0.0
 10
319.081199
 20
14.545562
 30
0.0
 10
319.120061
 20
14.544997
 30
0.0
 10
319.120061
 20
14.544986
 30
0.0
 10
319.120061
 20
14.544977
 30
0.0
 10
319.120061
 20
14.544966
 30
0.0
 10
319.120061
 20
14.544890
 30
0.0
  0
LWPOLYLINE
  5
119
100
AcDbEntity
  8
Ebene_1
 62
5
100
AcDbPolyline
 90
17
 70
1
 10
197.685142
 20
6.804714
 30
0.0
 10
198.539499
 20
6.632211
 30
0.0
 10
199.237178
 20
6.161818
 30
0.0
 10
199.707574
 20
5.464142
 30
0.0
 10
199.880083
 20
4.609787
 30
0.0
 10
199.707583
 20
3.755422
 30
0.0
 10
199.237186
 20
3.057737
 30
0.0
 10
198.539504
 20
2.587338
 30
0.0
 10
197.685142
 20
2.414832
 30
0.0
 10
196.830779
 20
2.587340
 30
0.0
 10
196.133097
 20
3.057740
 30
0.0
 10
195.662703
 20
3.755424
 30
0.0
 10
195.490203
 20
4.609787
 30
0.0
 10
195.662712
 20
5.464142
 30
0.0
 10
196.133108
 20
6.161818
 30
0.0
 10
196.830787
 20
6.632209
 30
0.0
 10
197.685142
 20
6.804714
 30
0.0
  0
LWPOLYLINE
  5
11a
100
AcDbEntity
  8
Ebene_1
 62
5
100
AcDbPolyline
 90
17
 70
1
 10
272.047943
 20
6.801892
 30
0.0
 10
272.902305
 20
6.629384
 30
0.0
 10
273.599987
 20
6.158984
 30
0.0
 10
274.070381
 20
5.461300
 30
0.0
 10
274.242881
 20
4.606937
 30
0.0
 10
274.070372
 20
3.752582
 30
0.0
 10
273.599976
 20
3.054906
 30
0.0
 10
272.902297
 20
2.584515
 30
0.0
 10
272.047943
 20
2.412010
 30
0.0
 10
271.193585
 20
2.584513
 30
0.0
 10
270.495907
 20
3.054906
 30
0.0
 10
270.025510
 20
3.752582
 30
0.0
 10
269.853002
 20
4.606937
 30
0.0
 10
270.025501
 20
5.461302
 30
0.0
 10
270.495898
 20
6.158987
 30
0.0
 10
271.193580
 20
6.629386
 30
0.0
 10
272.047943
 20
6.801892
 30
0.0
  0
ENDSEC
  0
SECTION
  2
OBJECTS
  0
DICTIONARY
  5
C
330
0
100
AcDbDictionary
  3
ACAD_GROUP
350
D
  3
ACAD_MLINESTYLE
350
17
  0
DICTIONARY
  5
D
330
C
100
AcDbDictionary
  0
DICTIONARY
  5
1A
330
C
100
AcDbDictionary
  0
DICTIONARY
  5
17
330
C
100
AcDbDictionary
  3
STANDARD
350
18
  0
DICTIONARY
  5
19
330
C
100
AcDbDictionary
  0
ENDSEC
  0
EOF
