  0
SECTION
  2
HEADER
  9
$ACADVER
  1
AC1014
  9
$HANDSEED
  5
FFFF
  9
$MEASUREMENT
 70
     1
  0
ENDSEC
  0
SECTION
  2
TABLES
  0
TABLE
  2
VPORT
  5
8
330
0
100
AcDbSymbolTable
 70
     4
  0
VPORT
  5
2E
330
8
100
AcDbSymbolTableRecord
100
AcDbViewportTableRecord
  2
*ACTIVE
 70
     0
 10
0.0
 20
0.0
 11
1.0
 21
1.0
 12
210.0
 22
148.5
 13
0.0
 23
0.0
 14
10.0
 24
10.0
 15
10.0
 25
10.0
 16
0.0
 26
0.0
 36
1.0
 17
0.0
 27
0.0
 37
0.0
 40
341.0
 41
1.24
 42
50.0
 43
0.0
 44
0.0
 50
0.0
 51
0.0
 71
     0
 72
   100
 73
     1
 74
     3
 75
     0
 76
     0
 77
     0
 78
     0
  0
ENDTAB
  0
TABLE
  2
LTYPE
  5
5
330
0
100
AcDbSymbolTable
 70
     1
  0
LTYPE
  5
14
330
5
100
AcDbSymbolTableRecord
100
AcDbLinetypeTableRecord
  2
BYBLOCK
 70
     0
  3

 72
    65
 73
     0
 40
0.0
  0
LTYPE
  5
15
330
5
100
AcDbSymbolTableRecord
100
AcDbLinetypeTableRecord
  2
BYLAYER
 70
     0
  3

 72
    65
 73
     0
 40
0.0
  0
LTYPE
  5
16
330
5
100
AcDbSymbolTableRecord
100
AcDbLinetypeTableRecord
  2
CONTINUOUS
 70
     0
  3
Solid line
 72
    65
 73
     0
 40
0.0
  0
ENDTAB
  0
TABLE
  2
LAYER
  5
2
100
AcDbSymbolTable
 70
2
  0
LAYER
  5
50
100
AcDbSymbolTableRecord
100
AcDbLayerTableRecord
  2
0
 70
0
  6
CONTINUOUS
  0
LAYER
  5
51
100
AcDbSymbolTableRecord
100
AcDbLayerTableRecord
  2
Ebene_1
 70
0
  6
CONTINUOUS
  0
ENDTAB
  0
TABLE
  2
STYLE
  5
3
330
0
100
AcDbSymbolTable
 70
     1
  0
STYLE
  5
11
330
3
100
AcDbSymbolTableRecord
100
AcDbTextStyleTableRecord
  2
STANDARD
 70
     0
 40
0.0
 41
1.0
 50
0.0
 71
     0
 42
2.5
  3
txt
  4

  0
ENDTAB
  0
TABLE
  2
VIEW
  5
6
330
0
100
AcDbSymbolTable
 70
     0
  0
ENDTAB
  0
TABLE
  2
UCS
  5
7
330
0
100
AcDbSymbolTable
 70
     0
  0
ENDTAB
  0
TABLE
  2
APPID
  5
9
330
0
100
AcDbSymbolTable
 70
     2
  0
APPID
  5
12
330
9
100
AcDbSymbolTableRecord
100
AcDbRegAppTableRecord
  2
ACAD
 70
     0
  0
ENDTAB
  0
TABLE
  2
DIMSTYLE
  5
A
330
0
100
AcDbSymbolTable
 70
     1
  0
DIMSTYLE
105
27
330
A
100
AcDbSymbolTableRecord
100
AcDbDimStyleTableRecord
  2
ISO-25
 70
     0
  3

  4

  5

  6

  7

 40
1.0
 41
2.5
 42
0.625
 43
3.75
 44
1.25
 45
0.0
 46
0.0
 47
0.0
 48
0.0
140
2.5
141
2.5
142
0.0
143
0.03937007874016
144
1.0
145
0.0
146
1.0
147
0.625
 71
     0
 72
     0
 73
     0
 74
     0
 75
     0
 76
     0
 77
     1
 78
     8
170
     0
171
     3
172
     1
173
     0
174
     0
175
     0
176
     0
177
     0
178
     0
270
     2
271
     2
272
     2
273
     2
274
     3
340
11
275
     0
280
     0
281
     0
282
     0
283
     0
284
     8
285
     0
286
     0
287
     3
288
     0
  0
ENDTAB
  0
TABLE
  2
BLOCK_RECORD
  5
1
330
0
100
AcDbSymbolTable
 70
     1
  0
BLOCK_RECORD
  5
1F
330
1
100
AcDbSymbolTableRecord
100
AcDbBlockTableRecord
  2
*MODEL_SPACE
  0
BLOCK_RECORD
  5
1B
330
1
100
AcDbSymbolTableRecord
100
AcDbBlockTableRecord
  2
*PAPER_SPACE
  0
ENDTAB
  0
ENDSEC
  0
SECTION
  2
BLOCKS
  0
BLOCK
  5
20
330
1F
100
AcDbEntity
  8
0
100
AcDbBlockBegin
  2
*MODEL_SPACE
 70
     0
 10
0.0
 20
0.0
 30
0.0
  3
*MODEL_SPACE
  1

  0
ENDBLK
  5
21
330
1F
100
AcDbEntity
  8
0
100
AcDbBlockEnd
  0
BLOCK
  5
1C
330
1B
100
AcDbEntity
 67
     1
  8
0
100
AcDbBlockBegin
  2
*PAPER_SPACE
  1

  0
ENDBLK
  5
1D
330
1B
100
AcDbEntity
 67
     1
  8
0
100
AcDbBlockEnd
  0
ENDSEC
  0
SECTION
  2
ENTITIES
  0
LWPOLYLINE
  5
100
100
AcDbEntity
  8
Ebene_1
 62
5
100
AcDbPolyline
 90
25
 70
1
 10
139.047360
 20
311.312109
 30
0.0
 10
69.595336
 20
191.017641
 30
0.0
 10
52.231780
 20
160.943059
 30
0.0
 10
34.868224
 20
130.868480
 30
0.0
 10
17.504665
 20
100.793900
 30
0.0
 10
0.141109
 20
70.719318
 30
0.0
 10
5.234890
 20
61.896566
 30
0.0
 10
10.328668
 20
53.073814
 30
0.0
 10
15.422449
 20
44.251062
 30
0.0
 10
20.516230
 20
35.428310
 30
0.0
 10
40.889147
 20
0.141162
 30
0.0
 10
179.797602
 20
0.141162
 30
0.0
 10
318.706592
 20
0.141727
 30
0.0
 10
339.079509
 20
35.428324
 30
0.0
 10
344.173309
 20
44.251076
 30
0.0
 10
349.267082
 20
53.073828
 30
0.0
 10
354.360854
 20
61.896580
 30
0.0
 10
359.454655
 20
70.719332
 30
0.0
 10
342.091074
 20
100.793900
 30
0.0
 10
324.727521
 20
130.868480
 30
0.0
 10
307.363968
 20
160.943059
 30
0.0
 10
290.000415
 20
191.017641
 30
0.0
 10
220.548396
 20
311.312109
 30
0.0
 10
179.798155
 20
311.312109
 30
0.0
 10
139.047360
 20
311.312109
 30
0.0
  0
LWPOLYLINE
  5
101
100
AcDbEntity
  8
Ebene_1
 62
5
100
AcDbPolyline
 90
17
 70
1
 10
149.804878
 20
307.713776
 30
0.0
 10
150.659238
 20
307.541270
 30
0.0
 10
151.356917
 20
307.070873
 30
0.0
 10
151.827311
 20
306.373197
 30
0.0
 10
151.999816
 20
305.518837
 30
0.0
 10
151.827311
 20
304.664480
 30
0.0
 10
151.356917
 20
303.966799
 30
0.0
 10
150.659235
 20
303.496405
 30
0.0
 10
149.804878
 20
303.323899
 30
0.0
 10
148.950518
 20
303.496405
 30
0.0
 10
148.252839
 20
303.966799
 30
0.0
 10
147.782443
 20
304.664477
 30
0.0
 10
147.609937
 20
305.518837
 30
0.0
 10
147.782443
 20
306.373197
 30
0.0
 10
148.252836
 20
307.070876
 30
0.0
 10
148.950518
 20
307.541270
 30
0.0
 10
149.804878
 20
307.713776
 30
0.0
  0
LWPOLYLINE
  5
102
100
AcDbEntity
  8
Ebene_1
 62
5
100
AcDbPolyline
 90
17
 70
1
 10
209.793636
 20
307.713211
 30
0.0
 10
210.647996
 20
307.540706
 30
0.0
 10
211.345674
 20
307.070309
 30
0.0
 10
211.816068
 20
306.372633
 30
0.0
 10
211.988574
 20
305.518273
 30
0.0
 10
211.816068
 20
304.663916
 30
0.0
 10
211.345674
 20
303.966234
 30
0.0
 10
210.647993
 20
303.495840
 30
0.0
 10
209.793636
 20
303.323335
 30
0.0
 10
208.939276
 20
303.495840
 30
0.0
 10
208.241597
 20
303.966234
 30
0.0
 10
207.771200
 20
304.663913
 30
0.0
 10
207.598695
 20
305.518273
 30
0.0
 10
207.771200
 20
306.372633
 30
0.0
 10
208.241594
 20
307.070312
 30
0.0
 10
208.939276
 20
307.540706
 30
0.0
 10
209.793636
 20
307.713211
 30
0.0
  0
LWPOLYLINE
  5
103
100
AcDbEntity
  8
Ebene_1
 62
5
100
AcDbPolyline
 90
21
 70
1
 10
218.429526
 20
295.414496
 30
0.0
 10
219.339111
 20
295.212713
 30
0.0
 10
220.106355
 20
294.729911
 30
0.0
 10
220.670599
 20
294.020409
 30
0.0
 10
220.971179
 20
293.138529
 30
0.0
 10
220.923862
 20
292.069549
 30
0.0
 10
220.485562
 20
291.134129
 30
0.0
 10
219.728521
 20
290.431275
 30
0.0
 10
218.724976
 20
290.059991
 30
0.0
 10
217.655827
 20
290.107133
 30
0.0
 10
216.720224
 20
290.545388
 30
0.0
 10
216.017228
 20
291.302495
 30
0.0
 10
215.645889
 20
292.306193
 30
0.0
 10
215.693028
 20
293.375343
 30
0.0
 10
216.131286
 20
294.310945
 30
0.0
 10
216.888392
 20
295.013943
 30
0.0
 10
217.892090
 20
295.385282
 30
0.0
 10
218.025773
 20
295.402667
 30
0.0
 10
218.160077
 20
295.413340
 30
0.0
 10
218.294745
 20
295.417289
 30
0.0
 10
218.429526
 20
295.414496
 30
0.0
  0
LWPOLYLINE
  5
104
100
AcDbEntity
  8
Ebene_1
 62
5
100
AcDbPolyline
 90
17
 70
1
 10
209.794186
 20
267.225347
 30
0.0
 10
210.453948
 20
267.092143
 30
0.0
 10
210.992719
 20
266.728893
 30
0.0
 10
211.355970
 20
266.190123
 30
0.0
 10
211.489173
 20
265.530360
 30
0.0
 10
211.355970
 20
264.870597
 30
0.0
 10
210.992719
 20
264.331827
 30
0.0
 10
210.453948
 20
263.968577
 30
0.0
 10
209.794186
 20
263.835373
 30
0.0
 10
209.134424
 20
263.968577
 30
0.0
 10
208.595653
 20
264.331827
 30
0.0
 10
208.232402
 20
264.870597
 30
0.0
 10
208.099199
 20
265.530360
 30
0.0
 10
208.232402
 20
266.190123
 30
0.0
 10
208.595653
 20
266.728893
 30
0.0
 10
209.134424
 20
267.092143
 30
0.0
 10
209.794186
 20
267.225347
 30
0.0
  0
LWPOLYLINE
  5
105
100
AcDbEntity
  8
Ebene_1
 62
5
100
AcDbPolyline
 90
17
 70
1
 10
149.804878
 20
267.224247
 30
0.0
 10
150.464640
 20
267.091042
 30
0.0
 10
151.003408
 20
266.727792
 30
0.0
 10
151.366659
 20
266.189022
 30
0.0
 10
151.499862
 20
265.529260
 30
0.0
 10
151.366659
 20
264.869497
 30
0.0
 10
151.003408
 20
264.330728
 30
0.0
 10
150.464640
 20
263.967477
 30
0.0
 10
149.804878
 20
263.834273
 30
0.0
 10
149.145116
 20
263.967476
 30
0.0
 10
148.606345
 20
264.330727
 30
0.0
 10
148.243094
 20
264.869496
 30
0.0
 10
148.109891
 20
265.529260
 30
0.0
 10
148.243094
 20
266.189023
 30
0.0
 10
148.606345
 20
266.727793
 30
0.0
 10
149.145116
 20
267.091043
 30
0.0
 10
149.804878
 20
267.224247
 30
0.0
  0
LWPOLYLINE
  5
106
100
AcDbEntity
  8
Ebene_1
 62
5
100
AcDbPolyline
 90
21
 70
1
 10
226.148744
 20
246.024506
 30
0.0
 10
227.058329
 20
245.822722
 30
0.0
 10
227.825573
 20
245.339922
 30
0.0
 10
228.389817
 20
244.630421
 30
0.0
 10
228.690397
 20
243.748539
 30
0.0
 10
228.643258
 20
242.679388
 30
0.0
 10
228.205003
 20
241.743787
 30
0.0
 10
227.447894
 20
241.040788
 30
0.0
 10
226.444196
 20
240.669448
 30
0.0
 10
225.374930
 20
240.716653
 30
0.0
 10
224.439273
 20
241.155043
 30
0.0
 10
223.736305
 20
241.912325
 30
0.0
 10
223.365107
 20
242.916203
 30
0.0
 10
223.412424
 20
243.985182
 30
0.0
 10
223.850721
 20
244.920602
 30
0.0
 10
224.607762
 20
245.623457
 30
0.0
 10
225.611308
 20
245.994743
 30
0.0
 10
225.744982
 20
246.012269
 30
0.0
 10
225.879281
 20
246.023078
 30
0.0
 10
226.013951
 20
246.027170
 30
0.0
 10
226.148744
 20
246.024506
 30
0.0
  0
LWPOLYLINE
  5
107
100
AcDbEntity
  8
Ebene_1
 62
5
100
AcDbPolyline
 90
21
 70
1
 10
274.026200
 20
201.329767
 30
0.0
 10
274.613499
 20
201.264173
 30
0.0
 10
275.153127
 20
201.049168
 30
0.0
 10
275.617530
 20
200.700237
 30
0.0
 10
275.979155
 20
200.232849
 30
0.0
 10
276.256788
 20
199.406728
 30
0.0
 10
276.198157
 20
198.567396
 30
0.0
 10
275.829106
 20
197.811275
 30
0.0
 10
275.175485
 20
197.234788
 30
0.0
 10
274.349452
 20
196.957059
 30
0.0
 10
273.510157
 20
197.015552
 30
0.0
 10
272.754010
 20
197.384445
 30
0.0
 10
272.177424
 20
198.037908
 30
0.0
 10
271.899489
 20
198.864077
 30
0.0
 10
271.957923
 20
199.703552
 30
0.0
 10
272.326889
 20
200.459857
 30
0.0
 10
272.980544
 20
201.036519
 30
0.0
 10
273.226594
 20
201.158665
 30
0.0
 10
273.484948
 20
201.248832
 30
0.0
 10
273.752518
 20
201.306157
 30
0.0
 10
274.026200
 20
201.329767
 30
0.0
  0
LWPOLYLINE
  5
108
100
AcDbEntity
  8
Ebene_1
 62
5
100
AcDbPolyline
 90
25
 70
1
 10
85.636804
 20
201.292836
 30
0.0
 10
85.910487
 20
201.269214
 30
0.0
 10
86.178053
 20
201.211889
 30
0.0
 10
86.436411
 20
201.121722
 30
0.0
 10
86.682460
 20
200.999576
 30
0.0
 10
87.336081
 20
200.423089
 30
0.0
 10
87.705132
 20
199.666971
 30
0.0
 10
87.763764
 20
198.827639
 30
0.0
 10
87.486130
 20
198.001518
 30
0.0
 10
86.909570
 20
197.347702
 30
0.0
 10
86.153291
 20
196.978581
 30
0.0
 10
85.313779
 20
196.920008
 30
0.0
 10
84.487519
 20
197.197845
 30
0.0
 10
83.833706
 20
197.774405
 30
0.0
 10
83.464582
 20
198.530687
 30
0.0
 10
83.406010
 20
199.370197
 30
0.0
 10
83.683849
 20
200.196456
 30
0.0
 10
84.017419
 20
200.635557
 30
0.0
 10
84.442846
 20
200.973298
 30
0.0
 10
84.938149
 20
201.196296
 30
0.0
 10
85.481362
 20
201.291171
 30
0.0
 10
85.520207
 20
201.292582
 30
0.0
 10
85.559066
 20
201.293428
 30
0.0
 10
85.597937
 20
201.293496
 30
0.0
 10
85.636804
 20
201.292836
 30
0.0
  0
LWPOLYLINE
  5
109
100
AcDbEntity
  8
Ebene_1
 62
5
100
AcDbPolyline
 90
21
 70
1
 10
289.021443
 20
175.357054
 30
0.0
 10
289.608747
 20
175.291460
 30
0.0
 10
290.148384
 20
175.076457
 30
0.0
 10
290.612781
 20
174.727523
 30
0.0
 10
290.974420
 20
174.260135
 30
0.0
 10
291.252042
 20
173.434011
 30
0.0
 10
291.193425
 20
172.594680
 30
0.0
 10
290.824363
 20
171.838561
 30
0.0
 10
290.170736
 20
171.262074
 30
0.0
 10
289.344700
 20
170.984345
 30
0.0
 10
288.505399
 20
171.042838
 30
0.0
 10
287.749270
 20
171.411731
 30
0.0
 10
287.172690
 20
172.065197
 30
0.0
 10
286.894757
 20
172.891369
 30
0.0
 10
286.953177
 20
173.730841
 30
0.0
 10
287.322154
 20
174.487146
 30
0.0
 10
287.975809
 20
175.063808
 30
0.0
 10
288.221851
 20
175.185951
 30
0.0
 10
288.480197
 20
175.276121
 30
0.0
 10
288.747772
 20
175.333443
 30
0.0
 10
289.021443
 20
175.357054
 30
0.0
  0
LWPOLYLINE
  5
10a
100
AcDbEntity
  8
Ebene_1
 62
5
100
AcDbPolyline
 90
25
 70
1
 10
70.641542
 20
175.320673
 30
0.0
 10
70.915227
 20
175.297051
 30
0.0
 10
71.182793
 20
175.239728
 30
0.0
 10
71.441148
 20
175.149561
 30
0.0
 10
71.687198
 20
175.027415
 30
0.0
 10
72.341014
 20
174.450855
 30
0.0
 10
72.710135
 20
173.694573
 30
0.0
 10
72.768707
 20
172.855064
 30
0.0
 10
72.490871
 20
172.028804
 30
0.0
 10
71.914209
 20
171.375149
 30
0.0
 10
71.157904
 20
171.006183
 30
0.0
 10
70.318428
 20
170.947749
 30
0.0
 10
69.492260
 20
171.225685
 30
0.0
 10
68.838602
 20
171.802346
 30
0.0
 10
68.469639
 20
172.558651
 30
0.0
 10
68.411205
 20
173.398124
 30
0.0
 10
68.689140
 20
174.224296
 30
0.0
 10
69.022608
 20
174.663301
 30
0.0
 10
69.447897
 20
175.001005
 30
0.0
 10
69.943045
 20
175.224034
 30
0.0
 10
70.486100
 20
175.319007
 30
0.0
 10
70.524945
 20
175.320419
 30
0.0
 10
70.563807
 20
175.321265
 30
0.0
 10
70.602677
 20
175.321333
 30
0.0
 10
70.641542
 20
175.320673
 30
0.0
  0
LWPOLYLINE
  5
10b
100
AcDbEntity
  8
Ebene_1
 62
5
100
AcDbPolyline
 90
17
 70
1
 10
179.799255
 20
127.884742
 30
0.0
 10
179.991929
 20
127.845840
 30
0.0
 10
180.149265
 20
127.739759
 30
0.0
 10
180.255346
 20
127.582422
 30
0.0
 10
180.294248
 20
127.389749
 30
0.0
 10
180.255346
 20
127.197076
 30
0.0
 10
180.149265
 20
127.039740
 30
0.0
 10
179.991929
 20
126.933658
 30
0.0
 10
179.799255
 20
126.894757
 30
0.0
 10
179.606585
 20
126.933658
 30
0.0
 10
179.449246
 20
127.039740
 30
0.0
 10
179.343167
 20
127.197079
 30
0.0
 10
179.304266
 20
127.389749
 30
0.0
 10
179.343167
 20
127.582420
 30
0.0
 10
179.449246
 20
127.739759
 30
0.0
 10
179.606585
 20
127.845840
 30
0.0
 10
179.799255
 20
127.884742
 30
0.0
  0
LWPOLYLINE
  5
10c
100
AcDbEntity
  8
Ebene_1
 62
5
100
AcDbPolyline
 90
25
 70
1
 10
314.468320
 20
85.991839
 30
0.0
 10
314.679676
 20
85.973579
 30
0.0
 10
314.886319
 20
85.929293
 30
0.0
 10
315.085822
 20
85.859635
 30
0.0
 10
315.275842
 20
85.765282
 30
0.0
 10
315.780625
 20
85.319955
 30
0.0
 10
316.065528
 20
84.735896
 30
0.0
 10
316.110627
 20
84.087618
 30
0.0
 10
315.895969
 20
83.449626
 30
0.0
 10
315.450707
 20
82.945041
 30
0.0
 10
314.866818
 20
82.660200
 30
0.0
 10
314.218722
 20
82.615041
 30
0.0
 10
313.580844
 20
82.829508
 30
0.0
 10
313.076118
 20
83.274660
 30
0.0
 10
312.791101
 20
83.858532
 30
0.0
 10
312.745805
 20
84.506670
 30
0.0
 10
312.960181
 20
85.144613
 30
0.0
 10
313.217737
 20
85.483737
 30
0.0
 10
313.546215
 20
85.744595
 30
0.0
 10
313.928683
 20
85.916855
 30
0.0
 10
314.348150
 20
85.990176
 30
0.0
 10
314.378178
 20
85.991305
 30
0.0
 10
314.408206
 20
85.991870
 30
0.0
 10
314.438263
 20
85.992019
 30
0.0
 10
314.468320
 20
85.991839
 30
0.0
  0
LWPOLYLINE
  5
10d
100
AcDbEntity
  8
Ebene_1
 62
5
100
AcDbPolyline
 90
21
 70
1
 10
45.126889
 20
85.989581
 30
0.0
 10
45.580437
 20
85.938905
 30
0.0
 10
45.997164
 20
85.772837
 30
0.0
 10
46.355783
 20
85.503340
 30
0.0
 10
46.635017
 20
85.142364
 30
0.0
 10
46.849387
 20
84.504420
 30
0.0
 10
46.804091
 20
83.856283
 30
0.0
 10
46.519091
 20
83.272410
 30
0.0
 10
46.014348
 20
82.827258
 30
0.0
 10
45.376492
 20
82.612792
 30
0.0
 10
44.728394
 20
82.657950
 30
0.0
 10
44.144496
 20
82.942792
 30
0.0
 10
43.699243
 20
83.447377
 30
0.0
 10
43.484570
 20
84.085368
 30
0.0
 10
43.529669
 20
84.733647
 30
0.0
 10
43.814584
 20
85.317706
 30
0.0
 10
44.319361
 20
85.763033
 30
0.0
 10
44.509373
 20
85.857385
 30
0.0
 10
44.708893
 20
85.927043
 30
0.0
 10
44.915527
 20
85.971330
 30
0.0
 10
45.126889
 20
85.989581
 30
0.0
  0
LWPOLYLINE
  5
10e
100
AcDbEntity
  8
Ebene_1
 62
5
100
AcDbPolyline
 90
25
 70
1
 10
349.111634
 20
66.496955
 30
0.0
 10
349.385333
 20
66.473333
 30
0.0
 10
349.652880
 20
66.416011
 30
0.0
 10
349.911254
 20
66.325844
 30
0.0
 10
350.157295
 20
66.203698
 30
0.0
 10
350.811120
 20
65.627138
 30
0.0
 10
351.180238
 20
64.870858
 30
0.0
 10
351.238799
 20
64.031346
 30
0.0
 10
350.960980
 20
63.205087
 30
0.0
 10
350.384400
 20
62.551271
 30
0.0
 10
349.628129
 20
62.182150
 30
0.0
 10
348.788602
 20
62.123577
 30
0.0
 10
347.962368
 20
62.401414
 30
0.0
 10
347.308685
 20
62.978076
 30
0.0
 10
346.939736
 20
63.734380
 30
0.0
 10
346.881288
 20
64.573853
 30
0.0
 10
347.159220
 20
65.400025
 30
0.0
 10
347.492638
 20
65.839191
 30
0.0
 10
347.917890
 20
66.177048
 30
0.0
 10
348.413077
 20
66.400209
 30
0.0
 10
348.956186
 20
66.495290
 30
0.0
 10
348.995048
 20
66.496701
 30
0.0
 10
349.033910
 20
66.497548
 30
0.0
 10
349.072772
 20
66.497615
 30
0.0
 10
349.111634
 20
66.496955
 30
0.0
  0
LWPOLYLINE
  5
10f
100
AcDbEntity
  8
Ebene_1
 62
5
100
AcDbPolyline
 90
21
 70
1
 10
10.484663
 20
66.494697
 30
0.0
 10
11.071962
 20
66.429100
 30
0.0
 10
11.611591
 20
66.214098
 30
0.0
 10
12.075993
 20
65.865167
 30
0.0
 10
12.437619
 20
65.397778
 30
0.0
 10
12.715455
 20
64.571519
 30
0.0
 10
12.656883
 20
63.732007
 30
0.0
 10
12.287761
 20
62.975728
 30
0.0
 10
11.633946
 20
62.399167
 30
0.0
 10
10.807825
 20
62.121534
 30
0.0
 10
9.968493
 20
62.180168
 30
0.0
 10
9.212375
 20
62.549219
 30
0.0
 10
8.635888
 20
63.202840
 30
0.0
 10
8.358158
 20
64.028874
 30
0.0
 10
8.416652
 20
64.868169
 30
0.0
 10
8.785544
 20
65.624313
 30
0.0
 10
9.439007
 20
66.200898
 30
0.0
 10
9.685029
 20
66.323188
 30
0.0
 10
9.943375
 20
66.413496
 30
0.0
 10
10.210953
 20
66.470957
 30
0.0
 10
10.484663
 20
66.494697
 30
0.0
  0
LWPOLYLINE
  5
110
100
AcDbEntity
  8
Ebene_1
 62
5
100
AcDbPolyline
 90
25
 70
1
 10
284.473940
 20
34.039142
 30
0.0
 10
284.685296
 20
34.020882
 30
0.0
 10
284.891939
 20
33.976593
 30
0.0
 10
285.091442
 20
33.906937
 30
0.0
 10
285.281462
 20
33.812582
 30
0.0
 10
285.786245
 20
33.367255
 30
0.0
 10
286.071148
 20
32.783196
 30
0.0
 10
286.116247
 20
32.134918
 30
0.0
 10
285.901589
 20
31.496926
 30
0.0
 10
285.456327
 20
30.992341
 30
0.0
 10
284.872437
 20
30.707500
 30
0.0
 10
284.224342
 20
30.662344
 30
0.0
 10
283.586464
 20
30.876811
 30
0.0
 10
283.081737
 20
31.321962
 30
0.0
 10
282.796721
 20
31.905835
 30
0.0
 10
282.751424
 20
32.553970
 30
0.0
 10
282.965800
 20
33.191913
 30
0.0
 10
283.223356
 20
33.531037
 30
0.0
 10
283.551835
 20
33.791898
 30
0.0
 10
283.934302
 20
33.964158
 30
0.0
 10
284.353769
 20
34.037479
 30
0.0
 10
284.383798
 20
34.038608
 30
0.0
 10
284.413826
 20
34.039173
 30
0.0
 10
284.443883
 20
34.039322
 30
0.0
 10
284.473940
 20
34.039142
 30
0.0
  0
LWPOLYLINE
  5
111
100
AcDbEntity
  8
Ebene_1
 62
5
100
AcDbPolyline
 90
21
 70
1
 10
75.122373
 20
34.037448
 30
0.0
 10
75.575853
 20
33.986874
 30
0.0
 10
75.992549
 20
33.820941
 30
0.0
 10
76.351188
 20
33.551597
 30
0.0
 10
76.630498
 20
33.190782
 30
0.0
 10
76.845071
 20
32.552703
 30
0.0
 10
76.799837
 20
31.904387
 30
0.0
 10
76.514764
 20
31.320354
 30
0.0
 10
76.009829
 20
30.875126
 30
0.0
 10
75.371885
 20
30.660755
 30
0.0
 10
74.723751
 20
30.706052
 30
0.0
 10
74.139878
 20
30.991051
 30
0.0
 10
73.694723
 20
31.495794
 30
0.0
 10
73.480257
 20
32.133651
 30
0.0
 10
73.525416
 20
32.781748
 30
0.0
 10
73.810257
 20
33.365644
 30
0.0
 10
74.314842
 20
33.810897
 30
0.0
 10
74.504854
 20
33.905253
 30
0.0
 10
74.704373
 20
33.974908
 30
0.0
 10
74.911008
 20
34.019197
 30
0.0
 10
75.122373
 20
34.037448
 30
0.0
  0
LWPOLYLINE
  5
112
100
AcDbEntity
  8
Ebene_1
 62
5
100
AcDbPolyline
 90
25
 70
1
 10
319.116717
 20
14.545373
 30
0.0
 10
319.390388
 20
14.521751
 30
0.0
 10
319.657963
 20
14.464428
 30
0.0
 10
319.916309
 20
14.374261
 30
0.0
 10
320.162351
 20
14.252115
 30
0.0
 10
320.816175
 20
13.675555
 30
0.0
 10
321.185293
 20
12.919276
 30
0.0
 10
321.243883
 20
12.079763
 30
0.0
 10
320.966035
 20
11.253504
 30
0.0
 10
320.389483
 20
10.599689
 30
0.0
 10
319.633184
 20
10.230567
 30
0.0
 10
318.793686
 20
10.171995
 30
0.0
 10
317.967424
 20
10.449831
 30
0.0
 10
317.313769
 20
11.026493
 30
0.0
 10
316.944792
 20
11.782798
 30
0.0
 10
316.886372
 20
12.622271
 30
0.0
 10
317.164304
 20
13.448442
 30
0.0
 10
317.497693
 20
13.887608
 30
0.0
 10
317.922974
 20
14.225465
 30
0.0
 10
318.418133
 20
14.448627
 30
0.0
 10
318.961269
 20
14.543707
 30
0.0
 10
319.000103
 20
14.545119
 30
0.0
 10
319.038965
 20
14.545965
 30
0.0
 10
319.077827
 20
14.546033
 30
0.0
 10
319.116717
 20
14.545373
 30
0.0
  0
LWPOLYLINE
  5
113
100
AcDbEntity
  8
Ebene_1
 62
5
100
AcDbPolyline
 90
21
 70
1
 10
40.478492
 20
14.542550
 30
0.0
 10
41.065790
 20
14.476953
 30
0.0
 10
41.605419
 20
14.261951
 30
0.0
 10
42.069821
 20
13.913020
 30
0.0
 10
42.431447
 20
13.445632
 30
0.0
 10
42.709286
 20
12.619375
 30
0.0
 10
42.650714
 20
11.779863
 30
0.0
 10
42.281590
 20
11.023584
 30
0.0
 10
41.627777
 20
10.447020
 30
0.0
 10
40.801656
 20
10.169387
 30
0.0
 10
39.962324
 20
10.228019
 30
0.0
 10
39.206203
 20
10.597070
 30
0.0
 10
38.629716
 20
11.250691
 30
0.0
 10
38.351781
 20
12.076859
 30
0.0
 10
38.410215
 20
12.916335
 30
0.0
 10
38.779178
 20
13.672640
 30
0.0
 10
39.432836
 20
14.249302
 30
0.0
 10
39.678885
 20
14.371447
 30
0.0
 10
39.937240
 20
14.461615
 30
0.0
 10
40.204809
 20
14.518940
 30
0.0
 10
40.478492
 20
14.542550
 30
0.0
  0
LWPOLYLINE
  5
114
100
AcDbEntity
  8
Ebene_1
 62
5
100
AcDbPolyline
 90
17
 70
1
 10
164.111668
 20
12.227995
 30
0.0
 10
164.966161
 20
12.055436
 30
0.0
 10
165.663901
 20
11.584901
 30
0.0
 10
166.134261
 20
10.887042
 30
0.0
 10
166.306609
 20
10.032507
 30
0.0
 10
166.134103
 20
9.178147
 30
0.0
 10
165.663710
 20
8.480465
 30
0.0
 10
164.966028
 20
8.010071
 30
0.0
 10
164.111668
 20
7.837566
 30
0.0
 10
163.257308
 20
8.010071
 30
0.0
 10
162.559629
 20
8.480468
 30
0.0
 10
162.089235
 20
9.178147
 30
0.0
 10
161.916730
 20
10.032507
 30
0.0
 10
162.089077
 20
10.887042
 30
0.0
 10
162.559434
 20
11.584901
 30
0.0
 10
163.257175
 20
12.055433
 30
0.0
 10
164.111668
 20
12.227995
 30
0.0
  0
LWPOLYLINE
  5
115
100
AcDbEntity
  8
Ebene_1
 62
5
100
AcDbPolyline
 90
17
 70
1
 10
194.102190
 20
12.227995
 30
0.0
 10
194.956683
 20
12.055433
 30
0.0
 10
195.654424
 20
11.584901
 30
0.0
 10
196.124781
 20
10.887042
 30
0.0
 10
196.297128
 20
10.032507
 30
0.0
 10
196.124623
 20
9.178147
 30
0.0
 10
195.654229
 20
8.480468
 30
0.0
 10
194.956550
 20
8.010071
 30
0.0
 10
194.102190
 20
7.837566
 30
0.0
 10
193.247830
 20
8.010071
 30
0.0
 10
192.550151
 20
8.480468
 30
0.0
 10
192.079758
 20
9.178147
 30
0.0
 10
191.907252
 20
10.032507
 30
0.0
 10
192.079599
 20
10.887042
 30
0.0
 10
192.549957
 20
11.584901
 30
0.0
 10
193.247697
 20
12.055433
 30
0.0
 10
194.102190
 20
12.227995
 30
0.0
  0
ENDSEC
  0
SECTION
  2
OBJECTS
  0
DICTIONARY
  5
C
330
0
100
AcDbDictionary
  3
ACAD_GROUP
350
D
  3
ACAD_MLINESTYLE
350
17
  0
DICTIONARY
  5
D
330
C
100
AcDbDictionary
  0
DICTIONARY
  5
1A
330
C
100
AcDbDictionary
  0
DICTIONARY
  5
17
330
C
100
AcDbDictionary
  3
STANDARD
350
18
  0
DICTIONARY
  5
19
330
C
100
AcDbDictionary
  0
ENDSEC
  0
EOF
