<?xml version="1.0" encoding="UTF-8" standalone="no"?>
<!-- Created with Inkscape (http://www.inkscape.org/) -->

<svg
   xmlns:dc="http://purl.org/dc/elements/1.1/"
   xmlns:cc="http://creativecommons.org/ns#"
   xmlns:rdf="http://www.w3.org/1999/02/22-rdf-syntax-ns#"
   xmlns:svg="http://www.w3.org/2000/svg"
   xmlns="http://www.w3.org/2000/svg"
   xmlns:sodipodi="http://sodipodi.sourceforge.net/DTD/sodipodi-0.dtd"
   xmlns:inkscape="http://www.inkscape.org/namespaces/inkscape"
   width="359.59579mm"
   height="311.45322mm"
   viewBox="0 0 1274.1582 1103.5744"
   id="svg4160"
   version="1.1"
   inkscape:version="0.91 r13725"
   sodipodi:docname="plate_top_dxf.svg">
  <defs
     id="defs4162" />
  <sodipodi:namedview
     id="base"
     pagecolor="#ffffff"
     bordercolor="#666666"
     borderopacity="1.0"
     inkscape:pageopacity="0.0"
     inkscape:pageshadow="2"
     inkscape:zoom="31.678384"
     inkscape:cx="641.05501"
     inkscape:cy="462.75153"
     inkscape:document-units="px"
     inkscape:current-layer="layer1"
     showgrid="false"
     inkscape:window-width="1502"
     inkscape:window-height="1426"
     inkscape:window-x="1413"
     inkscape:window-y="80"
     inkscape:window-maximized="0"
     width="400mm"
     fit-margin-top="0"
     fit-margin-left="0"
     fit-margin-right="0"
     fit-margin-bottom="0" />
  <metadata
     id="metadata4165">
    <rdf:RDF>
      <cc:Work
         rdf:about="">
        <dc:format>image/svg+xml</dc:format>
        <dc:type
           rdf:resource="http://purl.org/dc/dcmitype/StillImage" />
        <dc:title></dc:title>
      </cc:Work>
    </rdf:RDF>
  </metadata>
  <g
     inkscape:label="Ebene 1"
     inkscape:groupmode="layer"
     id="layer1"
     transform="translate(-21.004974,147.50504)">
    <path
       style="color:#000000;clip-rule:nonzero;display:inline;overflow:visible;visibility:visible;opacity:1;isolation:auto;mix-blend-mode:normal;color-interpolation:sRGB;color-interpolation-filters:linearRGB;solid-color:#000000;solid-opacity:1;fill:#000000;fill-opacity:1;fill-rule:nonzero;stroke:#0000ff;stroke-width:1;stroke-linecap:round;stroke-linejoin:round;stroke-miterlimit:4;stroke-dasharray:none;stroke-dashoffset:0;stroke-opacity:1;marker:none;color-rendering:auto;image-rendering:auto;shape-rendering:auto;text-rendering:auto;enable-background:accumulate"
       d="M 513.69247,-147.00504 267.60262,279.2352 206.07821,385.79868 144.5538,492.36215 83.029376,598.92562 21.504966,705.4891 l 18.04883,31.26172 18.04882,31.26172 18.04883,31.26172 18.04883,31.26172 72.187504,125.0332 492.19531,0 492.19721,-0.002 72.1875,-125.03125 18.0489,-31.26172 18.0488,-31.26172 18.0488,-31.26172 18.0489,-31.26172 -61.5245,-106.56343 -61.5244,-106.56347 -61.5244,-106.56347 -61.5244,-106.56348 -246.08983,-426.24024 -144.39062,0 z m 38.11719,12.75 3.02726,0.61124 2.47209,1.66676 1.66675,2.47208 0.61124,3.02726 -0.61124,3.02725 -1.66675,2.4721 -2.4721,1.66675 -3.02725,0.61124 -3.02726,-0.61124 -2.47209,-1.66675 -1.66676,-2.47209 -0.61124,-3.02726 0.61124,-3.02726 1.66675,-2.47209 2.4721,-1.66675 z m 212.55859,0.002 3.02726,0.61124 2.47209,1.66676 1.66675,2.47208 0.61124,3.02726 -0.61124,3.02725 -1.66675,2.4721 -2.4721,1.66675 -3.02725,0.61124 -3.02726,-0.61124 -2.47209,-1.66675 -1.66676,-2.47209 -0.61124,-3.02726 0.61124,-3.02726 1.66675,-2.47209 2.4721,-1.66675 z m 30.59961,43.578123 3.22294,0.714982 2.71858,1.710716 1.99929,2.513981 1.06505,3.124774 -0.16766,3.787724 -1.55303,3.314479 -2.68243,2.490429 -3.55587,1.315571 -3.78832,-0.167037 -3.31513,-1.552872 -2.49093,-2.682664 -1.31577,-3.556411 0.16703,-3.788325 1.55288,-3.315124 2.68266,-2.490938 3.55641,-1.315769 0.47368,-0.0616 0.47588,-0.03782 0.47717,-0.01399 z m -30.59766,99.8828122 2.33774,0.471982 1.90903,1.2871068 1.28711,1.909027 0.47198,2.337744 -0.47198,2.337743 -1.28711,1.909027 -1.90903,1.287107 -2.33774,0.471982 -2.33774,-0.471982 -1.90903,-1.287107 -1.28711,-1.909027 -0.47198,-2.337743 0.47198,-2.337744 1.28711,-1.909027 1.90903,-1.2871068 z m -212.56054,0.0039 2.33774,0.471985 1.90902,1.2871068 1.28711,1.909026 0.47198,2.337741 -0.47198,2.337741 -1.28711,1.909026 -1.90902,1.287108 -2.33774,0.471985 -2.33774,-0.471982 -1.90903,-1.287107 -1.28711,-1.909027 -0.47198,-2.337744 0.47198,-2.337743 1.28711,-1.909027 1.90903,-1.2871068 z m 270.50976,75.1171918 3.22294,0.71498 2.71858,1.71071 1.99929,2.51398 1.06505,3.12478 -0.16703,3.78833 -1.55287,3.31512 -2.68267,2.490943 -3.55641,1.31577 -3.78874,-0.16726 -3.31532,-1.55335 -2.49083,-2.683283 -1.31527,-3.55705 0.16766,-3.78772 1.55302,-3.31448 2.68243,-2.49043 3.55587,-1.31558 0.47365,-0.0621 0.47586,-0.0383 0.47718,-0.0145 z m 169.64453,158.367183 2.08098,0.23242 1.91207,0.76183 1.64552,1.23637 1.28135,1.6561 0.98374,2.9272 -0.20775,2.97401 -1.30766,2.67917 -2.31598,2.04267 -2.92689,0.98408 -2.97388,-0.20726 -2.67926,-1.3071 -2.04302,-2.31542 -0.98481,-2.92737 0.20705,-2.97452 1.30736,-2.67982 2.3161,-2.04329 0.87183,-0.4328 0.91543,-0.31949 0.94808,-0.20312 z m -667.52148,0.13086 0.96974,0.0837 0.94807,0.20312 0.91544,0.31949 0.87183,0.4328 2.31598,2.04267 1.30766,2.67916 0.20775,2.97401 -0.98374,2.9272 -2.04293,2.31667 -2.67973,1.30791 -2.97465,0.20754 -2.92769,-0.98446 -2.31666,-2.04293 -1.30792,-2.67974 -0.20754,-2.97464 0.98447,-2.92769 1.18194,-1.55587 1.50742,-1.19672 1.75501,-0.79015 1.92477,-0.33617 0.13764,-0.005 0.13769,-0.003 0.13773,-2.4e-4 z m 720.65423,91.89844 2.081,0.23242 1.9121,0.76182 1.6455,1.23638 1.2814,1.6561 0.9837,2.92721 -0.2077,2.97401 -1.3077,2.67916 -2.316,2.04267 -2.9269,0.98408 -2.9739,-0.20726 -2.6792,-1.3071 -2.043,-2.31543 -0.9848,-2.92738 0.207,-2.97451 1.3074,-2.67982 2.3161,-2.04329 0.8718,-0.43279 0.9154,-0.3195 0.9481,-0.20311 z m -773.78705,0.12891 0.96975,0.0837 0.94807,0.20311 0.91543,0.31949 0.87183,0.4328 2.31667,2.04293 1.30791,2.67974 0.20754,2.97464 -0.98446,2.92769 -2.04329,2.3161 -2.67982,1.30736 -2.97452,0.20705 -2.92737,-0.98481 -2.31611,-2.04329 -1.30735,-2.67982 -0.20705,-2.97451 0.98481,-2.92738 1.18158,-1.55553 1.50693,-1.19659 1.75446,-0.79026 1.92421,-0.33652 0.13764,-0.005 0.1377,-0.003 0.13773,-2.4e-4 z m 386.7793,168.08007 0.6827,0.13784 0.55749,0.37588 0.37588,0.55749 0.13784,0.6827 -0.13784,0.6827 -0.37588,0.55749 -0.55749,0.37588 -0.6827,0.13784 -0.68269,-0.13784 -0.5575,-0.37588 -0.37587,-0.5575 -0.13784,-0.68269 0.13784,-0.68269 0.37587,-0.5575 0.5575,-0.37588 z m 477.17385,148.43942 0.7489,0.0647 0.7322,0.15692 0.7069,0.24682 0.6733,0.33432 1.7886,1.57793 1.0095,2.0695 0.1598,2.29705 -0.7606,2.2606 -1.5777,1.7879 -2.0689,1.00928 -2.2964,0.16001 -2.2602,-0.75992 -1.7884,-1.57731 -1.0099,-2.06884 -0.1605,-2.29655 0.7596,-2.26043 0.9126,-1.20162 1.1639,-0.9243 1.3552,-0.61037 1.4863,-0.2598 0.1064,-0.004 0.1064,-0.002 0.1065,-5.3e-4 z m -954.3594,0.008 1.60706,0.17956 1.47659,0.58843 1.2707,0.95491 0.98941,1.27905 0.75958,2.26043 -0.1605,2.29655 -1.00984,2.06884 -1.78846,1.57731 -2.26012,0.75992 -2.29641,-0.16001 -2.06893,-1.00928 -1.57767,-1.7879 -0.76065,-2.2606 0.1598,-2.29705 1.00954,-2.0695 1.78858,-1.57793 0.67327,-0.33432 0.70696,-0.24682 0.73217,-0.15692 z m 1077.1113,69.06836 0.9698,0.0837 0.948,0.20311 0.9155,0.31949 0.8718,0.4328 2.3167,2.04293 1.3079,2.67973 0.2075,2.97465 -0.9844,2.92769 -2.043,2.31667 -2.6797,1.30791 -2.9747,0.20754 -2.9276,-0.98446 -2.3162,-2.04329 -1.3073,-2.67982 -0.2071,-2.97451 0.9848,-2.92738 1.1814,-1.5561 1.5068,-1.19713 1.7546,-0.79073 1.9244,-0.3369 0.1377,-0.005 0.1377,-0.003 0.1377,-2.4e-4 z m -1199.859344,0.008 2.08098,0.23243 1.91207,0.76182 1.64552,1.23637 1.28135,1.6561 0.98446,2.92769 -0.20754,2.97465 -1.30791,2.67973 -2.31667,2.04293 -2.9272,0.98374 -2.97401,-0.20776 -2.67916,-1.30766 -2.04267,-2.31598 -0.98408,-2.92689 0.20726,-2.97388 1.3071,-2.67925 2.31542,-2.04302 0.87173,-0.43331 0.9154,-0.31999 0.94811,-0.2036 z m 970.828144,115 0.7489,0.0647 0.7322,0.15693 0.7069,0.24681 0.6733,0.33433 1.7886,1.57793 1.0095,2.0695 0.1598,2.29705 -0.7606,2.2606 -1.5777,1.7879 -2.0689,1.00928 -2.2964,0.16 -2.2602,-0.75992 -1.7884,-1.57731 -1.0099,-2.06884 -0.1605,-2.29654 0.7596,-2.26043 0.9126,-1.20162 1.1639,-0.92431 1.3552,-0.61037 1.4863,-0.2598 0.1064,-0.004 0.1064,-0.002 0.1065,-5.3e-4 z m -741.79689,0.006 1.60682,0.1792 1.47648,0.58795 1.27077,0.95437 0.98968,1.27848 0.7603,2.26091 -0.16028,2.29718 -1.0101,2.06941 -1.78914,1.57758 -2.26043,0.75958 -2.29654,-0.1605 -2.06884,-1.00984 -1.57732,-1.78846 -0.75992,-2.26012 0.16001,-2.29641 1.00928,-2.06892 1.7879,-1.57767 0.67327,-0.33433 0.70696,-0.24681 0.73217,-0.15693 z m 864.54689,69.06641 0.9697,0.0837 0.9481,0.20311 0.9154,0.31949 0.8718,0.4328 2.3167,2.04293 1.3079,2.67973 0.2076,2.97465 -0.9845,2.92769 -2.0429,2.31667 -2.6798,1.30791 -2.9746,0.20754 -2.9277,-0.98446 -2.3161,-2.04329 -1.3074,-2.67982 -0.207,-2.97451 0.9848,-2.92738 1.1813,-1.5561 1.5069,-1.19713 1.7545,-0.79073 1.9245,-0.3369 0.1376,-0.005 0.1377,-0.003 0.1377,-2.4e-4 z m -987.3008,0.01 2.08098,0.23243 1.91207,0.76182 1.64552,1.23637 1.28135,1.6561 0.98447,2.92768 -0.20754,2.97465 -1.30792,2.67973 -2.31666,2.04294 -2.9272,0.98374 -2.97401,-0.20775 -2.67917,-1.30766 -2.04267,-2.31598 -0.98481,-2.92737 0.20705,-2.97452 1.30735,-2.67982 2.31611,-2.04329 0.87183,-0.4328 0.91543,-0.31949 0.94808,-0.20312 z m 438.07031,8.20118 3.02773,0.61143 2.47231,1.66725 1.66663,2.47273 0.61068,3.02788 -0.61124,3.02726 -1.66675,2.4721 -2.4721,1.66675 -3.02726,0.61124 -3.02726,-0.61124 -2.47209,-1.66676 -1.66675,-2.47209 -0.61124,-3.02726 0.61068,-3.02788 1.66662,-2.47273 2.47231,-1.66724 z m 106.26563,0 3.02773,0.61144 2.47231,1.66724 1.66662,2.47273 0.61068,3.02788 -0.61124,3.02726 -1.66675,2.47209 -2.47209,1.66676 -3.02726,0.61124 -3.02726,-0.61124 -2.47209,-1.66676 -1.66675,-2.47209 -0.61124,-3.02726 0.61068,-3.02788 1.66662,-2.47273 2.47231,-1.66724 z"
       id="path5485-9-7-5-4"
       inkscape:connector-curvature="0"
       sodipodi:nodetypes="cccccccccccccccccccccccccccccccccccccccccccccccccccccccccccccccccccccccccccccccccccccccccccccccccccccccccccccccccccccccccccccccccccccccccccccccccccccccccccccccccccccccccccccccccccccccccccccccccccccccccccccccccccccccccccccccccccccccccccccccccccccccccccccccccccccccccccccccccccccccccccccccccccccccccccccccccccccccccccccccccccccccccccccccccccccccccccccccccccccccccccccccccccccccccccccccccccccccccccccccccccccccccccccccccccccccccccccccccccccccccccccccccccccccccccccc" />
  </g>
</svg>
